<?xml version="1.0" encoding="UTF-8" standalone="no"?>
<svg
   xmlns:dc="http://purl.org/dc/elements/1.1/"
   xmlns:cc="http://creativecommons.org/ns#"
   xmlns:rdf="http://www.w3.org/1999/02/22-rdf-syntax-ns#"
   xmlns:svg="http://www.w3.org/2000/svg"
   xmlns="http://www.w3.org/2000/svg"
   viewBox="0 0 95.927597 95.973869"
   height="95.973869"
   width="95.927597"
   xml:space="preserve"
   id="svg2"
   version="1.1"><metadata
     id="metadata8"><rdf:RDF><cc:Work
         rdf:about=""><dc:format>image/svg+xml</dc:format><dc:type
           rdf:resource="http://purl.org/dc/dcmitype/StillImage" /></cc:Work></rdf:RDF></metadata><defs
     id="defs6"><clipPath
       id="clipPath18"
       clipPathUnits="userSpaceOnUse"><path
         id="path16"
         d="M 0,71.98 H 71.946 V 0 H 0 Z" /></clipPath></defs><g
     transform="matrix(1.3333333,0,0,-1.3333333,0,95.973867)"
     id="g10"><g
       id="g12"><g
         clip-path="url(#clipPath18)"
         id="g14"><g
           transform="translate(52.1923,63.0159)"
           id="g20"><path
             id="path22"
             style="fill:#545455;fill-opacity:1;fill-rule:nonzero;stroke:none"
             d="m 0,0 h -0.045 -32.351 -0.045 l -0.046,-0.001 c -2.294,-0.07 -4.173,-1.923 -4.278,-4.218 l -0.003,-0.071 v -0.071 l 0.033,-22.523 c 0,-0.814 0.224,-1.577 0.616,-2.23 -0.358,-0.404 -0.638,-0.865 -0.817,-1.367 -1.168,-3.246 -1.756,-4.875 -2.933,-8.132 l -0.034,-0.097 -0.029,-0.098 c -0.315,-1.102 -0.106,-2.263 0.574,-3.183 0.266,-0.359 0.593,-0.668 0.969,-0.919 l -0.136,-0.648 -0.013,-0.062 -0.011,-0.063 c -0.219,-1.32 0.117,-2.641 0.922,-3.624 0.194,-0.237 0.413,-0.451 0.652,-0.638 l -0.161,-0.824 -0.011,-0.059 -0.009,-0.058 c -0.206,-1.336 0.138,-2.662 0.945,-3.638 0.747,-0.904 1.848,-1.446 3.021,-1.488 l 0.054,-0.002 h 0.054 33.723 0.054 l 0.054,0.002 c 1.173,0.042 2.274,0.584 3.02,1.488 0.807,0.976 1.152,2.302 0.946,3.638 l -0.009,0.058 -0.011,0.058 -0.161,0.825 c 0.238,0.187 0.457,0.401 0.652,0.638 0.805,0.983 1.141,2.304 0.922,3.624 l -0.011,0.063 -0.013,0.062 -0.136,0.648 c 0.375,0.251 0.703,0.56 0.969,0.919 0.68,0.92 0.889,2.081 0.573,3.183 l -0.028,0.098 -0.035,0.097 c -1.176,3.257 -1.764,4.886 -2.936,8.143 -0.177,0.497 -0.457,0.956 -0.813,1.358 0.391,0.654 0.615,1.417 0.615,2.232 L 4.327,-4.361 V -4.29 L 4.324,-4.219 C 4.219,-1.924 2.34,-0.071 0.045,-0.001 Z m 1.388,-47.485 c 0.114,-0.585 0.234,-1.201 0.362,-1.858 0.14,-0.906 -0.345,-1.644 -1.109,-1.671 h -33.723 c -0.765,0.027 -1.249,0.765 -1.109,1.671 0.128,0.657 0.248,1.273 0.362,1.858 H 1.388 m 1.37,5.169 c 0.123,-0.585 0.252,-1.201 0.39,-1.859 0.151,-0.906 -0.371,-1.643 -1.196,-1.671 h -36.346 c -0.824,0.028 -1.346,0.765 -1.195,1.671 0.138,0.658 0.267,1.274 0.39,1.859 H 2.758 m -2.803,11.883 c 0.746,-0.026 1.511,-0.487 1.713,-1.053 1.173,-3.259 1.761,-4.888 2.938,-8.147 0.162,-0.566 -0.4,-1.027 -1.286,-1.044 h -39.082 c -0.886,0.017 -1.447,0.478 -1.285,1.044 1.177,3.259 1.765,4.888 2.938,8.147 0.201,0.566 0.966,1.027 1.713,1.053 h 7.404 c -0.137,-0.769 -0.205,-1.154 -0.342,-1.923 -0.731,-0.293 -1.306,-0.831 -1.431,-1.455 -0.187,-0.933 0.744,-1.689 2.08,-1.689 1.336,0 2.503,0.756 2.607,1.689 0.069,0.624 -0.338,1.162 -0.978,1.455 0.103,0.769 0.155,1.154 0.257,1.923 h 13.161 c 0.103,-0.769 0.154,-1.154 0.257,-1.923 -0.639,-0.293 -1.047,-0.831 -0.977,-1.455 0.104,-0.933 1.271,-1.689 2.607,-1.689 1.336,0 2.267,0.756 2.08,1.689 -0.125,0.624 -0.701,1.162 -1.431,1.455 -0.137,0.769 -0.206,1.154 -0.343,1.923 h 7.4 m -16.092,11.625 H -4.81 c 0.598,0 1.084,0.485 1.084,1.084 0,0.599 -0.486,1.084 -1.084,1.084 h -11.327 c -0.598,0 -1.084,-0.485 -1.084,-1.084 0,-0.599 0.486,-1.084 1.084,-1.084 m -8.17,5.002 c -0.884,0 -1.684,0.309 -2.291,0.831 -1.118,-0.734 -1.859,-1.978 -1.859,-3.399 0,-2.261 1.865,-2.659 4.166,-2.659 2.301,0 4.167,0.398 4.167,2.659 0,1.424 -0.745,2.671 -1.868,3.404 -0.616,-0.525 -1.427,-0.836 -2.315,-0.836 m 8.17,-0.911 h 7.229 c 0.598,0 1.084,0.486 1.084,1.085 0,0.598 -0.486,1.084 -1.084,1.084 h -7.229 c -0.598,0 -1.084,-0.486 -1.084,-1.084 0,-0.599 0.486,-1.085 1.084,-1.085 m 0,4.471 H -4.81 c 0.598,0 1.084,0.486 1.084,1.085 0,0.598 -0.486,1.084 -1.084,1.084 h -11.327 c -0.598,0 -1.084,-0.486 -1.084,-1.084 0,-0.599 0.486,-1.085 1.084,-1.085 m -8.166,-2.538 c 1.342,0 2.442,0.997 2.442,2.364 0,1.366 -1.1,2.497 -2.442,2.497 -1.341,0 -2.418,-1.124 -2.418,-2.49 0,-1.367 1.077,-2.371 2.418,-2.371 M -0.045,-3 C 0.693,-3.022 1.293,-3.621 1.327,-4.356 L 1.293,-26.88 c 0,-0.735 -0.6,-1.334 -1.338,-1.367 H -7.45 v 2.497 c 0.653,0.38 1.097,1.079 1.097,1.889 0,1.211 -0.982,2.193 -2.193,2.193 -1.212,0 -2.193,-0.982 -2.193,-2.193 0,-0.81 0.443,-1.509 1.096,-1.889 v -2.497 h -13.16 v 2.497 c 0.653,0.38 1.097,1.079 1.097,1.889 0,1.211 -0.982,2.193 -2.193,2.193 -1.212,0 -2.193,-0.982 -2.193,-2.193 0,-0.81 0.443,-1.509 1.096,-1.889 v -2.497 h -7.4 c -0.738,0.033 -1.339,0.632 -1.339,1.367 l -0.033,22.524 c 0.033,0.735 0.634,1.334 1.372,1.356 h 32.351" /></g></g></g></g></svg>