<?xml version="1.0" encoding="UTF-8" standalone="no"?>
<svg
   xmlns:dc="http://purl.org/dc/elements/1.1/"
   xmlns:cc="http://creativecommons.org/ns#"
   xmlns:rdf="http://www.w3.org/1999/02/22-rdf-syntax-ns#"
   xmlns:svg="http://www.w3.org/2000/svg"
   xmlns="http://www.w3.org/2000/svg"
   viewBox="0 0 95.927597 95.973869"
   height="95.973869"
   width="95.927597"
   xml:space="preserve"
   id="svg2"
   version="1.1"><metadata
     id="metadata8"><rdf:RDF><cc:Work
         rdf:about=""><dc:format>image/svg+xml</dc:format><dc:type
           rdf:resource="http://purl.org/dc/dcmitype/StillImage" /></cc:Work></rdf:RDF></metadata><defs
     id="defs6"><clipPath
       id="clipPath22"
       clipPathUnits="userSpaceOnUse"><path
         id="path20"
         d="M 0,71.98 H 71.946 V 0 H 0 Z" /></clipPath></defs><g
     transform="matrix(1.3333333,0,0,-1.3333333,0,95.973867)"
     id="g10"><path
       id="path12"
       style="fill:#545455;fill-opacity:1;fill-rule:nonzero;stroke:none"
       d="m 11.965,39.758 h 2.357 v 3.977 h -2.357 z" /><path
       id="path14"
       style="fill:#545455;fill-opacity:1;fill-rule:nonzero;stroke:none"
       d="m 14.321,37.402 h -2.357 v -3.977 h 2.357 z" /><g
       id="g16"><g
         clip-path="url(#clipPath22)"
         id="g18"><g
           transform="translate(16.2099,47.9816)"
           id="g24"><path
             id="path26"
             style="fill:#545455;fill-opacity:1;fill-rule:nonzero;stroke:none"
             d="M 0,0 V 2.357 C -2.341,2.356 -4.245,0.452 -4.245,-1.889 h 2.356 C -1.889,-0.846 -1.043,0 0,0" /></g><path
           id="path28"
           style="fill:#545455;fill-opacity:1;fill-rule:nonzero;stroke:none"
           d="M 14.321,31.067 H 11.964 V 27.09 h 2.357 z" /><g
           transform="translate(23.4838,20.4872)"
           id="g30"><path
             id="path32"
             style="fill:#545455;fill-opacity:1;fill-rule:nonzero;stroke:none"
             d="M 0,0 V 2.357 H -4.916 V 0 Z" /></g><g
           transform="translate(30.7564,22.8438)"
           id="g34"><path
             id="path36"
             style="fill:#545455;fill-opacity:1;fill-rule:nonzero;stroke:none"
             d="M 0,0 H -4.916 V -2.357 H 0 Z" /></g><g
           transform="translate(16.211,22.8438)"
           id="g38"><path
             id="path40"
             style="fill:#545455;fill-opacity:1;fill-rule:nonzero;stroke:none"
             d="m 0,0 v 0 c -1.044,0 -1.89,0.846 -1.89,1.89 h -2.356 c 0,-2.342 1.904,-4.247 4.246,-4.247 v 0 z" /></g><g
           transform="translate(38.0291,22.8438)"
           id="g42"><path
             id="path44"
             style="fill:#545455;fill-opacity:1;fill-rule:nonzero;stroke:none"
             d="M 0,0 H -4.916 V -2.357 H 0 Z" /></g><g
           transform="translate(41.5108,40.2477)"
           id="g46"><path
             id="path48"
             style="fill:#545455;fill-opacity:1;fill-rule:nonzero;stroke:none"
             d="m 0,0 c 0.211,0 0.425,-0.078 0.6,-0.253 l 13.394,-13.394 c 0.487,-0.487 0.142,-1.32 -0.547,-1.32 h -10e-4 l -5.247,0.006 3.635,-8.777 c 0.251,-0.606 -0.036,-1.301 -0.642,-1.551 l -1.855,-0.769 c -0.148,-0.061 -0.302,-0.09 -0.454,-0.09 -0.465,0 -0.908,0.276 -1.097,0.733 l -3.632,8.769 -3.695,-3.728 c -0.157,-0.159 -0.352,-0.231 -0.543,-0.231 -0.398,0 -0.779,0.309 -0.779,0.775 V -0.859 C -0.863,-0.342 -0.441,0 0,0" /></g><g
           transform="translate(34.0169,49.9337)"
           id="g50"><path
             id="path52"
             style="fill:#545455;fill-opacity:1;fill-rule:nonzero;stroke:none"
             d="m 0,0 c 0,1.992 -1.614,3.607 -3.606,3.607 -1.991,0 -3.606,-1.615 -3.606,-3.607 0,-1.992 1.615,-3.607 3.606,-3.607 C -1.614,-3.607 0,-1.992 0,0" /></g><g
           transform="translate(22.2268,35.2052)"
           id="g54"><path
             id="path56"
             style="fill:#545455;fill-opacity:1;fill-rule:nonzero;stroke:none"
             d="m 0,0 c 0,-0.365 0.296,-0.66 0.66,-0.66 h 15.404 v 4.844 c 0,0.901 0.36,1.734 1.015,2.345 0.6,0.561 1.384,0.87 2.205,0.87 v 0 c 0.853,0 1.658,-0.335 2.266,-0.943 l 5.984,-5.983 v 4.4 l -10e-4,7.079 -3.265,2.412 c -1.129,0.834 -2.713,0.638 -3.604,-0.446 L 16.37,8.695 C 15.642,7.81 14.408,7.528 13.368,8.009 L 11.387,8.925 C 10.622,9.279 9.74,9.282 8.972,8.934 L 0,4.873 Z" /></g><g
           transform="translate(38.291,33.2411)"
           id="g58"><path
             id="path60"
             style="fill:#545455;fill-opacity:1;fill-rule:nonzero;stroke:none"
             d="m 0,0 h -16.028 c -0.74,0 -1.34,0.6 -1.34,1.34 v 19.64 c 0,0.74 0.6,1.34 1.34,1.34 h 27.461 c 0.74,0 1.34,-0.6 1.34,-1.34 V 1.34 c 0,-0.061 -0.027,-0.113 -0.034,-0.172 l 1.806,-1.806 c 0.366,0.573 0.585,1.249 0.585,1.978 v 19.64 c 0,2.039 -1.658,3.697 -3.697,3.697 h -27.461 c -2.038,0 -3.697,-1.658 -3.697,-3.697 V 1.34 c 0,-2.038 1.659,-3.697 3.697,-3.697 H 0 Z" /></g><g
           transform="translate(55.7318,47.9817)"
           id="g62"><path
             id="path64"
             style="fill:#545455;fill-opacity:1;fill-rule:nonzero;stroke:none"
             d="M 0,0 H 0.001 C 1.044,0 1.89,-0.846 1.89,-1.89 h 2.357 c 0,2.342 -1.905,4.247 -4.246,4.247 H 0 Z" /></g><path
           id="path66"
           style="fill:#545455;fill-opacity:1;fill-rule:nonzero;stroke:none"
           d="m 57.622,33.424 h 2.357 v 3.977 h -2.357 z" /><path
           id="path68"
           style="fill:#545455;fill-opacity:1;fill-rule:nonzero;stroke:none"
           d="m 57.622,39.758 h 2.357 v 3.977 h -2.357 z" /><g
           transform="translate(55.7329,22.8438)"
           id="g70"><path
             id="path72"
             style="fill:#545455;fill-opacity:1;fill-rule:nonzero;stroke:none"
             d="m 0,0 v -2.357 c 2.341,0.001 4.246,1.905 4.246,4.247 H 1.889 C 1.889,0.846 1.044,0 0,0" /></g><path
           id="path74"
           style="fill:#545455;fill-opacity:1;fill-rule:nonzero;stroke:none"
           d="M 59.979,31.067 H 57.622 V 27.09 h 2.357 z" /></g></g></g></svg>