<svg xmlns="http://www.w3.org/2000/svg" viewBox="56.9 194.4 838.2 170.9" enable-background="new 56.9 194.4 838.2 170.9"><style type="text/css">.st0{fill:#FFA800;} .st1{fill:#007373;} .st2{fill:#003333;} .st3{fill:#FFFFFF;} .st4{fill:#980043;} .st5{fill:#61002B;}</style><polygon class="st0" points="56.9,194.4 56.9,365.3 113.9,365.3 113.9,308.3 113.9,251.4 170.9,251.4 227.9,251.4 227.9,194.4"/><rect x="113.9" y="308.3" class="st1" width="57" height="57"/><rect x="170.9" y="308.3" class="st2" width="57" height="57"/><path class="st3" d="M395.2 223.7v13.5h-13.1v-13.5h13.1zm-.4 27.4v78.2h-12.2v-78.2h12.2zM454.5 321v9.6c-4.3.6-8 .8-11.1.8-15.1 0-22.7-7.9-22.7-23.7v-47.1h-13.9v-9.5h13.9l.5-19.7 11.3-1.1v20.7h17.5v9.5h-17.5v49.1c0 8.1 4.2 12.1 12.5 12.1 2.8.2 6-.1 9.5-.7zM503.3 321v9.6c-4.3.6-8 .8-11.1.8-15.1 0-22.7-7.9-22.7-23.7v-47.1h-13.9v-9.5h13.9l.5-19.7 11.3-1.1v20.7h17.5v9.5h-17.5v49.1c0 8.1 4.2 12.1 12.5 12.1 2.8.2 6-.1 9.5-.7zM570.2 251.1l-31.3 87.3c-4.5 12.6-11.8 18.9-21.8 18.9-3.1 0-6.6-.5-10.5-1.6v-9.5c3.1.7 5.9 1.1 8.1 1.1 3.9 0 7.1-1.1 9.7-3.3 2.6-2.2 5.2-7.6 7.8-16.2l-27.1-76.6h12.3l21 58.8 21.4-58.8 10.4-.1zM644.9 238.9v9.7c-5.6 0-9.3.6-11.2 1.9-1.9 1.3-3.1 3.6-3.8 7 5 5.8 7.5 12.1 7.5 18.9 0 7.1-2.7 13.2-8.2 18.3-5.4 5.1-12.8 7.7-21.9 7.7-2.1 0-3.8-.2-5.3-.5-2.8-.6-4.6-.9-5.3-.9-1.4 0-3.1.7-5 2.1-2 1.4-2.9 3.1-2.9 5.3 0 3.1 1.4 5.1 4.3 6 2.8.9 9.5 1.5 20.1 1.8 8.9.3 15.5.9 19.8 1.8s7.9 3.1 10.8 6.3c2.9 3.3 4.4 7.3 4.4 12 0 14.9-13.1 22.4-39.3 22.4-12.4 0-21.5-1.9-27.2-5.6s-8.6-8.7-8.6-15c0-7.6 4-12.8 11.9-15.7-5.1-3.4-7.7-7.6-7.7-12.6 0-6 3.6-10.6 10.8-13.8-6.8-5.5-10.1-12.4-10.1-20.7 0-7.7 2.9-14.1 8.7-19 5.8-5 12.8-7.4 21.1-7.4 5.9 0 11.2 1.1 16 3.3.8-5.1 2.6-8.6 5.4-10.6 2.8-2 7.1-2.9 12.8-2.9.4.1 1.4.1 2.9.2zm-51.8 87.3c-5.7 2.5-8.5 6.1-8.5 10.8 0 4 2.3 7.1 7 9.3 4.7 2.2 10.6 3.3 17.8 3.3 6.7 0 12.8-.9 18.4-2.8 5.6-1.9 8.4-5.1 8.4-9.6 0-2.4-.8-4.4-2.5-6-1.7-1.5-3.9-2.5-6.8-2.9-2.9-.4-7.9-.7-15-.9-8.4-.4-14.7-.7-18.8-1.2zm14.6-33.1c5.2 0 9.4-1.6 12.6-4.8 3.2-3.2 4.9-7.3 4.9-12.3 0-5.2-1.7-9.4-5.1-12.7-3.4-3.3-7.5-4.9-12.3-4.9-4.6 0-8.7 1.5-12.2 4.6-3.6 3.1-5.3 7.4-5.3 13.1 0 5.1 1.6 9.1 4.8 12.3 3.2 3.1 7.4 4.7 12.6 4.7zM667.4 329.3h-12.2v-78.2h10.8v18.3c3.8-8.6 7.5-14.2 11.3-16.8s7.7-3.8 11.7-3.8c1.2 0 2.8.1 4.8.3v11.6h-2.5c-6.7 0-12.3 2.5-16.7 7.5s-6.8 11.6-7.1 19.7l-.1 41.4zM720.1 223.7v13.5h-13.1v-13.5h13.1zm-.4 27.4v78.2h-12.2v-78.2h12.2zM779.4 321v9.6c-4.3.6-8 .8-11.1.8-15.1 0-22.7-7.9-22.7-23.7v-47.1h-13.9v-9.5h13.9l.5-19.7 11.3-1.1v20.7h17.5v9.5h-17.5v49.1c0 8.1 4.2 12.1 12.5 12.1 2.8.2 5.9-.1 9.5-.7zM828.1 321v9.6c-4.3.6-8 .8-11.1.8-15.1 0-22.7-7.9-22.7-23.7v-47.1h-13.9v-9.5h13.9l.5-19.7 11.3-1.1v20.7h17.5v9.5h-17.5v49.1c0 8.1 4.2 12.1 12.5 12.1 2.9.2 6-.1 9.5-.7zM895.1 251.1l-31.3 87.3c-4.5 12.6-11.8 18.9-21.8 18.9-3.1 0-6.6-.5-10.5-1.6v-9.5c3.1.7 5.9 1.1 8.1 1.1 3.9 0 7.1-1.1 9.7-3.3 2.6-2.2 5.2-7.6 7.8-16.2l-27.1-76.6h12.3l21 58.8 21.4-58.8 10.4-.1zM362.5 329.3h-11.4v-50.2c0-7.2-1.6-12.3-4.7-15.2s-7-4.4-11.5-4.4c-6.2 0-11.4 2.5-15.6 7.4-4.2 5-6.3 11.5-6.3 19.6v42.9h-12.2v-78.2h11.3v14.4c6.3-11 14.6-16.6 24.7-16.6 5.8 0 10.8 1.5 14.9 4.5s6.9 6.4 8.4 10.2 2.3 10.6 2.3 20.4v45.2h.1z"/><rect x="170.9" y="266.7" class="st4" width="57" height="41.6"/><rect x="170.9" y="251.4" class="st5" width="57" height="15.4"/></svg>