<?xml version="1.0" encoding="UTF-8" standalone="no"?>
<svg
   xmlns:dc="http://purl.org/dc/elements/1.1/"
   xmlns:cc="http://creativecommons.org/ns#"
   xmlns:rdf="http://www.w3.org/1999/02/22-rdf-syntax-ns#"
   xmlns:svg="http://www.w3.org/2000/svg"
   xmlns="http://www.w3.org/2000/svg"
   viewBox="0 0 95.927597 95.973869"
   height="95.973869"
   width="95.927597"
   xml:space="preserve"
   id="svg2"
   version="1.1"><metadata
     id="metadata8"><rdf:RDF><cc:Work
         rdf:about=""><dc:format>image/svg+xml</dc:format><dc:type
           rdf:resource="http://purl.org/dc/dcmitype/StillImage" /></cc:Work></rdf:RDF></metadata><defs
     id="defs6"><clipPath
       id="clipPath18"
       clipPathUnits="userSpaceOnUse"><path
         id="path16"
         d="M 0,71.98 H 71.946 V 0 H 0 Z" /></clipPath></defs><g
     transform="matrix(1.3333333,0,0,-1.3333333,0,95.973867)"
     id="g10"><g
       id="g12"><g
         clip-path="url(#clipPath18)"
         id="g14"><path
           id="path20"
           style="fill:#545455;fill-opacity:1;fill-rule:nonzero;stroke:none"
           d="M 52.034,24.576 H 19.913 v 22.866 h 32.121 z m 0.187,24.639 H 19.727 c -0.876,0 -1.586,-0.71 -1.586,-1.586 v -23.24 c 0,-0.876 0.71,-1.586 1.586,-1.586 h 32.494 c 0.876,0 1.586,0.71 1.586,1.586 v 23.24 c 0,0.876 -0.71,1.586 -1.586,1.586" /><g
           transform="translate(58.5798,31.8404)"
           id="g22"><path
             id="path24"
             style="fill:#545455;fill-opacity:1;fill-rule:nonzero;stroke:none"
             d="m 0,0 c -0.7,-1.067 -1.133,-2.541 -1.133,-4.168 0,-1.628 0.433,-3.102 1.133,-4.169 0.7,-0.7 1.133,-1.667 1.133,-2.736 0,-1.069 -0.433,-2.036 -1.133,-2.736 -0.7,-0.701 -1.668,-1.134 -2.736,-1.134 -1.069,0 -2.036,0.433 -2.737,1.134 h -0.001 c -0.877,0.7 -2.088,1.133 -3.427,1.133 -1.338,0 -2.549,-0.433 -3.426,-1.133 -0.877,-0.701 -2.088,-1.134 -3.427,-1.134 -1.338,0 -2.549,0.433 -3.426,1.134 -0.877,0.7 -2.088,1.133 -3.427,1.133 -1.338,0 -2.549,-0.433 -3.426,-1.133 -0.877,-0.701 -2.088,-1.134 -3.427,-1.134 -1.338,0 -2.549,0.433 -3.426,1.134 -0.877,0.7 -2.088,1.133 -3.427,1.133 -1.338,0 -2.549,-0.433 -3.426,-1.133 -0.7,-0.701 -1.668,-1.134 -2.736,-1.134 -1.069,0 -2.036,0.433 -2.737,1.134 -0.7,0.7 -1.133,1.667 -1.133,2.736 0,1.069 0.433,2.036 1.133,2.736 0.701,1.067 1.134,2.541 1.134,4.169 0,1.627 -0.433,3.101 -1.134,4.168 -0.7,1.067 -1.133,2.541 -1.133,4.168 0,1.628 0.433,3.102 1.133,4.169 0.701,1.067 1.134,2.54 1.134,4.168 0,1.628 -0.433,3.102 -1.134,4.169 -0.7,0.7 -1.133,1.667 -1.133,2.736 0,1.068 0.433,2.036 1.133,2.736 0.701,0.7 1.668,1.133 2.737,1.133 1.068,0 2.036,-0.433 2.736,-1.133 h 0.002 c 0.876,-0.7 2.088,-1.133 3.426,-1.133 1.338,0 2.55,0.433 3.427,1.133 0.876,0.7 2.088,1.133 3.426,1.133 1.338,0 2.55,-0.433 3.427,-1.133 0.876,-0.7 2.088,-1.133 3.426,-1.133 1.338,0 2.55,0.433 3.427,1.133 0.876,0.7 2.088,1.133 3.426,1.133 1.338,0 2.55,-0.433 3.426,-1.133 0.877,-0.7 2.089,-1.133 3.427,-1.133 1.338,0 2.55,0.433 3.426,1.133 0.701,0.7 1.668,1.133 2.737,1.133 1.068,0 2.036,-0.433 2.736,-1.133 0.7,-0.7 1.133,-1.668 1.133,-2.736 C 1.133,18.341 0.7,17.374 0,16.674 -0.7,15.607 -1.133,14.133 -1.133,12.505 -1.133,10.877 -0.7,9.404 0,8.337 0.7,7.27 1.133,5.796 1.133,4.168 1.133,2.541 0.7,1.067 0,0 m 2.906,4.168 c 0,1.917 -0.506,3.742 -1.424,5.141 -0.536,0.816 -0.843,1.981 -0.843,3.196 0,1.154 0.277,2.263 0.764,3.07 0.971,1.046 1.503,2.4 1.503,3.835 0,1.507 -0.587,2.924 -1.653,3.989 -1.065,1.066 -2.482,1.653 -3.989,1.653 -1.467,0 -2.849,-0.556 -3.904,-1.569 -0.59,-0.444 -1.408,-0.698 -2.259,-0.698 -0.881,0 -1.727,0.272 -2.32,0.746 -1.228,0.981 -2.838,1.521 -4.533,1.521 -1.695,0 -3.305,-0.54 -4.533,-1.521 -0.593,-0.474 -1.439,-0.746 -2.32,-0.746 -0.881,0 -1.727,0.272 -2.32,0.746 -1.229,0.981 -2.838,1.521 -4.533,1.521 -1.695,0 -3.305,-0.54 -4.533,-1.521 -0.593,-0.474 -1.439,-0.746 -2.32,-0.746 -0.854,0 -1.676,0.256 -2.266,0.704 -1.055,1.009 -2.434,1.563 -3.898,1.563 -1.507,0 -2.924,-0.587 -3.99,-1.653 -1.066,-1.065 -1.653,-2.482 -1.653,-3.989 0,-1.435 0.533,-2.789 1.504,-3.835 0.486,-0.807 0.763,-1.916 0.763,-3.07 0,-1.215 -0.307,-2.38 -0.842,-3.195 -0.919,-1.4 -1.425,-3.225 -1.425,-5.142 0,-1.916 0.506,-3.742 1.425,-5.141 0.535,-0.816 0.842,-1.98 0.842,-3.195 0,-1.154 -0.277,-2.263 -0.764,-3.071 -0.97,-1.046 -1.503,-2.399 -1.503,-3.834 0,-1.507 0.587,-2.924 1.653,-3.99 1.066,-1.065 2.483,-1.652 3.99,-1.652 1.467,0 2.848,0.556 3.904,1.568 0.59,0.445 1.408,0.698 2.258,0.698 0.881,0 1.727,-0.271 2.321,-0.745 1.228,-0.981 2.838,-1.521 4.532,-1.521 1.695,0 3.305,0.54 4.533,1.521 0.594,0.474 1.439,0.745 2.32,0.745 0.881,0 1.727,-0.271 2.321,-0.745 1.228,-0.981 2.838,-1.521 4.532,-1.521 1.695,0 3.305,0.54 4.533,1.521 0.594,0.474 1.439,0.745 2.32,0.745 0.855,0 1.676,-0.255 2.267,-0.703 1.054,-1.009 2.433,-1.563 3.898,-1.563 1.507,0 2.924,0.587 3.989,1.652 1.066,1.066 1.653,2.483 1.653,3.99 0,1.435 -0.532,2.788 -1.503,3.835 -0.487,0.807 -0.764,1.916 -0.764,3.07 0,1.215 0.307,2.379 0.843,3.195 0.918,1.399 1.424,3.225 1.424,5.141" /></g><g
           transform="translate(30.0532,38.5306)"
           id="g26"><path
             id="path28"
             style="fill:#545455;fill-opacity:1;fill-rule:nonzero;stroke:none"
             d="M 0,0 C 2.112,0 3.824,1.713 3.824,3.826 3.824,5.938 2.112,7.651 0,7.651 -2.112,7.651 -3.824,5.938 -3.824,3.826 -3.824,1.713 -2.112,0 0,0" /></g><g
           transform="translate(50.5753,31.9034)"
           id="g30"><path
             id="path32"
             style="fill:#545455;fill-opacity:1;fill-rule:nonzero;stroke:none"
             d="m 0,0 -0.001,7.508 -3.463,2.558 c -1.197,0.885 -2.877,0.677 -3.822,-0.473 l -4.555,-5.539 c -0.772,-0.939 -2.08,-1.238 -3.183,-0.728 l -2.101,0.971 c -0.812,0.376 -1.747,0.379 -2.562,0.01 L -29.202,0 V -5.869 H 0 Z" /></g></g></g></g></svg>