<?xml version="1.0" encoding="UTF-8" standalone="no"?>
<svg
   xmlns:dc="http://purl.org/dc/elements/1.1/"
   xmlns:cc="http://creativecommons.org/ns#"
   xmlns:rdf="http://www.w3.org/1999/02/22-rdf-syntax-ns#"
   xmlns:svg="http://www.w3.org/2000/svg"
   xmlns="http://www.w3.org/2000/svg"
   viewBox="0 0 95.927597 95.973869"
   height="95.973869"
   width="95.927597"
   xml:space="preserve"
   id="svg2"
   version="1.1"><metadata
     id="metadata8"><rdf:RDF><cc:Work
         rdf:about=""><dc:format>image/svg+xml</dc:format><dc:type
           rdf:resource="http://purl.org/dc/dcmitype/StillImage" /></cc:Work></rdf:RDF></metadata><defs
     id="defs6"><clipPath
       id="clipPath18"
       clipPathUnits="userSpaceOnUse"><path
         id="path16"
         d="M 0,71.98 H 71.946 V 0 H 0 Z" /></clipPath></defs><g
     transform="matrix(1.3333333,0,0,-1.3333333,0,95.973867)"
     id="g10"><g
       id="g12"><g
         clip-path="url(#clipPath18)"
         id="g14"><g
           transform="translate(57.0213,57.4979)"
           id="g20"><path
             id="path22"
             style="fill:#545455;fill-opacity:1;fill-rule:nonzero;stroke:none"
             d="m 0,0 h -0.002 c -0.556,0 -1.11,-0.192 -1.643,-0.335 -2.259,-0.605 -4.518,-1.21 -6.776,-1.816 -2.3,-0.616 -4.6,-1.232 -6.9,-1.848 -0.59,-0.158 -1.223,-0.278 -1.743,-0.61 -1.648,-1.052 -1.819,-3.483 -0.33,-4.753 0.584,-0.497 1.2,-0.665 1.834,-0.665 0.726,0 1.475,0.221 2.221,0.421 1.14,0.306 2.279,0.611 3.418,0.916 -3.129,-3.129 -6.258,-6.258 -9.387,-9.387 -0.452,-0.452 -0.904,-0.903 -1.355,-1.355 -0.792,1.91 -1.523,5.228 -4.043,5.228 -0.132,0 -0.268,-0.009 -0.409,-0.028 -1.41,-0.186 -2.318,-1.556 -3.202,-2.542 -3.338,-3.728 -6.676,-7.455 -10.015,-11.182 -1.542,-1.722 -3.084,-3.444 -4.626,-5.166 -0.651,-0.727 -2.175,-1.933 -2.093,-3.032 0.067,-0.9 0.718,-1.328 1.422,-1.328 0.415,0 0.849,0.149 1.194,0.436 0.43,0.359 0.836,0.749 1.253,1.123 1.731,1.55 3.462,3.1 5.193,4.65 2.049,1.836 4.098,3.671 6.147,5.506 0.788,0.706 1.576,1.411 2.363,2.117 0.409,0.366 0.884,0.978 1.375,1.231 0.068,0.035 0.132,0.118 0.191,0.171 0.742,-1.792 1.363,-4.795 3.531,-5.303 0.235,-0.055 0.457,-0.08 0.67,-0.08 1.418,0 2.367,1.133 3.339,2.106 3.255,3.255 6.51,6.51 9.765,9.765 0.96,0.959 1.919,1.918 2.878,2.878 -0.442,-1.653 -1.031,-3.322 -1.332,-5.006 -0.321,-1.796 1.08,-3.505 2.916,-3.505 v 0 c 1.398,0 2.485,0.958 2.877,2.254 1.142,3.774 2.047,7.638 3.068,11.447 0.264,0.988 0.529,1.975 0.794,2.963 0.151,0.564 0.364,1.163 0.367,1.753 C 2.96,-1.364 1.619,-0.001 0,0" /></g><g
           transform="translate(40.1622,29.8896)"
           id="g24"><path
             id="path26"
             style="fill:#545455;fill-opacity:1;fill-rule:nonzero;stroke:none"
             d="m 0,0 c -0.513,-0.523 -1.163,-1.18 -1.987,-1.7 v -12.17 c 0,-0.828 0.672,-1.5 1.5,-1.5 h 4.41 c 0.829,0 1.5,0.672 1.5,1.5 V 5.427 l -5.14,-5.14 z" /></g><g
           transform="translate(48.6712,35.5401)"
           id="g28"><path
             id="path30"
             style="fill:#545455;fill-opacity:1;fill-rule:nonzero;stroke:none"
             d="M 0,0 C -0.315,0.376 -0.554,0.795 -0.757,1.228 V -19.52 c 0,-0.829 0.672,-1.5 1.5,-1.5 h 4.41 c 0.829,0 1.5,0.671 1.5,1.5 V -1.38 C 5.909,-1.76 5.078,-1.976 4.205,-1.976 2.584,-1.976 1.051,-1.256 0,0" /></g><g
           transform="translate(20.1307,22.0074)"
           id="g32"><path
             id="path34"
             style="fill:#545455;fill-opacity:1;fill-rule:nonzero;stroke:none"
             d="m 0,0 -1.433,-1.284 v -4.704 c 0,-0.828 0.671,-1.5 1.5,-1.5 h 4.41 c 0.828,0 1.5,0.672 1.5,1.5 V 5.353 L 2.596,2.325 Z" /></g><g
           transform="translate(34.0604,27.4736)"
           id="g36"><path
             id="path38"
             style="fill:#545455;fill-opacity:1;fill-rule:nonzero;stroke:none"
             d="M 0,0 C -2.024,0.474 -3.195,1.935 -3.967,3.457 L -4.004,3.423 -5.186,2.365 -5.624,1.973 v -13.427 c 0,-0.828 0.672,-1.5 1.5,-1.5 h 4.41 c 0.829,0 1.5,0.672 1.5,1.5 V -0.103 C 1.609,-0.122 1.436,-0.147 1.248,-0.147 0.837,-0.147 0.417,-0.098 0,0" /></g></g></g></g></svg>