<?xml version="1.0" encoding="UTF-8" standalone="no"?>
<svg
   xmlns:dc="http://purl.org/dc/elements/1.1/"
   xmlns:cc="http://creativecommons.org/ns#"
   xmlns:rdf="http://www.w3.org/1999/02/22-rdf-syntax-ns#"
   xmlns:svg="http://www.w3.org/2000/svg"
   xmlns="http://www.w3.org/2000/svg"
   viewBox="0 0 95.927597 95.973869"
   height="95.973869"
   width="95.927597"
   xml:space="preserve"
   id="svg2"
   version="1.1"><metadata
     id="metadata8"><rdf:RDF><cc:Work
         rdf:about=""><dc:format>image/svg+xml</dc:format><dc:type
           rdf:resource="http://purl.org/dc/dcmitype/StillImage" /></cc:Work></rdf:RDF></metadata><defs
     id="defs6"><clipPath
       id="clipPath18"
       clipPathUnits="userSpaceOnUse"><path
         id="path16"
         d="M 0,71.98 H 71.946 V 0 H 0 Z" /></clipPath></defs><g
     transform="matrix(1.3333333,0,0,-1.3333333,0,95.973867)"
     id="g10"><g
       id="g12"><g
         clip-path="url(#clipPath18)"
         id="g14"><g
           transform="translate(30.2226,57.4538)"
           id="g20"><path
             id="path22"
             style="fill:#545455;fill-opacity:1;fill-rule:nonzero;stroke:none"
             d="m 0,0 c -4.021,0 -8.041,-1.53 -11.102,-4.591 -6.122,-6.122 -6.122,-16.083 0,-22.205 6.122,-6.122 16.083,-6.122 22.204,0 6.122,6.122 6.122,16.083 0,22.205 C 8.042,-1.531 4.02,0 0,0 m 0,-33.949 c -4.678,0 -9.354,1.78 -12.915,5.341 -7.121,7.121 -7.121,18.708 0,25.829 7.122,7.121 18.708,7.121 25.83,0 7.121,-7.121 7.121,-18.708 0,-25.829 C 9.355,-32.168 4.677,-33.949 0,-33.949" /></g><g
           transform="translate(43.0286,28.9544)"
           id="g24"><path
             id="path26"
             style="fill:#545455;fill-opacity:1;fill-rule:nonzero;stroke:none"
             d="m 0,0 c -1.43,-1.43 -2.202,-2.975 -1.726,-3.452 l 13.36,-13.36 c 0.477,-0.476 2.022,0.296 3.452,1.726 1.43,1.43 2.202,2.975 1.726,3.452 L 3.452,1.726 C 2.975,2.202 1.43,1.43 0,0" /></g><g
           transform="translate(26.3281,41.7581)"
           id="g28"><path
             id="path30"
             style="fill:#545455;fill-opacity:1;fill-rule:nonzero;stroke:none"
             d="m 0,0 c 0,-2.148 1.747,-3.895 3.895,-3.895 2.147,0 3.894,1.747 3.894,3.895 0,2.147 -1.747,3.895 -3.894,3.895 C 1.747,3.895 0,2.147 0,0" /></g><g
           transform="translate(36.8875,41.7589)"
           id="g32"><path
             id="path34"
             style="fill:#545455;fill-opacity:1;fill-rule:nonzero;stroke:none"
             d="m 0,0 c 0,-3.683 -2.985,-6.668 -6.668,-6.668 -3.683,0 -6.668,2.985 -6.668,6.668 0,1.919 0.815,3.643 2.112,4.859 1.363,0.506 2.911,0.793 4.556,0.793 1.645,0 3.193,-0.287 4.556,-0.793 C -0.815,3.643 0,1.919 0,0 M 6.276,0.321 6.165,0.709 c -1.325,4.629 -6.601,7.862 -12.83,7.862 -6.229,0 -11.505,-3.233 -12.83,-7.862 l -0.111,-0.388 c -0.177,-0.621 0.182,-1.268 0.802,-1.445 0.62,-0.179 1.268,0.181 1.445,0.802 l 0.111,0.388 c 0.457,1.595 1.553,2.978 3.077,4.029 -0.665,-1.217 -1.043,-2.612 -1.043,-4.096 0,-4.721 3.828,-8.549 8.549,-8.549 4.722,0 8.55,3.828 8.55,8.549 0,1.484 -0.379,2.88 -1.044,4.096 C 2.366,3.044 3.462,1.661 3.918,0.066 l 0.111,-0.388 c 0.147,-0.513 0.615,-0.848 1.123,-0.848 0.106,0 0.215,0.015 0.322,0.046 0.621,0.177 0.98,0.824 0.802,1.445" /></g></g></g></g></svg>