<?xml version="1.0" encoding="UTF-8" standalone="no"?>
<svg
   xmlns:dc="http://purl.org/dc/elements/1.1/"
   xmlns:cc="http://creativecommons.org/ns#"
   xmlns:rdf="http://www.w3.org/1999/02/22-rdf-syntax-ns#"
   xmlns:svg="http://www.w3.org/2000/svg"
   xmlns="http://www.w3.org/2000/svg"
   viewBox="0 0 95.927597 95.973869"
   height="95.973869"
   width="95.927597"
   xml:space="preserve"
   id="svg2"
   version="1.1"><metadata
     id="metadata8"><rdf:RDF><cc:Work
         rdf:about=""><dc:format>image/svg+xml</dc:format><dc:type
           rdf:resource="http://purl.org/dc/dcmitype/StillImage" /></cc:Work></rdf:RDF></metadata><defs
     id="defs6"><clipPath
       id="clipPath18"
       clipPathUnits="userSpaceOnUse"><path
         id="path16"
         d="M 0,71.98 H 71.946 V 0 H 0 Z" /></clipPath></defs><g
     transform="matrix(1.3333333,0,0,-1.3333333,0,95.973867)"
     id="g10"><g
       id="g12"><g
         clip-path="url(#clipPath18)"
         id="g14"><g
           transform="translate(35.9739,22.686)"
           id="g20"><path
             id="path22"
             style="fill:#545455;fill-opacity:1;fill-rule:nonzero;stroke:none"
             d="m 0,0 c -7.346,0 -13.323,5.976 -13.323,13.323 0,7.346 5.977,13.323 13.323,13.323 7.346,0 13.323,-5.977 13.323,-13.323 C 13.323,5.976 7.346,0 0,0 m 13.778,33.307 h -27.555 c -3.428,0 -6.207,-2.779 -6.207,-6.207 V -0.455 c 0,-3.428 2.779,-6.206 6.207,-6.206 h 27.555 c 3.428,0 6.207,2.778 6.207,6.206 V 27.1 c 0,3.428 -2.779,6.207 -6.207,6.207 M 0,-2.115 c 8.513,0 15.438,6.925 15.438,15.438 0,8.513 -6.925,15.438 -15.438,15.438 -8.513,0 -15.438,-6.925 -15.438,-15.438 0,-8.513 6.925,-15.438 15.438,-15.438 m 13.778,32.422 c 1.768,0 3.207,-1.439 3.207,-3.207 V -0.455 c 0,-1.768 -1.439,-3.206 -3.207,-3.206 h -27.555 c -1.769,0 -3.207,1.438 -3.207,3.206 V 27.1 c 0,1.768 1.438,3.207 3.207,3.207 h 27.555" /></g><g
           transform="translate(34.2341,46.633)"
           id="g24"><path
             id="path26"
             style="fill:#545455;fill-opacity:1;fill-rule:nonzero;stroke:none"
             d="m 0,0 c -0.091,0 -0.183,-0.012 -0.275,-0.037 l -1.677,-0.462 c -0.549,-0.152 -0.871,-0.719 -0.72,-1.269 l 2.788,-10.12 8.146,-4.628 c 0.161,-0.091 0.336,-0.134 0.508,-0.134 0.359,0 0.708,0.187 0.898,0.522 l 0.859,1.512 c 0.282,0.495 0.108,1.125 -0.387,1.406 l -6.776,3.85 -2.37,8.602 C 0.868,-0.3 0.453,0 0,0" /></g></g></g></g></svg>