<?xml version="1.0" encoding="UTF-8" standalone="no"?>
<svg
   xmlns:dc="http://purl.org/dc/elements/1.1/"
   xmlns:cc="http://creativecommons.org/ns#"
   xmlns:rdf="http://www.w3.org/1999/02/22-rdf-syntax-ns#"
   xmlns:svg="http://www.w3.org/2000/svg"
   xmlns="http://www.w3.org/2000/svg"
   viewBox="0 0 615.96533 498.34933"
   height="498.34933"
   width="615.96533"
   xml:space="preserve"
   id="svg2"
   version="1.1"><metadata
     id="metadata8"><rdf:RDF><cc:Work
         rdf:about=""><dc:format>image/svg+xml</dc:format><dc:type
           rdf:resource="http://purl.org/dc/dcmitype/StillImage" /></cc:Work></rdf:RDF></metadata><defs
     id="defs6"><clipPath
       id="clipPath22"
       clipPathUnits="userSpaceOnUse"><path
         id="path20"
         d="M 0,373.762 H 461.974 V 0 H 0 Z" /></clipPath></defs><g
     transform="matrix(1.3333333,0,0,-1.3333333,0,498.34933)"
     id="g10"><g
       transform="translate(256.0595,179.4425)"
       id="g12"><path
         id="path14"
         style="fill:#4f4c52;fill-opacity:1;fill-rule:nonzero;stroke:none"
         d="M 0,0 H 4.22 L 6.352,-6.684 H 6.381 L 8.614,0 h 4.062 v -10.054 h -2.622 l 0.043,7.721 H 10.069 L 7.504,-10.054 H 5.042 L 2.593,-2.333 H 2.564 l 0.058,-7.721 H 0 Z" /></g><g
       id="g16"><g
         clip-path="url(#clipPath22)"
         id="g18"><g
           transform="translate(273.1606,170.944)"
           id="g24"><path
             id="path26"
             style="fill:#4f4c52;fill-opacity:1;fill-rule:nonzero;stroke:none"
             d="M 0,0 C 0.979,0 1.599,0.893 1.599,1.771 1.268,1.786 0.894,1.815 0.504,1.815 -0.374,1.815 -1.065,1.541 -1.065,0.821 -1.065,0.303 -0.604,0 0,0 M 1.786,-1.556 C 1.772,-1.152 1.729,-0.764 1.729,-0.375 H 1.7 c -0.591,-0.936 -1.311,-1.354 -2.377,-1.354 -1.483,0 -2.808,0.735 -2.808,2.363 0,2.29 2.491,2.564 3.874,2.564 0.418,0 0.879,-0.044 1.21,-0.101 -0.014,1.023 -0.778,1.297 -1.714,1.297 -0.835,0 -1.671,-0.159 -2.391,-0.562 l -0.043,1.757 c 0.922,0.374 1.887,0.533 2.996,0.533 1.915,0 3.572,-0.821 3.572,-3.111 V 0.216 c 0,-0.591 0.029,-1.181 0.144,-1.772 z" /></g><g
           transform="translate(284.1972,174.7467)"
           id="g28"><path
             id="path30"
             style="fill:#4f4c52;fill-opacity:1;fill-rule:nonzero;stroke:none"
             d="m 0,0 c -0.475,0.288 -0.951,0.418 -1.57,0.418 -1.124,0 -1.988,-0.778 -1.988,-2.074 0,-1.196 1.009,-1.974 2.132,-1.974 0.591,0 1.181,0.13 1.613,0.36 L 0.245,-5.2 c -0.648,-0.216 -1.426,-0.331 -2.118,-0.331 -2.477,0 -4.364,1.44 -4.364,3.918 0,2.492 1.887,3.932 4.364,3.932 0.778,0 1.47,-0.13 2.06,-0.418 z" /></g><g
           transform="translate(290.9648,174.7467)"
           id="g32"><path
             id="path34"
             style="fill:#4f4c52;fill-opacity:1;fill-rule:nonzero;stroke:none"
             d="m 0,0 c -0.475,0.288 -0.951,0.418 -1.57,0.418 -1.124,0 -1.988,-0.778 -1.988,-2.074 0,-1.196 1.009,-1.974 2.132,-1.974 0.591,0 1.181,0.13 1.613,0.36 L 0.245,-5.2 c -0.648,-0.216 -1.426,-0.331 -2.118,-0.331 -2.477,0 -4.364,1.44 -4.364,3.918 0,2.492 1.887,3.932 4.364,3.932 0.778,0 1.47,-0.13 2.06,-0.418 z" /></g><g
           transform="translate(297.3783,174.819)"
           id="g36"><path
             id="path38"
             style="fill:#4f4c52;fill-opacity:1;fill-rule:nonzero;stroke:none"
             d="m 0,0 c -0.288,0.086 -0.576,0.086 -0.879,0.086 -1.21,0 -1.887,-0.878 -1.887,-2.348 v -3.169 h -2.592 v 7.505 h 2.362 V 0.691 h 0.029 c 0.446,0.951 1.094,1.556 2.218,1.556 0.303,0 0.619,-0.043 0.879,-0.087 z" /></g><g
           transform="translate(303.0854,173.8537)"
           id="g40"><path
             id="path42"
             style="fill:#4f4c52;fill-opacity:1;fill-rule:nonzero;stroke:none"
             d="M 0,0 C 0,0.864 -0.403,1.57 -1.44,1.57 -2.376,1.57 -2.823,0.864 -2.881,0 Z m -2.852,-1.469 c 0.144,-1.037 0.936,-1.441 2.204,-1.441 0.706,0 1.512,0.159 2.291,0.577 v -1.83 c -0.836,-0.331 -1.787,-0.475 -2.752,-0.475 -2.477,0 -4.365,1.455 -4.365,3.932 0,2.478 1.686,3.918 4.019,3.918 2.78,0 3.789,-1.973 3.789,-4.206 v -0.475 z" /></g><g
           transform="translate(309.3813,170.944)"
           id="g44"><path
             id="path46"
             style="fill:#4f4c52;fill-opacity:1;fill-rule:nonzero;stroke:none"
             d="M 0,0 C 0.979,0 1.599,0.893 1.599,1.771 1.268,1.786 0.894,1.815 0.504,1.815 -0.374,1.815 -1.065,1.541 -1.065,0.821 -1.065,0.303 -0.604,0 0,0 M 1.786,-1.556 C 1.772,-1.152 1.729,-0.764 1.729,-0.375 H 1.7 c -0.591,-0.936 -1.311,-1.354 -2.377,-1.354 -1.483,0 -2.808,0.735 -2.808,2.363 0,2.29 2.491,2.564 3.874,2.564 0.418,0 0.879,-0.044 1.21,-0.101 -0.014,1.023 -0.778,1.297 -1.714,1.297 -0.835,0 -1.671,-0.159 -2.391,-0.562 l -0.043,1.757 c 0.922,0.374 1.887,0.533 2.996,0.533 1.915,0 3.572,-0.821 3.572,-3.111 V 0.216 c 0,-0.591 0.029,-1.181 0.144,-1.772 z" /></g><g
           transform="translate(314.6073,176.8932)"
           id="g48"><path
             id="path50"
             style="fill:#4f4c52;fill-opacity:1;fill-rule:nonzero;stroke:none"
             d="m 0,0 h 2.362 v -1.383 h 0.029 c 0.519,1.08 1.556,1.556 2.737,1.556 2.045,0 2.867,-1.441 2.867,-2.996 V -7.505 H 5.402 v 3.63 c 0,1.412 -0.49,1.887 -1.196,1.887 -1.066,0 -1.613,-0.735 -1.613,-2.348 v -3.169 l -2.593,0 z" /></g><g
           transform="translate(329.4623,173.1335)"
           id="g52"><path
             id="path54"
             style="fill:#4f4c52;fill-opacity:1;fill-rule:nonzero;stroke:none"
             d="m 0,0 c 0,1.124 -0.49,2.117 -1.686,2.117 -1.195,0 -1.685,-0.993 -1.685,-2.117 0,-1.109 0.49,-2.103 1.685,-2.103 C -0.49,-2.103 0,-1.109 0,0 m -6.05,0 c 0,2.492 1.887,3.933 4.364,3.933 2.478,0 4.365,-1.441 4.365,-3.933 0,-2.478 -1.887,-3.918 -4.365,-3.918 -2.477,0 -4.364,1.44 -4.364,3.918" /></g><g
           transform="translate(338.3344,174.819)"
           id="g56"><path
             id="path58"
             style="fill:#4f4c52;fill-opacity:1;fill-rule:nonzero;stroke:none"
             d="m 0,0 c -0.288,0.086 -0.576,0.086 -0.879,0.086 -1.21,0 -1.887,-0.878 -1.887,-2.348 v -3.169 h -2.592 v 7.505 h 2.362 V 0.691 h 0.029 c 0.446,0.951 1.094,1.556 2.218,1.556 0.303,0 0.619,-0.043 0.879,-0.087 z" /></g><g
           transform="translate(339.0307,179.4425)"
           id="g60"><path
             id="path62"
             style="fill:#4f4c52;fill-opacity:1;fill-rule:nonzero;stroke:none"
             d="m 0,0 h 2.68 v -8.066 h 4.148 v -1.988 H 0 Z" /></g><g
           transform="translate(349.7387,170.944)"
           id="g64"><path
             id="path66"
             style="fill:#4f4c52;fill-opacity:1;fill-rule:nonzero;stroke:none"
             d="M 0,0 C 0.979,0 1.599,0.893 1.599,1.771 1.268,1.786 0.894,1.815 0.504,1.815 -0.374,1.815 -1.065,1.541 -1.065,0.821 -1.065,0.303 -0.604,0 0,0 M 1.786,-1.556 C 1.772,-1.152 1.729,-0.764 1.729,-0.375 H 1.7 c -0.591,-0.936 -1.311,-1.354 -2.377,-1.354 -1.483,0 -2.808,0.735 -2.808,2.363 0,2.29 2.491,2.564 3.874,2.564 0.418,0 0.879,-0.044 1.21,-0.101 -0.014,1.023 -0.778,1.297 -1.714,1.297 -0.835,0 -1.671,-0.159 -2.391,-0.562 l -0.043,1.757 c 0.922,0.374 1.887,0.533 2.996,0.533 1.915,0 3.572,-0.821 3.572,-3.111 V 0.216 c 0,-0.591 0.029,-1.181 0.144,-1.772 z" /></g><g
           transform="translate(353.9491,176.8932)"
           id="g68"><path
             id="path70"
             style="fill:#4f4c52;fill-opacity:1;fill-rule:nonzero;stroke:none"
             d="m 0,0 h 2.78 l 1.555,-5.344 h 0.03 L 5.935,0 H 8.513 L 5.733,-7.505 H 2.78 Z" /></g><path
           id="path72"
           style="fill:#4f4c52;fill-opacity:1;fill-rule:nonzero;stroke:none"
           d="m 363.09,176.893 h 2.593 v -7.505 h -2.593 z m 2.593,1.224 h -2.593 v 1.901 h 2.593 z" /><g
           transform="translate(367.0326,176.8932)"
           id="g74"><path
             id="path76"
             style="fill:#4f4c52;fill-opacity:1;fill-rule:nonzero;stroke:none"
             d="m 0,0 h 2.362 v -1.383 h 0.029 c 0.519,1.08 1.556,1.556 2.737,1.556 2.045,0 2.866,-1.441 2.866,-2.996 V -7.505 H 5.401 v 3.63 c 0,1.412 -0.489,1.887 -1.195,1.887 -1.066,0 -1.613,-0.735 -1.613,-2.348 v -3.169 l -2.593,0 z" /></g><g
           transform="translate(380.0102,171.3761)"
           id="g78"><path
             id="path80"
             style="fill:#4f4c52;fill-opacity:1;fill-rule:nonzero;stroke:none"
             d="M 0,0 C 0.922,0 1.657,0.778 1.657,1.93 1.657,2.766 1.167,3.702 0,3.702 -0.965,3.702 -1.469,2.852 -1.469,1.83 -1.469,0.663 -0.777,0 0,0 m 4.163,-1.109 c 0,-3.083 -1.498,-4.077 -4.523,-4.077 -1.239,0 -2.261,0.26 -2.867,0.476 l 0.13,2.045 c 0.792,-0.389 1.455,-0.619 2.535,-0.619 1.499,0 2.305,0.705 2.305,2.175 v 0.403 H 1.714 C 1.095,-1.584 0.23,-1.988 -0.807,-1.988 c -2.059,0 -3.341,1.556 -3.341,3.774 0,2.233 1.051,3.904 3.385,3.904 1.109,0 2.002,-0.606 2.549,-1.527 h 0.029 v 1.354 h 2.348 z" /></g><g
           transform="translate(384.7128,176.8932)"
           id="g82"><path
             id="path84"
             style="fill:#4f4c52;fill-opacity:1;fill-rule:nonzero;stroke:none"
             d="m 0,0 h 1.527 v 1.685 l 2.55,0.793 V 0 H 5.891 V -1.815 H 4.077 v -2.766 c 0,-0.907 0.215,-1.368 1.037,-1.368 0.259,0 0.532,0.057 0.792,0.1 l 0.086,-1.685 c -0.49,-0.057 -0.979,-0.144 -1.627,-0.144 -2.32,0 -2.881,1.023 -2.881,2.809 v 3.054 l -1.484,0 z" /></g><g
           transform="translate(396.9525,173.1335)"
           id="g86"><path
             id="path88"
             style="fill:#4f4c52;fill-opacity:1;fill-rule:nonzero;stroke:none"
             d="M 0,0 C 0,1.124 -0.489,2.117 -1.685,2.117 -2.881,2.117 -3.37,1.124 -3.37,0 c 0,-1.109 0.489,-2.103 1.685,-2.103 C -0.489,-2.103 0,-1.109 0,0 m -6.05,0 c 0,2.492 1.887,3.933 4.365,3.933 2.477,0 4.365,-1.441 4.365,-3.933 0,-2.478 -1.888,-3.918 -4.365,-3.918 -2.478,0 -4.365,1.44 -4.365,3.918" /></g><g
           transform="translate(400.4667,176.8932)"
           id="g90"><path
             id="path92"
             style="fill:#4f4c52;fill-opacity:1;fill-rule:nonzero;stroke:none"
             d="m 0,0 h 2.362 v -1.383 h 0.029 c 0.519,1.08 1.556,1.556 2.737,1.556 2.045,0 2.867,-1.441 2.867,-2.996 V -7.505 H 5.402 v 3.63 c 0,1.412 -0.49,1.887 -1.196,1.887 -1.066,0 -1.613,-0.735 -1.613,-2.348 v -3.169 l -2.593,0 z" /></g><g
           transform="translate(318.1939,62.5794)"
           id="g94"><path
             id="path96"
             style="fill:#373535;fill-opacity:1;fill-rule:nonzero;stroke:none"
             d="M 0,0 C -0.007,-0.889 0.492,-1.529 1.055,-2.135 1.1,-2.184 1.22,-2.227 1.268,-2.201 2.096,-1.754 2.965,-1.345 3.418,-0.447 3.779,0.267 3.59,1.184 2.996,1.568 2.343,1.99 1.645,2.011 0.952,1.656 0.282,1.313 -0.002,0.735 0,0 M 4.628,-7.419 C 3.357,-6.038 2.111,-4.685 0.81,-3.271 0.324,-3.661 -0.193,-3.988 -0.601,-4.42 -1.67,-5.551 -1.345,-7.367 0.045,-8.066 0.449,-8.27 0.917,-8.403 1.368,-8.449 c 1.209,-0.125 2.301,0.195 3.26,1.03 m -4.366,4.668 c -0.311,0.468 -0.64,0.879 -0.878,1.337 C -1.247,-0.198 -1.009,1.21 -0.081,1.99 0.945,2.852 2.656,2.915 3.702,2.129 4.629,1.432 4.853,-0.107 4.058,-1.058 3.6,-1.607 2.96,-2.006 2.387,-2.454 2.191,-2.608 1.951,-2.705 1.693,-2.85 c 1.179,-1.288 2.336,-2.551 3.536,-3.861 0.822,1.212 0.93,2.559 0.978,3.946 H 7.1 C 7.106,-4.411 6.819,-5.97 5.84,-7.361 6.317,-7.892 6.785,-8.412 7.255,-8.936 6.282,-9.298 5.712,-8.754 5.22,-8.036 3.932,-9.111 2.476,-9.39 0.902,-9.261 c -2.484,0.202 -3.896,2.641 -2.645,4.683 0.354,0.578 0.969,1 1.478,1.478 0.15,0.142 0.348,0.233 0.527,0.349" /></g><g
           transform="translate(272.3559,55.1993)"
           id="g98"><path
             id="path100"
             style="fill:#373535;fill-opacity:1;fill-rule:nonzero;stroke:none"
             d="M 0,0 C 0.061,0.044 0.099,0.065 0.129,0.094 1.625,1.519 1.997,3.296 1.647,5.246 1.065,8.491 -2.323,10.206 -5.157,8.687 -6.89,7.759 -7.672,6.2 -7.738,4.283 c -0.069,-2.01 0.616,-3.699 2.391,-4.77 1.471,-0.886 3.011,-0.838 4.601,-0.075 -0.68,0.782 -1.325,1.525 -2.021,2.325 0.3,0 0.501,-0.023 0.694,0.005 C -1.681,1.824 -1.42,1.671 -1.181,1.362 -0.819,0.896 -0.409,0.467 0,0 m 0.616,-0.711 c 0.385,-0.457 0.755,-0.896 1.141,-1.354 -0.892,-0.274 -1.501,0.056 -1.823,0.721 -0.912,-0.196 -1.723,-0.479 -2.547,-0.528 -3.38,-0.203 -5.542,1.879 -6.034,4.902 -0.388,2.388 0.312,4.463 2.314,5.924 1.757,1.283 3.725,1.407 5.697,0.572 C 1.365,8.678 2.403,7.048 2.677,4.924 2.925,3.009 2.457,1.294 1.157,-0.164 0.999,-0.342 0.822,-0.503 0.616,-0.711" /></g><g
           transform="translate(371.7716,63.4974)"
           id="g102"><path
             id="path104"
             style="fill:#373535;fill-opacity:1;fill-rule:nonzero;stroke:none"
             d="m 0,0 v -9.906 h -0.922 c 0,0.162 0,0.325 0,0.488 0.004,3.117 0.01,6.234 0.009,9.351 0,0.498 0.06,1.017 -0.435,1.497 0.511,0 0.912,0.018 1.309,-0.012 C 0.071,1.41 0.189,1.274 0.273,1.171 2.714,-1.805 5.151,-4.784 7.589,-7.762 7.684,-7.878 7.781,-7.991 7.959,-8.204 V 1.433 H 8.827 V -9.888 C 8.393,-10.016 8.087,-9.91 7.783,-9.533 5.322,-6.482 2.838,-3.451 0.36,-0.414 0.272,-0.307 0.178,-0.205 0,0" /></g><g
           transform="translate(294.8481,59.2354)"
           id="g106"><path
             id="path108"
             style="fill:#373535;fill-opacity:1;fill-rule:nonzero;stroke:none"
             d="M 0,0 C 1.033,0.059 2.054,0.03 3.042,0.195 4.16,0.382 4.735,1.264 4.734,2.49 4.733,3.706 4.14,4.618 3.041,4.791 2.051,4.948 1.031,4.907 0,4.954 Z M 6.989,-5.62 C 6.34,-5.755 5.892,-5.688 5.512,-5.072 c -0.857,1.389 -1.81,2.719 -2.736,4.065 -0.082,0.12 -0.245,0.257 -0.375,0.261 -0.786,0.024 -1.574,0.012 -2.41,0.012 V -5.64 h -0.998 v 0.51 c 0,3.157 0,6.315 -0.001,9.473 0,0.459 0.044,0.932 -0.411,1.319 0.146,0.029 0.221,0.057 0.296,0.056 C 0.131,5.709 1.388,5.747 2.638,5.67 3.903,5.592 4.979,5.077 5.493,3.83 5.974,2.662 5.921,1.485 5.081,0.489 4.705,0.044 4.147,-0.246 3.626,-0.642 4.701,-2.233 5.837,-3.915 6.989,-5.62" /></g><g
           transform="translate(352.8575,59.2495)"
           id="g110"><path
             id="path112"
             style="fill:#373535;fill-opacity:1;fill-rule:nonzero;stroke:none"
             d="M 0,0 C 1.011,0.046 2.015,0.006 2.988,0.159 4.183,0.346 4.819,1.285 4.786,2.546 4.752,3.795 4.051,4.671 2.847,4.824 2.084,4.921 1.303,4.878 0.531,4.896 0.356,4.9 0.181,4.897 0,4.897 Z m -0.01,-0.748 v -4.905 h -0.949 c 0,0.16 0,0.324 0,0.488 -0.004,3.201 0,6.401 -0.021,9.601 -0.003,0.399 -0.133,0.797 -0.211,1.238 -0.017,-0.003 0.07,0.032 0.158,0.032 C 0.179,5.698 1.392,5.714 2.603,5.668 4.18,5.609 5.385,4.676 5.708,3.329 6.115,1.634 5.397,0.219 3.782,-0.471 3.73,-0.493 3.681,-0.52 3.595,-0.562 4.734,-2.246 5.867,-3.922 7.004,-5.604 6.282,-5.824 6.008,-5.73 5.624,-5.162 4.685,-3.773 3.747,-2.384 2.797,-1.004 2.716,-0.887 2.548,-0.763 2.416,-0.759 1.628,-0.736 0.839,-0.748 -0.01,-0.748" /></g><g
           transform="translate(393.6147,59.3178)"
           id="g114"><path
             id="path116"
             style="fill:#373535;fill-opacity:1;fill-rule:nonzero;stroke:none"
             d="m 0,0 c 0.811,0 1.571,-0.001 2.331,0.001 0.14,0 0.282,0.003 0.422,0.021 C 3.934,0.171 4.728,1.04 4.759,2.211 4.797,3.644 4.154,4.594 2.883,4.741 1.943,4.85 0.98,4.762 0,4.762 Z m -1.458,5.579 c 0.223,0.036 0.302,0.061 0.381,0.06 1.24,-0.01 2.481,0.01 3.719,-0.044 C 4.378,5.519 5.654,4.35 5.773,2.795 5.901,1.119 5.302,0.169 3.589,-0.635 4.725,-2.316 5.858,-3.993 6.997,-5.678 6.22,-5.888 6.004,-5.808 5.59,-5.195 c -0.93,1.377 -1.859,2.754 -2.801,4.123 -0.081,0.117 -0.252,0.24 -0.384,0.243 -0.788,0.023 -1.577,0.012 -2.414,0.012 v -4.906 h -0.974 v 0.493 c 0,3.158 0.004,6.315 -0.004,9.473 -0.001,0.453 0.088,0.944 -0.471,1.336" /></g><g
           transform="translate(285.5445,64.9297)"
           id="g118"><path
             id="path120"
             style="fill:#373535;fill-opacity:1;fill-rule:nonzero;stroke:none"
             d="M 0,0 H 0.9 C 0.916,-0.062 0.949,-0.127 0.948,-0.191 0.943,-2.645 0.99,-5.1 0.912,-7.55 c -0.078,-2.435 -1.777,-4.047 -4.211,-4.123 -1.476,-0.047 -2.831,0.267 -3.846,1.456 -0.69,0.808 -0.99,1.763 -1.003,2.805 -0.024,2.072 -0.012,4.145 -0.04,6.217 -0.006,0.375 -0.133,0.748 -0.212,1.163 h 1.189 v -0.446 c 0,-2.129 -0.006,-4.258 0.005,-6.388 0.002,-0.435 0.03,-0.876 0.11,-1.303 0.297,-1.582 1.483,-2.609 3.096,-2.667 0.502,-0.018 1.023,0.003 1.508,0.119 1.521,0.364 2.428,1.495 2.465,3.173 0.052,2.34 0.022,4.681 0.027,7.022 0,0.166 0,0.331 0,0.522" /></g><g
           transform="translate(342.2625,58.1587)"
           id="g122"><path
             id="path124"
             style="fill:#373535;fill-opacity:1;fill-rule:nonzero;stroke:none"
             d="M 0,0 H 4.506 C 3.747,1.749 3.006,3.455 2.23,5.243 1.469,3.453 0.744,1.75 0,0 m 7.542,-4.621 c -0.279,0 -0.503,0.013 -0.725,-0.004 -0.235,-0.017 -0.348,0.08 -0.439,0.295 -0.456,1.075 -0.938,2.14 -1.39,3.216 -0.1,0.237 -0.227,0.308 -0.472,0.307 -1.509,-0.01 -3.019,-0.012 -4.528,0.002 -0.272,0.002 -0.397,-0.097 -0.496,-0.338 -0.395,-0.963 -0.809,-1.918 -1.215,-2.877 -0.286,-0.676 -0.365,-0.714 -1.188,-0.536 0.327,0.752 0.647,1.498 0.974,2.241 C -0.659,0.598 0.621,3.509 1.9,6.422 1.983,6.612 2.034,6.876 2.315,6.786 2.467,6.737 2.637,6.588 2.702,6.442 4.286,2.864 5.856,-0.72 7.428,-4.302 7.461,-4.378 7.484,-4.457 7.542,-4.621" /></g><g
           transform="translate(303.4491,64.9323)"
           id="g126"><path
             id="path128"
             style="fill:#373535;fill-opacity:1;fill-rule:nonzero;stroke:none"
             d="M 0,0 H 6.289 V -0.781 H 1.223 V -5.154 H 6.175 V -5.969 H 1.224 v -4.612 h 5.285 v -0.751 H 0.211 v 0.488 c 0,3.173 0.008,6.346 -0.009,9.518 C 0.2,-0.9 0.076,-0.474 0,0" /></g><g
           transform="translate(333.7708,64.0798)"
           id="g130"><path
             id="path132"
             style="fill:#373535;fill-opacity:1;fill-rule:nonzero;stroke:none"
             d="m 0,0 v -4.749 c 0.891,0 1.749,-0.034 2.603,0.008 1.243,0.061 2.072,0.931 2.144,2.18 0.08,1.369 -0.603,2.386 -1.868,2.539 C 1.94,0.091 0.976,0 0,0 m -0.021,-10.498 h -0.983 v 0.485 c 0,3.13 0.001,6.26 -10e-4,9.39 0,0.498 0.079,1.016 -0.35,1.399 0.054,0.048 0.074,0.081 0.093,0.08 C 0.243,0.822 1.772,0.944 3.246,0.712 5.67,0.331 6.639,-2.674 5.011,-4.484 4.284,-5.293 3.303,-5.539 2.262,-5.574 1.517,-5.598 0.771,-5.579 -0.021,-5.579 Z" /></g><g
           transform="translate(389.6396,64.1531)"
           id="g134"><path
             id="path136"
             style="fill:#373535;fill-opacity:1;fill-rule:nonzero;stroke:none"
             d="m 0,0 h -5.076 v -4.369 h 4.924 V -5.187 H -5.076 V -9.805 H 0.169 V -10.56 H -6.08 v 0.496 c 0,3.173 0.008,6.345 -0.01,9.518 -0.002,0.425 -0.136,0.85 -0.214,1.307 l 6.304,0 z" /></g><g
           transform="translate(261.707,63.4212)"
           id="g138"><path
             id="path140"
             style="fill:#373535;fill-opacity:1;fill-rule:nonzero;stroke:none"
             d="m 0,0 c -0.147,0.104 -0.277,0.163 -0.364,0.261 -0.852,0.966 -2.893,1.043 -3.804,0.138 -0.669,-0.666 -0.742,-1.811 -0.065,-2.534 0.435,-0.464 0.992,-0.82 1.516,-1.194 0.63,-0.449 1.315,-0.825 1.92,-1.304 1.185,-0.938 1.566,-2.131 1.161,-3.402 -0.366,-1.147 -1.47,-1.944 -2.885,-2.051 -0.985,-0.074 -1.933,0.072 -2.823,0.544 -0.283,0.15 -0.427,0.317 -0.385,0.653 0.034,0.262 0.007,0.533 0.007,0.933 0.196,-0.141 0.338,-0.206 0.427,-0.314 0.858,-1.034 2.68,-1.366 3.843,-0.69 1.232,0.715 1.392,2.384 0.283,3.386 -0.477,0.43 -1.043,0.763 -1.576,1.13 -0.614,0.422 -1.265,0.796 -1.849,1.256 -0.882,0.694 -1.236,1.641 -1.019,2.742 0.213,1.081 0.941,1.769 1.967,2.056 0.608,0.171 1.273,0.15 1.915,0.192 C -1.54,1.814 -1.34,1.756 -1.149,1.711 0.025,1.435 0.124,1.294 0,0" /></g><g
           transform="translate(402.2182,55.4153)"
           id="g142"><path
             id="path144"
             style="fill:#373535;fill-opacity:1;fill-rule:nonzero;stroke:none"
             d="m 0,0 c 0.118,-0.09 0.275,-0.156 0.349,-0.274 0.764,-1.228 3.059,-1.211 3.925,-0.63 1.06,0.711 1.283,2.256 0.34,3.158 C 4.021,2.822 3.292,3.249 2.615,3.728 2.11,4.085 1.568,4.395 1.085,4.779 0.186,5.494 -0.22,6.433 0.028,7.581 0.283,8.756 1.096,9.396 2.209,9.695 3.222,9.968 4.217,9.866 5.193,9.496 5.515,9.374 5.713,9.204 5.656,8.817 5.621,8.584 5.65,8.342 5.65,7.999 5.481,8.111 5.349,8.155 5.286,8.246 4.599,9.247 2.346,9.242 1.539,8.477 0.888,7.861 0.699,6.786 1.273,6.056 1.645,5.581 2.163,5.208 2.655,4.842 3.478,4.23 4.379,3.716 5.162,3.06 6.087,2.286 6.349,1.227 6.017,0.069 5.692,-1.067 4.871,-1.716 3.749,-1.973 2.602,-2.235 1.486,-2.108 0.413,-1.6 c -0.367,0.174 -0.605,0.375 -0.525,0.827 0.039,0.218 0.007,0.449 0.007,0.674 C -0.07,-0.066 -0.035,-0.033 0,0" /></g><g
           transform="translate(364.8619,53.587)"
           id="g146"><path
             id="path148"
             style="fill:#373535;fill-opacity:1;fill-rule:nonzero;stroke:none"
             d="m 0,0 h -0.985 v 10.558 h -3.75 v 0.789 H 3.753 V 10.574 H 0 Z" /></g><g
           transform="translate(290.5744,53.5874)"
           id="g150"><path
             id="path152"
             style="fill:#373535;fill-opacity:1;fill-rule:nonzero;stroke:none"
             d="m 0,0 h -0.934 v 0.514 c -0.001,3.185 0.007,6.369 -0.009,9.554 -0.002,0.401 -0.125,0.802 -0.199,1.245 l 1.142,0 z" /></g><g
           transform="translate(267.8073,305.1377)"
           id="g154"><path
             id="path156"
             style="fill:#292929;fill-opacity:1;fill-rule:nonzero;stroke:none"
             d="m 0,0 c -1.114,-0.262 -2.315,-0.48 -3.472,-0.48 -4.935,0 -8.364,2.467 -8.364,7.621 0,5.219 3.188,8.145 8.364,8.145 1.004,0 2.336,-0.196 3.45,-0.633 L -0.24,12.076 c -1.158,0.655 -2.206,0.808 -3.298,0.808 -3.144,0 -5.11,-2.402 -5.11,-5.525 0,-3.101 1.922,-5.437 5.176,-5.437 1.201,0 2.62,0.262 3.341,0.633 z" /></g><g
           transform="translate(269.1392,321.2973)"
           id="g158"><path
             id="path160"
             style="fill:#292929;fill-opacity:1;fill-rule:nonzero;stroke:none"
             d="M 0,0 H 2.926 V -6.66 H 2.97 c 0.742,1.091 2.009,1.79 3.537,1.79 2.665,0 3.822,-1.878 3.822,-4.411 v -7.097 H 7.403 v 6.005 c 0,1.376 -0.022,3.232 -1.9,3.232 -2.118,0 -2.577,-2.293 -2.577,-3.734 v -5.503 H 0 Z" /></g><g
           transform="translate(285.7572,306.7974)"
           id="g162"><path
             id="path164"
             style="fill:#292929;fill-opacity:1;fill-rule:nonzero;stroke:none"
             d="M 0,0 C 0.895,0 1.594,0.393 2.052,1.005 2.533,1.638 2.664,2.446 2.664,3.319 H 1.398 C 0.087,3.319 -1.856,3.101 -1.856,1.376 -1.856,0.415 -1.048,0 0,0 M -3.429,8.779 C -2.293,9.303 -0.764,9.63 0.48,9.63 3.909,9.63 5.328,8.211 5.328,4.892 V 3.45 C 5.328,2.315 5.35,1.463 5.372,0.633 5.394,-0.218 5.437,-1.005 5.503,-1.878 H 2.926 C 2.817,-1.289 2.817,-0.546 2.795,-0.196 H 2.751 C 2.074,-1.441 0.611,-2.14 -0.721,-2.14 c -1.987,0 -3.93,1.201 -3.93,3.341 0,1.682 0.808,2.664 1.921,3.21 1.114,0.546 2.555,0.655 3.778,0.655 h 1.616 c 0,1.813 -0.808,2.424 -2.533,2.424 -1.245,0 -2.489,-0.48 -3.472,-1.223 z" /></g><g
           transform="translate(296.261,310.5751)"
           id="g166"><path
             id="path168"
             style="fill:#292929;fill-opacity:1;fill-rule:nonzero;stroke:none"
             d="M 0,0 C 0,-1.594 0.633,-3.647 2.577,-3.647 4.498,-3.647 5.044,-1.55 5.044,0 5.044,1.507 4.52,3.581 2.62,3.581 0.742,3.581 0,1.572 0,0 m -2.948,5.59 h 2.795 V 3.996 h 0.044 c 0.655,1.092 1.769,1.856 3.494,1.856 3.45,0 4.716,-2.751 4.716,-5.852 0,-3.079 -1.266,-5.918 -4.782,-5.918 -1.245,0 -2.271,0.306 -3.297,1.551 h -0.044 v -5.875 h -2.926 z" /></g><g
           transform="translate(305.9565,316.1654)"
           id="g170"><path
             id="path172"
             style="fill:#292929;fill-opacity:1;fill-rule:nonzero;stroke:none"
             d="m 0,0 h 2.73 v -1.572 h 0.043 c 0.918,1.376 2.25,1.834 3.341,1.834 1.573,0 2.687,-0.589 3.32,-1.987 0.677,1.354 2.14,1.987 3.516,1.987 2.773,0 3.559,-1.9 3.559,-4.411 v -7.097 h -2.926 v 6.704 c 0,1.048 0,2.533 -1.682,2.533 -1.943,0 -2.183,-2.314 -2.183,-3.778 v -5.459 H 6.792 v 6.704 c 0,1.048 0,2.533 -1.682,2.533 -1.943,0 -2.184,-2.314 -2.184,-3.778 v -5.459 H 0 Z" /></g><g
           transform="translate(328.6889,306.7974)"
           id="g174"><path
             id="path176"
             style="fill:#292929;fill-opacity:1;fill-rule:nonzero;stroke:none"
             d="m 0,0 c 0.895,0 1.594,0.393 2.053,1.005 0.48,0.633 0.611,1.441 0.611,2.314 H 1.398 C 0.087,3.319 -1.856,3.101 -1.856,1.376 -1.856,0.415 -1.048,0 0,0 m -3.428,8.779 c 1.135,0.524 2.664,0.851 3.909,0.851 3.428,0 4.847,-1.419 4.847,-4.738 V 3.45 C 5.328,2.315 5.35,1.463 5.372,0.633 5.394,-0.218 5.438,-1.005 5.503,-1.878 H 2.926 C 2.817,-1.289 2.817,-0.546 2.795,-0.196 H 2.752 C 2.075,-1.441 0.611,-2.14 -0.72,-2.14 c -1.988,0 -3.931,1.201 -3.931,3.341 0,1.682 0.808,2.664 1.922,3.21 1.113,0.546 2.554,0.655 3.777,0.655 h 1.616 c 0,1.813 -0.808,2.424 -2.533,2.424 -1.245,0 -2.489,-0.48 -3.472,-1.223 z" /></g><g
           transform="translate(336.2448,316.1654)"
           id="g178"><path
             id="path180"
             style="fill:#292929;fill-opacity:1;fill-rule:nonzero;stroke:none"
             d="m 0,0 h 2.773 v -1.528 h 0.044 c 0.917,1.288 2.162,1.79 3.69,1.79 2.665,0 3.822,-1.878 3.822,-4.411 v -7.097 H 7.403 v 6.005 c 0,1.376 -0.022,3.232 -1.9,3.232 -2.118,0 -2.577,-2.293 -2.577,-3.734 v -5.503 H 0 Z" /></g><g
           transform="translate(354.5878,317.7597)"
           id="g182"><path
             id="path184"
             style="fill:#292929;fill-opacity:1;fill-rule:nonzero;stroke:none"
             d="M 0,0 H -4.367 V 2.402 H 7.425 V 0 H 3.057 V -12.84 H 0 Z" /></g><g
           transform="translate(364.5459,306.7974)"
           id="g186"><path
             id="path188"
             style="fill:#292929;fill-opacity:1;fill-rule:nonzero;stroke:none"
             d="m 0,0 c 0.895,0 1.594,0.393 2.053,1.005 0.48,0.633 0.611,1.441 0.611,2.314 H 1.398 C 0.087,3.319 -1.856,3.101 -1.856,1.376 -1.856,0.415 -1.048,0 0,0 m -3.428,8.779 c 1.135,0.524 2.664,0.851 3.909,0.851 3.428,0 4.847,-1.419 4.847,-4.738 V 3.45 C 5.328,2.315 5.35,1.463 5.372,0.633 5.394,-0.218 5.438,-1.005 5.503,-1.878 H 2.926 C 2.817,-1.289 2.817,-0.546 2.795,-0.196 H 2.752 C 2.075,-1.441 0.611,-2.14 -0.72,-2.14 c -1.988,0 -3.931,1.201 -3.931,3.341 0,1.682 0.808,2.664 1.921,3.21 1.114,0.546 2.555,0.655 3.778,0.655 h 1.616 c 0,1.813 -0.808,2.424 -2.533,2.424 -1.245,0 -2.489,-0.48 -3.472,-1.223 z" /></g><g
           transform="translate(376.7747,307.9546)"
           id="g190"><path
             id="path192"
             style="fill:#292929;fill-opacity:1;fill-rule:nonzero;stroke:none"
             d="m 0,0 h 0.044 l 2.708,8.211 h 2.97 L 1.507,-2.948 c -0.939,-2.489 -1.616,-4.935 -4.673,-4.935 -0.699,0 -1.398,0.109 -2.075,0.306 l 0.197,2.161 c 0.371,-0.13 0.786,-0.196 1.507,-0.196 1.179,0 1.899,0.808 1.899,2.009 L -5.94,8.211 h 3.232 z" /></g><path
           id="path194"
           style="fill:#292929;fill-opacity:1;fill-rule:nonzero;stroke:none"
           d="m 383.654,321.297 h 2.926 v -16.378 h -2.926 z" /><g
           transform="translate(394.1572,306.9284)"
           id="g196"><path
             id="path198"
             style="fill:#292929;fill-opacity:1;fill-rule:nonzero;stroke:none"
             d="M 0,0 C 2.249,0 2.839,2.009 2.839,3.887 2.839,5.612 1.922,7.228 0,7.228 -1.9,7.228 -2.817,5.568 -2.817,3.887 -2.817,2.031 -2.227,0 0,0 m 0,9.499 c 3.341,0 5.896,-2.249 5.896,-5.961 0,-3.232 -2.162,-5.809 -5.896,-5.809 -3.712,0 -5.874,2.577 -5.874,5.809 0,3.712 2.555,5.961 5.874,5.961" /></g><g
           transform="translate(401.7565,316.1654)"
           id="g200"><path
             id="path202"
             style="fill:#292929;fill-opacity:1;fill-rule:nonzero;stroke:none"
             d="m 0,0 h 2.599 v -2.555 h 0.043 c 0.131,1.048 1.332,2.817 3.079,2.817 0.284,0 0.59,0 0.896,-0.087 v -2.948 c -0.263,0.153 -0.787,0.24 -1.311,0.24 -2.38,0 -2.38,-2.97 -2.38,-4.586 v -4.127 H 0 Z" /></g><g
           transform="translate(62.8165,307.785)"
           id="g204"><path
             id="path206"
             style="fill:#c85f9e;fill-opacity:1;fill-rule:nonzero;stroke:none"
             d="M 0,0 -2.156,7.119 -4.313,0 Z M 7.444,-7.887 H 2.334 L 1.093,-3.722 H -5.464 L -6.735,-7.887 H -10.9 l 6.499,20.264 h 5.494 z" /></g><g
           transform="translate(84.3521,303.9154)"
           id="g208"><path
             id="path210"
             style="fill:#c85f9e;fill-opacity:1;fill-rule:nonzero;stroke:none"
             d="m 0,0 v -4.017 h -12.879 v 20.263 h 4.726 L -8.153,0 Z" /></g><g
           transform="translate(98.2371,303.9154)"
           id="g212"><path
             id="path214"
             style="fill:#c85f9e;fill-opacity:1;fill-rule:nonzero;stroke:none"
             d="m 0,0 v -4.017 h -12.879 v 20.263 h 4.726 L -8.153,0 Z" /></g><g
           transform="translate(104.0574,316.2332)"
           id="g216"><path
             id="path218"
             style="fill:#c85f9e;fill-opacity:1;fill-rule:nonzero;stroke:none"
             d="m 0,0 v -4.608 h 7.71 v -3.81 H 0 v -7.917 H -4.726 V 3.929 H 9.689 V 0 Z" /></g><g
           transform="translate(119.1821,314.2833)"
           id="g220"><path
             id="path222"
             style="fill:#c85f9e;fill-opacity:1;fill-rule:nonzero;stroke:none"
             d="m 0,0 c -0.473,-1.211 -0.65,-2.954 -0.65,-4.224 0,-2.54 0.384,-6.587 3.722,-6.587 1.625,0 2.511,0.797 3.043,2.304 0.472,1.241 0.62,2.924 0.62,4.253 0,1.478 -0.148,3.22 -0.739,4.579 C 5.406,1.684 4.549,2.304 3.072,2.304 1.448,2.304 0.561,1.477 0,0 m -3.485,-11.491 c -1.477,2.098 -2.127,4.727 -2.127,7.267 0,5.376 2.688,10.398 8.684,10.398 2.688,0 4.815,-0.887 6.44,-3.102 1.447,-1.979 2.186,-4.844 2.186,-7.296 0,-2.304 -0.621,-5.11 -1.921,-7.03 -1.565,-2.304 -3.957,-3.426 -6.705,-3.426 -2.747,0 -4.962,0.945 -6.557,3.189" /></g><g
           transform="translate(137.8527,311.3886)"
           id="g224"><path
             id="path226"
             style="fill:#c85f9e;fill-opacity:1;fill-rule:nonzero;stroke:none"
             d="M 0,0 H 2.599 C 3.574,0 4.638,-0.089 5.494,0.414 6.262,0.886 6.676,1.831 6.676,2.718 6.676,3.515 6.203,4.372 5.523,4.785 4.726,5.287 3.367,5.169 2.481,5.169 H 0 Z M 0,-11.491 H -4.726 V 8.773 H 3.81 c 1.802,0 3.634,-0.03 5.199,-1.034 1.654,-1.093 2.57,-3.072 2.57,-5.051 0,-2.304 -1.329,-4.431 -3.515,-5.228 l 3.751,-8.951 H 6.557 L 3.456,-3.486 H 0 Z" /></g><g
           transform="translate(156.3158,303.7087)"
           id="g228"><path
             id="path230"
             style="fill:#c85f9e;fill-opacity:1;fill-rule:nonzero;stroke:none"
             d="m 0,0 h 1.595 c 1.979,0 3.249,0.384 4.342,2.156 0.798,1.3 1.123,2.865 1.123,4.372 0,1.595 -0.473,3.308 -1.448,4.579 -1.093,1.417 -2.304,1.624 -3.988,1.624 H 0 Z m 1.152,16.453 c 2.924,0 5.435,-0.177 7.65,-2.274 2.186,-2.068 3.131,-4.874 3.131,-7.799 0,-2.717 -0.827,-5.346 -2.629,-7.385 C 7.296,-3.22 4.814,-3.811 1.949,-3.811 h -6.675 v 20.264 z" /></g><g
           transform="translate(69.2266,277.7419)"
           id="g232"><path
             id="path234"
             style="fill:#c85f9e;fill-opacity:1;fill-rule:nonzero;stroke:none"
             d="m 0,0 h -4.726 v 8.359 h -6.262 V 0 h -4.726 v 20.264 h 4.726 v -7.917 h 6.262 v 7.917 H 0 Z" /></g><g
           transform="translate(81.4273,285.6287)"
           id="g236"><path
             id="path238"
             style="fill:#c85f9e;fill-opacity:1;fill-rule:nonzero;stroke:none"
             d="M 0,0 -2.156,7.119 -4.313,0 Z M 7.444,-7.887 H 2.334 L 1.093,-3.722 H -5.464 L -6.735,-7.887 H -10.9 l 6.499,20.264 h 5.494 z" /></g><g
           transform="translate(102.9633,281.7591)"
           id="g240"><path
             id="path242"
             style="fill:#c85f9e;fill-opacity:1;fill-rule:nonzero;stroke:none"
             d="m 0,0 v -4.017 h -12.879 v 20.263 h 4.726 L -8.153,0 Z" /></g><g
           transform="translate(116.8479,281.7591)"
           id="g244"><path
             id="path246"
             style="fill:#c85f9e;fill-opacity:1;fill-rule:nonzero;stroke:none"
             d="m 0,0 v -4.017 h -12.879 v 20.263 h 4.726 L -8.153,0 Z" /></g><g
           transform="translate(65.8296,255.5856)"
           id="g248"><path
             id="path250"
             style="fill:#c85f9e;fill-opacity:1;fill-rule:nonzero;stroke:none"
             d="M 0,0 H -3.249 L -8.182,16.512 H -8.241 V 0 h -3.988 v 20.264 h 7.414 L -1.27,8.123 2.452,20.264 H 9.866 V 0 H 5.14 V 16.512 H 5.021 Z" /></g><g
           transform="translate(83.4366,269.9708)"
           id="g252"><path
             id="path254"
             style="fill:#c85f9e;fill-opacity:1;fill-rule:nonzero;stroke:none"
             d="m 0,0 c -0.473,-1.211 -0.65,-2.954 -0.65,-4.224 0,-2.54 0.384,-6.587 3.722,-6.587 1.625,0 2.511,0.797 3.043,2.304 0.472,1.241 0.62,2.924 0.62,4.253 0,1.478 -0.148,3.22 -0.739,4.579 C 5.406,1.684 4.549,2.304 3.072,2.304 1.448,2.304 0.561,1.477 0,0 m -3.485,-11.49 c -1.477,2.097 -2.127,4.726 -2.127,7.266 0,5.376 2.688,10.398 8.684,10.398 2.688,0 4.815,-0.886 6.44,-3.102 1.447,-1.979 2.186,-4.844 2.186,-7.296 0,-2.304 -0.621,-5.11 -1.921,-7.03 -1.565,-2.304 -3.958,-3.426 -6.705,-3.426 -2.747,0 -4.962,0.945 -6.557,3.19" /></g><g
           transform="translate(112.8887,255.5856)"
           id="g256"><path
             id="path258"
             style="fill:#c85f9e;fill-opacity:1;fill-rule:nonzero;stroke:none"
             d="m 0,0 h -4.047 l -7.768,13.617 h -0.119 V 0 h -3.662 v 20.264 h 5.11 L -3.722,8.36 h 0.059 V 20.264 H 0 Z" /></g><g
           transform="translate(125.1484,263.4725)"
           id="g260"><path
             id="path262"
             style="fill:#c85f9e;fill-opacity:1;fill-rule:nonzero;stroke:none"
             d="M 0,0 -2.156,7.119 -4.313,0 Z M 7.444,-7.887 H 2.334 L 1.093,-3.722 H -5.464 L -6.735,-7.887 H -10.9 l 6.499,20.264 h 5.494 z" /></g><g
           transform="translate(140.9536,262.6452)"
           id="g264"><path
             id="path266"
             style="fill:#c85f9e;fill-opacity:1;fill-rule:nonzero;stroke:none"
             d="M 0,0 V 3.781 H 8.33 V -7.06 H 6.174 l -0.68,2.334 C 3.988,-6.557 2.333,-7.355 -0.03,-7.355 c -5.937,0 -8.388,4.933 -8.388,10.25 0,5.494 2.688,10.604 8.802,10.604 4.372,0 7.326,-2.658 7.946,-6.941 L 3.84,5.937 c -0.207,2.039 -1.3,3.752 -3.574,3.752 -3.338,0 -3.84,-4.343 -3.84,-6.853 0,-2.629 0.738,-6.351 4.047,-6.351 2.067,0 3.485,1.448 3.367,3.515 z" /></g><g
           transform="translate(167.7469,255.5856)"
           id="g268"><path
             id="path270"
             style="fill:#c85f9e;fill-opacity:1;fill-rule:nonzero;stroke:none"
             d="m 0,0 h -4.726 v 8.36 h -6.262 V 0 h -4.726 v 20.264 h 4.726 v -7.917 h 6.262 v 7.917 H 0 Z" /></g><g
           transform="translate(179.9476,263.4725)"
           id="g272"><path
             id="path274"
             style="fill:#c85f9e;fill-opacity:1;fill-rule:nonzero;stroke:none"
             d="M 0,0 -2.156,7.119 -4.313,0 Z M 7.444,-7.887 H 2.334 L 1.093,-3.722 H -5.464 L -6.735,-7.887 H -10.9 l 6.499,20.264 h 5.494 z" /></g><g
           transform="translate(204.3189,255.5856)"
           id="g276"><path
             id="path278"
             style="fill:#c85f9e;fill-opacity:1;fill-rule:nonzero;stroke:none"
             d="m 0,0 h -4.047 l -7.768,13.617 h -0.119 V 0 h -3.662 v 20.264 h 5.11 L -3.722,8.36 h 0.059 V 20.264 H 0 Z" /></g><g
           transform="translate(65.8296,233.4293)"
           id="g280"><path
             id="path282"
             style="fill:#c85f9e;fill-opacity:1;fill-rule:nonzero;stroke:none"
             d="M 0,0 H -3.249 L -8.182,16.512 H -8.241 V 0 h -3.988 v 20.264 h 7.414 L -1.27,8.123 2.452,20.264 H 9.866 V 0 H 5.14 V 16.512 H 5.021 Z" /></g><g
           transform="translate(83.4366,247.8145)"
           id="g284"><path
             id="path286"
             style="fill:#c85f9e;fill-opacity:1;fill-rule:nonzero;stroke:none"
             d="m 0,0 c -0.473,-1.211 -0.65,-2.954 -0.65,-4.224 0,-2.54 0.384,-6.587 3.722,-6.587 1.625,0 2.511,0.797 3.043,2.304 0.472,1.241 0.62,2.924 0.62,4.253 0,1.478 -0.148,3.22 -0.739,4.579 C 5.406,1.684 4.549,2.304 3.072,2.304 1.448,2.304 0.561,1.477 0,0 m -3.485,-11.491 c -1.477,2.098 -2.127,4.727 -2.127,7.267 0,5.376 2.688,10.398 8.684,10.398 2.688,0 4.815,-0.887 6.44,-3.102 1.447,-1.979 2.186,-4.844 2.186,-7.296 0,-2.304 -0.621,-5.11 -1.921,-7.03 -1.565,-2.304 -3.958,-3.426 -6.705,-3.426 -2.747,0 -4.962,0.945 -6.557,3.189" /></g><g
           transform="translate(102.1072,244.9198)"
           id="g288"><path
             id="path290"
             style="fill:#c85f9e;fill-opacity:1;fill-rule:nonzero;stroke:none"
             d="M 0,0 H 2.599 C 3.574,0 4.638,-0.089 5.494,0.414 6.262,0.886 6.676,1.832 6.676,2.718 6.676,3.515 6.203,4.372 5.524,4.785 4.726,5.287 3.367,5.169 2.481,5.169 H 0 Z M 0,-11.49 H -4.726 V 8.773 H 3.81 c 1.802,0 3.634,-0.03 5.199,-1.034 1.654,-1.093 2.57,-3.072 2.57,-5.051 0,-2.304 -1.329,-4.431 -3.515,-5.228 l 3.751,-8.95 H 6.557 L 3.456,-3.486 H 0 Z" /></g><g
           transform="translate(120.7179,244.9198)"
           id="g292"><path
             id="path294"
             style="fill:#c85f9e;fill-opacity:1;fill-rule:nonzero;stroke:none"
             d="M 0,0 H 2.599 C 3.574,0 4.638,-0.089 5.494,0.414 6.262,0.886 6.676,1.832 6.676,2.718 6.676,3.515 6.203,4.372 5.523,4.785 4.726,5.287 3.367,5.169 2.481,5.169 H 0 Z M 0,-11.49 H -4.726 V 8.773 H 3.81 c 1.802,0 3.634,-0.03 5.199,-1.034 1.654,-1.093 2.57,-3.072 2.57,-5.051 0,-2.304 -1.329,-4.431 -3.515,-5.228 l 3.751,-8.95 H 6.557 L 3.456,-3.486 H 0 Z" /></g><path
           id="path296"
           style="fill:#c85f9e;fill-opacity:1;fill-rule:nonzero;stroke:none"
           d="m 139.329,233.429 h -4.726 v 20.264 h 4.726 z" /><g
           transform="translate(152.7398,247.9032)"
           id="g298"><path
             id="path300"
             style="fill:#c85f9e;fill-opacity:1;fill-rule:nonzero;stroke:none"
             d="m 0,0 c -0.591,1.713 -1.684,2.393 -3.486,2.393 -1.27,0 -2.806,-0.325 -2.806,-1.891 0,-1.477 1.772,-1.831 2.924,-2.038 1.654,-0.354 3.87,-0.768 5.288,-1.713 1.654,-1.093 2.658,-2.777 2.658,-4.786 0,-1.979 -0.945,-3.869 -2.511,-5.08 -1.624,-1.27 -3.84,-1.654 -5.878,-1.654 -3.81,0 -7.266,1.654 -8.182,5.612 l 4.372,1.005 c 0.591,-2.127 2.126,-2.866 4.224,-2.866 1.358,0 3.161,0.502 3.161,2.186 0,1.684 -2.304,2.009 -3.545,2.275 -3.604,0.738 -7.149,1.802 -7.149,6.232 0,1.89 0.739,3.545 2.187,4.756 1.476,1.24 3.219,1.654 5.08,1.654 3.545,0 6.439,-1.24 7.68,-4.756 z" /></g><g
           transform="translate(53.5988,144.202)"
           id="g302"><path
             id="path304"
             style="fill:#3cb9eb;fill-opacity:1;fill-rule:nonzero;stroke:none"
             d="M 0,0 V 5.42 H 151.464 L 149.155,0 Z" /></g><g
           transform="translate(72.4511,177.8126)"
           id="g306"><path
             id="path308"
             style="fill:#292929;fill-opacity:1;fill-rule:nonzero;stroke:none"
             d="M 0,0 H 8.313 V -24.245 H 2.867 l 0.004,18.128 -5.662,-18.131 h -4.973 l -5.603,18.131 -0.003,-18.134 h -5.481 V 0.003 h 8.396 l 5.363,-16.724 z" /></g><g
           transform="translate(205.3516,177.8335)"
           id="g310"><path
             id="path312"
             style="fill:#292929;fill-opacity:1;fill-rule:nonzero;stroke:none"
             d="m 0,0 v -24.27 h -7.448 l -8.386,16.349 v -16.355 l -5.845,0.001 v 24.251 h 7.93 L -5.516,-16.473 -5.514,0 Z" /></g><g
           transform="translate(103.46,140.1946)"
           id="g314"><path
             id="path316"
             style="fill:#a4a4a9;fill-opacity:1;fill-rule:nonzero;stroke:none"
             d="m 0,0 h 5.517 v -24.191 l -7.259,-0.001 -8.571,16.635 -0.012,-16.626 -5.439,0.006 V 0.01 h 7.435 L 0,-16.342 Z" /></g><g
           transform="translate(145.0392,125.9956)"
           id="g318"><path
             id="path320"
             style="fill:#a4a4a9;fill-opacity:1;fill-rule:nonzero;stroke:none"
             d="M 0,0 H 5.915 L 3.047,9.632 Z M -0.282,14.224 H 6.684 L 15.556,-9.978 H 9.481 L 7.616,-4.945 H -1.566 L -3.38,-9.998 h -6.034 z" /></g><g
           transform="translate(163.2178,115.9972)"
           id="g322"><path
             id="path324"
             style="fill:#a4a4a9;fill-opacity:1;fill-rule:nonzero;stroke:none"
             d="M 0,0 V 24.208 H 5.807 L 5.809,5.144 H 19.895 L 17.737,0 Z" /></g><g
           transform="translate(83.3802,140.1954)"
           id="g326"><path
             id="path328"
             style="fill:#a4a4a9;fill-opacity:1;fill-rule:nonzero;stroke:none"
             d="M 0,0 V -24.197 H -5.332 L -5.438,0 Z" /></g><g
           transform="translate(185.3143,115.9972)"
           id="g330"><path
             id="path332"
             style="fill:#a4a4a9;fill-opacity:1;fill-rule:nonzero;stroke:none"
             d="M 0,0 V 24.208 H 5.807 L 5.809,5.144 H 19.895 L 17.737,0 Z" /></g><g
           transform="translate(129.4907,128.1558)"
           id="g334"><path
             id="path336"
             style="fill:#a4a4a9;fill-opacity:1;fill-rule:nonzero;stroke:none"
             d="m 0,0 c 0,4.942 -2.881,6.961 -5.96,6.961 -0.809,0 -4.726,0 -4.726,0 v -14 c 0,0 3.006,0.016 4.895,0.016 C -3.381,-7.023 0,-4.942 0,0 m -6.639,-12.159 -9.903,0.017 v 24.185 h 9.776 c 4.814,0 12.605,-1.603 12.605,-12.081 0,-10.478 -8.298,-12.121 -12.478,-12.121" /></g><g
           transform="translate(165.8807,163.5403)"
           id="g338"><path
             id="path340"
             style="fill:#292929;fill-opacity:1;fill-rule:nonzero;stroke:none"
             d="M 0,0 H 5.915 L 3.047,9.636 Z M -0.282,14.27 H 6.684 L 15.556,-9.982 H 9.481 l -1.865,5.035 h -9.182 l -1.814,-5.055 h -6.034 z" /></g><g
           transform="translate(124.4818,169.7531)"
           id="g342"><path
             id="path344"
             style="fill:#292929;fill-opacity:1;fill-rule:nonzero;stroke:none"
             d="m 0,0 c 0,2.555 -2.053,2.9 -3.151,2.9 h -4.844 v -5.8 h 4.612 C -1.95,-2.9 0,-2.555 0,0 m 1.773,-6.722 c 1.524,-2.844 5.072,-9.472 5.072,-9.472 H 0.184 c 0,0 -2.738,5.659 -4.055,8.378 h -4.13 c 0,0 0.006,-5.631 0.006,-8.376 h -5.797 V 8.053 c 0,0 5.08,0.025 10.705,0.025 5.625,0 8.906,-3.224 8.906,-7.657 0,-4.433 -2.332,-5.883 -4.046,-7.143" /></g><g
           transform="translate(95.739,158.2975)"
           id="g346"><path
             id="path348"
             style="fill:#292929;fill-opacity:1;fill-rule:nonzero;stroke:none"
             d="m 0,0 c -3.883,0 -6.499,2.978 -6.499,7.399 0,4.421 2.616,7.399 6.499,7.399 3.883,0 6.499,-2.978 6.499,-7.399 C 6.499,2.978 3.883,0 0,0 m 0,19.885 c -7.378,0 -12.349,-5.026 -12.349,-12.486 0,-7.46 4.971,-12.486 12.349,-12.486 7.378,0 12.349,5.026 12.349,12.486 0,7.46 -4.971,12.486 -12.349,12.486" /></g><g
           transform="translate(157.0718,166.7939)"
           id="g350"><path
             id="path352"
             style="fill:#292929;fill-opacity:1;fill-rule:nonzero;stroke:none"
             d="m 0,0 0.008,0.016 h -0.009 -12.368 v -4.532 h 5.919 c -0.996,-2.457 -3.093,-3.98 -5.853,-3.98 -3.883,0 -6.499,2.978 -6.499,7.399 0,4.42 2.616,7.399 6.499,7.399 2.435,0 4.37,-1.173 5.476,-3.137 l 5.113,2.612 c -2.065,3.501 -5.818,5.612 -10.589,5.612 -7.378,0 -12.349,-5.026 -12.349,-12.486 0,-7.46 4.971,-12.486 12.349,-12.486 7.378,0 12.349,5.026 12.349,12.486 C 0.046,-0.724 0.025,-0.361 0,0" /></g><g
           transform="translate(57.6555,123.697)"
           id="g354"><path
             id="path356"
             style="fill:#a4a4a9;fill-opacity:1;fill-rule:nonzero;stroke:none"
             d="m 0,0 c 1.823,-2.241 4.01,-3.406 6.701,-3.406 1.487,0 4.479,0.665 4.479,2.727 0,1.197 -1.125,2.066 -2.802,2.365 L 3.693,2.66 c -4.178,0.699 -7.083,2.58 -7.083,6.072 0,5.72 3.552,8.081 9.837,8.081 3.735,0 7.407,-1.596 9.939,-4.556 L 11.533,9.693 c -1.488,1.895 -3.092,2.561 -5.466,2.561 -1.298,0 -3.675,-0.43 -3.675,-2.354 0,-1.263 1.459,-2.166 3.612,-2.531 L 8.156,7.003 c 4.495,-0.765 8.739,-2.282 8.739,-6.805 0,-7.117 -6.65,-8.392 -10.859,-8.392 -3.83,0 -7.704,1.702 -10.742,5.633 z" /></g><g
           transform="translate(110.2046,68.7977)"
           id="g358"><path
             id="path360"
             style="fill:#323a5b;fill-opacity:1;fill-rule:nonzero;stroke:none"
             d="M 0,0 V 15.42 H 4.073 L 7.275,9.769 C 8.191,8.144 9.106,6.223 9.792,4.484 H 9.861 C 9.632,6.52 9.563,8.602 9.563,10.913 v 4.507 h 3.203 V 0 H 9.106 L 5.811,5.948 C 4.896,7.596 3.889,9.586 3.135,11.394 L 3.066,11.37 C 3.157,9.334 3.203,7.161 3.203,4.645 V 0 Z" /></g><g
           transform="translate(138.7387,69.5066)"
           id="g362"><path
             id="path364"
             style="fill:#323a5b;fill-opacity:1;fill-rule:nonzero;stroke:none"
             d="m 0,0 c -1.075,-0.366 -3.111,-0.869 -5.147,-0.869 -2.814,0 -4.85,0.709 -6.269,2.082 -1.419,1.327 -2.196,3.341 -2.173,5.605 0.022,5.125 3.752,8.053 8.807,8.053 1.991,0 3.524,-0.389 4.279,-0.754 l -0.732,-2.792 c -0.847,0.366 -1.899,0.664 -3.592,0.664 -2.905,0 -5.102,-1.647 -5.102,-4.988 0,-3.18 1.99,-5.056 4.851,-5.056 0.8,0 1.441,0.091 1.715,0.229 V 5.4 h -2.379 v 2.722 l 5.742,0 z" /></g><g
           transform="translate(149.2704,71.2685)"
           id="g366"><path
             id="path368"
             style="fill:#323a5b;fill-opacity:1;fill-rule:nonzero;stroke:none"
             d="m 0,0 c 0.343,-0.046 0.754,-0.046 1.35,-0.046 1.578,0 2.974,0.595 2.974,2.22 0,1.555 -1.396,2.173 -3.134,2.173 H 0 Z m 0,6.841 h 1.144 c 1.83,0 2.814,0.755 2.814,1.899 0,1.166 -0.893,1.784 -2.471,1.784 -0.755,0 -1.189,-0.046 -1.487,-0.091 z m -3.455,5.903 c 0.915,0.183 2.768,0.32 4.507,0.32 2.128,0 3.432,-0.206 4.553,-0.869 C 6.68,11.623 7.458,10.57 7.458,9.174 7.458,7.802 6.658,6.52 4.918,5.88 V 5.835 C 6.68,5.354 7.984,4.027 7.984,2.036 7.984,0.641 7.343,-0.458 6.383,-1.235 5.262,-2.128 3.386,-2.631 0.32,-2.631 c -1.715,0 -2.997,0.115 -3.775,0.229 z" /></g><g
           transform="translate(165.4043,74.0825)"
           id="g370"><path
             id="path372"
             style="fill:#323a5b;fill-opacity:1;fill-rule:nonzero;stroke:none"
             d="m 0,0 c -1.831,0.023 -3.249,-0.412 -3.249,-1.762 0,-0.892 0.595,-1.326 1.373,-1.326 0.869,0 1.578,0.572 1.807,1.281 C -0.023,-1.624 0,-1.419 0,-1.212 Z M 0.411,-5.285 0.206,-4.164 H 0.137 c -0.732,-0.892 -1.877,-1.373 -3.203,-1.373 -2.265,0 -3.615,1.648 -3.615,3.433 0,2.905 2.608,4.3 6.567,4.278 v 0.16 c 0,0.594 -0.321,1.441 -2.037,1.441 -1.144,0 -2.356,-0.389 -3.088,-0.847 L -5.88,5.17 c 0.778,0.436 2.311,0.985 4.347,0.985 3.729,0 4.918,-2.197 4.918,-4.828 v -3.889 c 0,-1.075 0.047,-2.105 0.161,-2.723 z" /></g><path
           id="path374"
           style="fill:#323a5b;fill-opacity:1;fill-rule:nonzero;stroke:none"
           d="m 171.402,79.985 h 3.477 V 68.798 h -3.477 z m 3.592,3.112 c 0,-0.961 -0.732,-1.739 -1.875,-1.739 -1.099,0 -1.831,0.778 -1.808,1.739 -0.023,1.006 0.709,1.762 1.83,1.762 1.121,0 1.831,-0.756 1.853,-1.762" /><path
           id="path376"
           style="fill:#323a5b;fill-opacity:1;fill-rule:nonzero;stroke:none"
           d="m 177.535,85.042 h 3.477 V 68.798 h -3.477 z" /><g
           transform="translate(190.4638,75.6611)"
           id="g378"><path
             id="path380"
             style="fill:#323a5b;fill-opacity:1;fill-rule:nonzero;stroke:none"
             d="M 0,0 C 0,0.847 -0.366,2.265 -1.967,2.265 -3.432,2.265 -4.027,0.938 -4.118,0 Z m -4.095,-2.38 c 0.114,-1.441 1.532,-2.127 3.157,-2.127 1.189,0 2.15,0.16 3.089,0.458 l 0.457,-2.357 c -1.144,-0.457 -2.539,-0.686 -4.049,-0.686 -3.798,0 -5.971,2.196 -5.971,5.697 0,2.837 1.761,5.971 5.65,5.971 3.615,0 4.988,-2.814 4.988,-5.583 0,-0.594 -0.069,-1.121 -0.114,-1.373 z" /></g><g
           transform="translate(198.1092,79.985)"
           id="g382"><path
             id="path384"
             style="fill:#323a5b;fill-opacity:1;fill-rule:nonzero;stroke:none"
             d="m 0,0 1.67,-5.49 c 0.183,-0.664 0.412,-1.488 0.549,-2.082 h 0.069 c 0.16,0.594 0.343,1.441 0.503,2.082 L 4.164,0 H 7.893 L 5.285,-7.367 c -1.602,-4.438 -2.677,-6.222 -3.935,-7.343 -1.213,-1.053 -2.494,-1.419 -3.363,-1.533 l -0.732,2.951 c 0.434,0.068 0.983,0.274 1.51,0.595 0.525,0.274 1.097,0.823 1.441,1.395 0.114,0.16 0.183,0.344 0.183,0.504 0,0.114 -0.023,0.297 -0.16,0.572 L -3.866,0 Z" /></g><g
           transform="translate(96.3123,76.5436)"
           id="g386"><path
             id="path388"
             style="fill:#323a5b;fill-opacity:1;fill-rule:nonzero;stroke:none"
             d="m 0,0 -2.716,-1.894 c 1.109,1.596 1.12,2.787 1.12,4.096 0,2.134 -1.847,3.923 -4.372,4.446 C -6.218,6.353 -6.507,6.086 -6.84,5.847 L -8.3,4.829 c 2.97,-0.257 4.348,-2.421 4.348,-4.586 0,-1.364 -0.011,-2.604 -1.166,-4.266 l -2.83,-1.973 c 1.156,1.663 1.167,2.903 1.167,4.266 0,2.223 -1.924,4.087 -4.554,4.631 -0.261,-0.307 -0.562,-0.585 -0.908,-0.833 l -1.521,-1.061 c 3.094,-0.268 4.529,-2.523 4.529,-4.777 0,-1.421 -0.011,-2.713 -1.215,-4.444 l -2.947,-2.055 c 1.204,1.732 1.215,3.023 1.215,4.444 0,2.315 -2.004,4.257 -4.744,4.824 -0.271,-0.32 -0.584,-0.609 -0.946,-0.869 l -1.584,-1.105 c 3.223,-0.279 4.718,-2.627 4.718,-4.976 0,-1.48 -0.012,-2.825 -1.265,-4.629 l -3.07,-2.141 c 1.253,1.804 1.265,3.15 1.265,4.63 0,2.477 -2.201,4.544 -5.173,5.07 2.966,1.009 4.287,2.898 4.287,6.078 0,3.181 -2.832,5.29 -7.235,5.29 h -13.558 l 3.919,2.141 h 12.709 c 4.403,0 7.235,-2.11 7.235,-5.29 0,-1.683 -0.372,-3.002 -1.16,-4.023 2.591,0.998 3.751,2.784 3.751,5.703 0,3.053 -2.718,5.078 -6.945,5.078 h -13.016 l 3.763,2.055 h 12.2 c 4.227,0 6.945,-2.026 6.945,-5.079 0,-1.615 -0.357,-2.882 -1.113,-3.862 2.487,0.958 3.601,2.673 3.601,5.475 0,2.931 -2.61,4.875 -6.668,4.875 h -12.495 l 3.613,1.973 h 11.712 c 4.058,0 6.667,-1.945 6.667,-4.875 0,-1.551 -0.343,-2.767 -1.068,-3.708 2.387,0.92 3.456,2.566 3.456,5.256 0,2.813 -2.505,4.68 -6.4,4.68 h -11.996 l 3.468,1.894 h 11.244 c 3.895,0 6.4,-1.867 6.4,-4.681 0,-2.058 -0.625,-3.505 -1.988,-4.483 L -3.055,8.498 C -0.203,8.251 1.12,6.174 1.12,4.096 1.12,2.786 1.109,1.596 0,0 m -32.271,-3.116 v 5.213 h 4.098 c 1.911,0 2.782,-0.816 2.782,-2.607 0,-1.79 -0.871,-2.606 -2.782,-2.606 z m 4.746,-9.748 h -4.746 v 5.214 h 4.746 c 1.911,0 2.782,-0.816 2.782,-2.607 0,-1.791 -0.871,-2.607 -2.782,-2.607 M -42.712,-22.943 H 4.269 v 46.475 h -46.981 z" /></g><g
           transform="translate(54.7568,213.538)"
           id="g390"><path
             id="path392"
             style="fill:#292929;fill-opacity:1;fill-rule:nonzero;stroke:none"
             d="M 0,0 H 1.847 C 2.311,0.008 2.659,0.156 2.892,0.444 3.115,0.725 3.226,1.037 3.226,1.38 3.226,1.665 3.181,1.904 3.09,2.099 2.996,2.275 2.864,2.413 2.695,2.515 2.439,2.682 2.141,2.762 1.802,2.754 H 0 Z m -1.245,3.964 h 2.98 C 2.059,3.964 2.371,3.933 2.672,3.871 2.973,3.79 3.278,3.623 3.586,3.371 3.845,3.181 4.055,2.909 4.217,2.556 4.386,2.214 4.47,1.811 4.47,1.345 4.47,0.717 4.256,0.145 3.827,-0.372 3.387,-0.915 2.743,-1.194 1.896,-1.21 H 0 v -3.312 h -1.245 z" /></g><g
           transform="translate(65.7326,213.7825)"
           id="g394"><path
             id="path396"
             style="fill:#292929;fill-opacity:1;fill-rule:nonzero;stroke:none"
             d="M 0,0 H 1.888 C 2.355,0.008 2.706,0.148 2.939,0.42 3.169,0.673 3.284,0.984 3.284,1.354 3.276,1.798 3.139,2.119 2.871,2.317 2.66,2.492 2.355,2.58 1.956,2.58 H 0 Z M -1.245,3.72 H 1.967 C 2.652,3.72 3.211,3.534 3.644,3.161 4.164,2.738 4.436,2.135 4.459,1.351 4.444,0.199 3.915,-0.585 2.871,-1.001 L 4.774,-4.767 H 3.295 L 1.594,-1.14 H 0 v -3.627 h -1.245 z" /></g><path
           id="path398"
           style="fill:#292929;fill-opacity:1;fill-rule:nonzero;stroke:none"
           d="m 76.052,217.502 h 1.245 v -8.486 h -1.245 z" /><g
           transform="translate(83.3525,217.5024)"
           id="g400"><path
             id="path402"
             style="fill:#292929;fill-opacity:1;fill-rule:nonzero;stroke:none"
             d="M 0,0 H 1.173 L 4.896,-6.033 H 4.919 V 0 H 6.163 V -8.486 H 4.984 L 1.267,-2.453 H 1.245 V -8.486 H 0 Z" /></g><g
           transform="translate(98.0593,213.6835)"
           id="g404"><path
             id="path406"
             style="fill:#292929;fill-opacity:1;fill-rule:nonzero;stroke:none"
             d="M 0,0 H 2.922 V -1.726 C 2.907,-2.575 2.625,-3.286 2.077,-3.86 1.524,-4.429 0.829,-4.722 -0.008,-4.737 c -0.647,0.015 -1.186,0.178 -1.618,0.489 -0.439,0.298 -0.759,0.644 -0.958,1.036 -0.06,0.128 -0.114,0.25 -0.163,0.366 -0.045,0.121 -0.083,0.272 -0.113,0.454 -0.056,0.342 -0.084,0.998 -0.084,1.968 0,0.985 0.028,1.645 0.084,1.979 0.06,0.333 0.152,0.603 0.276,0.809 0.199,0.392 0.519,0.741 0.958,1.048 0.432,0.31 0.971,0.469 1.618,0.477 C 0.784,3.881 1.43,3.639 1.93,3.161 2.43,2.68 2.745,2.085 2.877,1.375 H 1.556 C 1.455,1.718 1.27,2.01 1.003,2.252 0.725,2.482 0.386,2.601 -0.013,2.609 -0.306,2.601 -0.558,2.541 -0.769,2.428 -0.983,2.311 -1.156,2.166 -1.288,1.991 -1.45,1.808 -1.557,1.572 -1.609,1.285 -1.67,0.981 -1.7,0.412 -1.7,-0.424 c 0,-0.836 0.03,-1.402 0.091,-1.698 0.052,-0.295 0.16,-0.534 0.322,-0.717 0.131,-0.175 0.304,-0.317 0.519,-0.426 0.211,-0.128 0.463,-0.192 0.757,-0.192 0.485,0 0.886,0.171 1.203,0.513 0.316,0.327 0.478,0.757 0.485,1.291 V -1.21 L 0,-1.21 Z" /></g><g
           transform="translate(106.6616,217.5024)"
           id="g408"><path
             id="path410"
             style="fill:#292929;fill-opacity:1;fill-rule:nonzero;stroke:none"
             d="m 0,0 h 1.245 v -7.276 h 4.006 v -1.21 H 0 Z" /></g><g
           transform="translate(117.277,217.5024)"
           id="g412"><path
             id="path414"
             style="fill:#292929;fill-opacity:1;fill-rule:nonzero;stroke:none"
             d="M 0,0 H 5.251 V -1.21 H 1.245 v -2.428 h 3.42 v -1.14 h -3.42 v -2.498 h 4.006 v -1.21 H 0 Z" /></g><g
           transform="translate(136.5237,212.7824)"
           id="g416"><path
             id="path418"
             style="fill:#292929;fill-opacity:1;fill-rule:nonzero;stroke:none"
             d="m 0,0 v -2.556 h 1.921 c 0.464,0.007 0.803,0.138 1.018,0.391 0.214,0.249 0.322,0.544 0.322,0.887 0,0.35 -0.108,0.65 -0.322,0.899 C 2.724,-0.134 2.385,-0.008 1.921,0 Z M 0,3.58 V 1.14 h 1.8 c 0.455,0 0.79,0.123 1.004,0.368 0.218,0.227 0.327,0.511 0.327,0.855 0,0.343 -0.109,0.634 -0.327,0.871 C 2.59,3.457 2.255,3.572 1.8,3.58 Z M -1.245,4.72 H 1.941 C 2.749,4.712 3.357,4.503 3.763,4.092 4.172,3.676 4.377,3.127 4.377,2.444 4.385,2.095 4.304,1.761 4.135,1.443 4.048,1.292 3.924,1.148 3.763,1.012 3.601,0.869 3.402,0.739 3.165,0.622 V 0.599 C 3.614,0.479 3.953,0.236 4.183,-0.128 4.398,-0.505 4.505,-0.914 4.505,-1.357 4.498,-2.09 4.276,-2.67 3.839,-3.097 3.407,-3.543 2.867,-3.766 2.22,-3.766 h -3.465 z" /></g><g
           transform="translate(147.4442,213.7825)"
           id="g420"><path
             id="path422"
             style="fill:#292929;fill-opacity:1;fill-rule:nonzero;stroke:none"
             d="M 0,0 H 1.888 C 2.355,0.008 2.706,0.148 2.939,0.42 3.169,0.673 3.284,0.984 3.284,1.354 3.276,1.798 3.139,2.119 2.871,2.317 2.66,2.492 2.355,2.58 1.956,2.58 H 0 Z M -1.245,3.72 H 1.967 C 2.652,3.72 3.211,3.534 3.644,3.161 4.164,2.738 4.436,2.135 4.459,1.351 4.444,0.199 3.915,-0.585 2.871,-1.001 L 4.774,-4.767 H 3.295 L 1.594,-1.14 H 0 v -3.627 h -1.245 z" /></g><g
           transform="translate(161.1781,212.0538)"
           id="g424"><path
             id="path426"
             style="fill:#292929;fill-opacity:1;fill-rule:nonzero;stroke:none"
             d="M 0,0 -1.19,3.713 H -1.212 L -2.402,0 Z m 0.355,-1.14 h -3.117 l -0.632,-1.898 h -1.319 l 2.988,8.487 h 1.043 L 2.306,-3.038 H 0.992 Z" /></g><g
           transform="translate(168.0139,217.5024)"
           id="g428"><path
             id="path430"
             style="fill:#292929;fill-opacity:1;fill-rule:nonzero;stroke:none"
             d="M 0,0 H 1.173 L 4.896,-6.033 H 4.919 V 0 H 6.163 V -8.486 H 4.984 L 1.267,-2.453 H 1.245 V -8.486 H 0 Z" /></g><g
           transform="translate(180.6362,210.2261)"
           id="g432"><path
             id="path434"
             style="fill:#292929;fill-opacity:1;fill-rule:nonzero;stroke:none"
             d="M 0,0 H 1.49 C 2.19,0 2.698,0.247 3.014,0.741 3.154,0.923 3.242,1.155 3.28,1.435 3.313,1.711 3.331,2.228 3.331,2.986 3.331,3.725 3.313,4.254 3.28,4.573 3.235,4.892 3.127,5.15 2.958,5.349 2.612,5.843 2.122,6.082 1.49,6.066 H 0 Z M -1.245,7.276 H 1.632 C 2.745,7.269 3.579,6.791 4.136,5.844 4.335,5.526 4.461,5.193 4.513,4.843 4.554,4.494 4.575,3.891 4.575,3.033 4.575,2.121 4.543,1.485 4.479,1.124 4.449,0.942 4.404,0.778 4.344,0.635 4.28,0.495 4.203,0.35 4.113,0.199 3.872,-0.201 3.537,-0.531 3.109,-0.791 2.684,-1.07 2.163,-1.21 1.547,-1.21 h -2.792 z" /></g><g
           transform="translate(190.7601,213.2592)"
           id="g436"><path
             id="path438"
             style="fill:#292929;fill-opacity:1;fill-rule:nonzero;stroke:none"
             d="m 0,0 c 0,-0.836 0.03,-1.402 0.09,-1.697 0.053,-0.296 0.16,-0.535 0.322,-0.718 0.132,-0.175 0.305,-0.317 0.52,-0.426 0.211,-0.128 0.463,-0.192 0.757,-0.192 0.297,0 0.555,0.064 0.773,0.192 0.207,0.109 0.373,0.251 0.497,0.426 0.162,0.183 0.273,0.422 0.333,0.718 C 3.349,-1.402 3.377,-0.836 3.377,0 3.377,0.836 3.349,1.406 3.292,1.709 3.232,1.997 3.121,2.232 2.959,2.415 2.835,2.59 2.669,2.736 2.462,2.852 2.244,2.965 1.986,3.025 1.689,3.033 1.395,3.025 1.143,2.965 0.932,2.852 0.717,2.736 0.544,2.59 0.412,2.415 0.25,2.232 0.143,1.997 0.09,1.709 0.03,1.406 0,0.836 0,0 m -1.245,0 c 0,0.988 0.028,1.649 0.085,1.983 0.06,0.335 0.152,0.605 0.276,0.811 0.199,0.39 0.519,0.738 0.958,1.044 C 0.506,4.147 1.045,4.305 1.691,4.313 2.345,4.305 2.89,4.146 3.326,3.836 3.758,3.529 4.069,3.18 4.261,2.788 4.4,2.582 4.496,2.313 4.548,1.979 4.597,1.645 4.622,0.986 4.622,0 4.622,-0.97 4.597,-1.626 4.548,-1.967 4.496,-2.309 4.4,-2.582 4.261,-2.788 4.069,-3.18 3.757,-3.525 3.325,-3.824 2.89,-4.135 2.345,-4.297 1.691,-4.313 c -0.646,0.016 -1.185,0.178 -1.617,0.489 -0.44,0.299 -0.759,0.644 -0.958,1.036 -0.06,0.128 -0.114,0.25 -0.163,0.367 -0.045,0.12 -0.083,0.271 -0.113,0.454 C -1.217,-1.626 -1.245,-0.97 -1.245,0" /></g><g
           transform="translate(199.7511,217.5024)"
           id="g440"><path
             id="path442"
             style="fill:#292929;fill-opacity:1;fill-rule:nonzero;stroke:none"
             d="M 0,0 H 1.173 L 4.896,-6.033 H 4.919 V 0 H 6.163 V -8.486 H 4.984 L 1.267,-2.453 H 1.245 V -8.486 H 0 Z" /></g><g
           transform="translate(54.7568,198.2756)"
           id="g444"><path
             id="path446"
             style="fill:#292929;fill-opacity:1;fill-rule:nonzero;stroke:none"
             d="M 0,0 H 1.847 C 2.311,0.008 2.659,0.156 2.892,0.444 3.115,0.725 3.226,1.037 3.226,1.38 3.226,1.665 3.181,1.904 3.09,2.099 2.996,2.275 2.864,2.413 2.695,2.515 2.439,2.682 2.141,2.762 1.802,2.754 H 0 Z m -1.245,3.964 h 2.98 C 2.059,3.964 2.371,3.933 2.672,3.871 2.973,3.79 3.278,3.623 3.586,3.371 3.845,3.181 4.055,2.909 4.217,2.556 4.386,2.214 4.47,1.811 4.47,1.345 4.47,0.717 4.256,0.145 3.827,-0.372 3.387,-0.915 2.743,-1.194 1.896,-1.21 H 0 v -3.312 h -1.245 z" /></g><g
           transform="translate(65.0985,202.2399)"
           id="g448"><path
             id="path450"
             style="fill:#292929;fill-opacity:1;fill-rule:nonzero;stroke:none"
             d="M 0,0 H 5.251 V -1.21 H 1.245 v -2.428 h 3.42 v -1.14 h -3.42 v -2.498 h 4.006 v -1.21 H 0 Z" /></g><g
           transform="translate(78.1326,198.52)"
           id="g452"><path
             id="path454"
             style="fill:#292929;fill-opacity:1;fill-rule:nonzero;stroke:none"
             d="M 0,0 H 1.888 C 2.355,0.008 2.706,0.148 2.939,0.42 3.169,0.673 3.284,0.984 3.284,1.354 3.276,1.798 3.139,2.119 2.871,2.317 2.66,2.492 2.355,2.58 1.956,2.58 H 0 Z M -1.245,3.72 H 1.967 C 2.652,3.72 3.211,3.534 3.644,3.161 4.164,2.738 4.436,2.135 4.459,1.351 4.444,0.199 3.915,-0.585 2.871,-1.001 L 4.774,-4.767 H 3.295 L 1.594,-1.14 H 0 v -3.627 h -1.245 z" /></g><g
           transform="translate(88.9931,202.2399)"
           id="g456"><path
             id="path458"
             style="fill:#292929;fill-opacity:1;fill-rule:nonzero;stroke:none"
             d="M 0,0 H 1.245 V -4.371 H 1.269 L 4.653,0 H 6.131 L 3.497,-3.347 6.408,-8.486 H 4.929 L 2.689,-4.337 1.245,-5.902 V -8.486 H 0 Z" /></g><path
           id="path460"
           style="fill:#292929;fill-opacity:1;fill-rule:nonzero;stroke:none"
           d="m 100.981,202.24 h 1.245 v -8.486 h -1.245 z" /><g
           transform="translate(108.8619,202.2399)"
           id="g462"><path
             id="path464"
             style="fill:#292929;fill-opacity:1;fill-rule:nonzero;stroke:none"
             d="M 0,0 H 1.173 L 4.896,-6.033 H 4.919 V 0 H 6.163 V -8.486 H 4.984 L 1.267,-2.453 H 1.245 V -8.486 H 0 Z" /></g><g
           transform="translate(120.7306,195.8094)"
           id="g466"><path
             id="path468"
             style="fill:#292929;fill-opacity:1;fill-rule:nonzero;stroke:none"
             d="m 0,0 c 0.654,-0.556 1.433,-0.838 2.336,-0.846 1.068,0.016 1.61,0.41 1.625,1.183 C 3.969,0.97 3.612,1.35 2.89,1.479 2.559,1.525 2.196,1.578 1.801,1.636 c -0.707,0.12 -1.244,0.39 -1.612,0.81 -0.38,0.431 -0.57,0.955 -0.57,1.573 0,0.741 0.238,1.34 0.715,1.794 C 0.796,6.263 1.451,6.493 2.3,6.5 3.322,6.477 4.21,6.185 4.964,5.624 L 4.271,4.567 C 3.654,4.987 2.975,5.205 2.234,5.22 1.851,5.22 1.531,5.121 1.275,4.923 1.008,4.717 0.871,4.411 0.863,4.003 0.863,3.758 0.955,3.537 1.14,3.339 1.324,3.137 1.619,2.997 2.025,2.919 2.251,2.88 2.559,2.836 2.95,2.785 3.721,2.676 4.29,2.391 4.658,1.929 5.023,1.474 5.206,0.946 5.206,0.344 5.164,-1.279 4.203,-2.102 2.321,-2.126 c -1.217,0 -2.263,0.386 -3.138,1.159 z" /></g><g
           transform="translate(135.373,202.2387)"
           id="g470"><path
             id="path472"
             style="fill:#29afb5;fill-opacity:1;fill-rule:nonzero;stroke:none"
             d="m 0,0 h 0.895 v -3.775 h 3.791 v -0.93 H 0.895 V -8.484 H 0 v 3.779 h -3.8 v 0.93 H 0 Z" /></g><g
           transform="translate(145.2662,202.2399)"
           id="g474"><path
             id="path476"
             style="fill:#292929;fill-opacity:1;fill-rule:nonzero;stroke:none"
             d="m 0,0 h 1.314 l 1.29,-6.033 H 2.627 L 4.222,0 h 0.902 l 1.59,-6.033 H 6.737 L 8.033,0 H 9.347 L 7.295,-8.486 H 6.252 l -1.567,6.12 H 4.662 L 3.089,-8.486 H 2.052 Z" /></g><path
           id="path478"
           style="fill:#292929;fill-opacity:1;fill-rule:nonzero;stroke:none"
           d="m 159.505,202.24 h 1.245 v -8.486 h -1.245 z" /><g
           transform="translate(167.387,202.2399)"
           id="g480"><path
             id="path482"
             style="fill:#292929;fill-opacity:1;fill-rule:nonzero;stroke:none"
             d="m 0,0 h 1.245 v -7.276 h 4.006 v -1.21 H 0 Z" /></g><g
           transform="translate(178.3463,202.2399)"
           id="g484"><path
             id="path486"
             style="fill:#292929;fill-opacity:1;fill-rule:nonzero;stroke:none"
             d="m 0,0 h 1.245 v -7.276 h 4.006 v -1.21 H 0 Z" /></g><g
           transform="translate(257.2158,204.0881)"
           id="g488"><path
             id="path490"
             style="fill:#dd3539;fill-opacity:1;fill-rule:nonzero;stroke:none"
             d="m 0,0 c 0,-0.117 0.01,-0.225 0.039,-0.333 0.118,-0.49 0.549,-0.843 1.059,-0.843 0.764,0 1.215,0.637 1.215,1.578 0,0.843 -0.412,1.529 -1.186,1.529 -0.5,0 -0.96,-0.363 -1.078,-0.892 C 0.02,0.941 0,0.833 0,0.735 Z m -1.206,1.186 c 0,0.627 -0.019,1.137 -0.039,1.588 h 1.059 l 0.059,-0.735 h 0.019 c 0.353,0.539 0.912,0.843 1.637,0.843 1.098,0 2.009,-0.941 2.009,-2.431 0,-1.725 -1.088,-2.558 -2.176,-2.558 -0.597,0 -1.097,0.255 -1.342,0.637 H 0 v -2.47 h -1.206 z" /></g><g
           transform="translate(264.4489,204.8722)"
           id="g492"><path
             id="path494"
             style="fill:#dd3539;fill-opacity:1;fill-rule:nonzero;stroke:none"
             d="m 0,0 c 0,0.098 -0.01,0.216 -0.029,0.314 -0.108,0.47 -0.49,0.853 -1.039,0.853 -0.774,0 -1.206,-0.687 -1.206,-1.579 0,-0.872 0.432,-1.509 1.196,-1.509 0.49,0 0.921,0.333 1.039,0.853 C -0.01,-0.96 0,-0.843 0,-0.715 Z M 1.206,4.176 V -1.44 c 0,-0.491 0.019,-1.02 0.039,-1.343 H 0.167 l -0.05,0.754 H 0.098 c -0.284,-0.529 -0.863,-0.862 -1.558,-0.862 -1.137,0 -2.039,0.97 -2.039,2.44 -0.01,1.598 0.99,2.549 2.137,2.549 0.656,0 1.127,-0.275 1.342,-0.628 H 0 v 2.706 z" /></g><g
           transform="translate(267.6014,204.0881)"
           id="g496"><path
             id="path498"
             style="fill:#dd3539;fill-opacity:1;fill-rule:nonzero;stroke:none"
             d="m 0,0 c 0,-0.117 0.01,-0.225 0.039,-0.333 0.118,-0.49 0.549,-0.843 1.059,-0.843 0.764,0 1.215,0.637 1.215,1.578 0,0.843 -0.412,1.529 -1.186,1.529 -0.5,0 -0.96,-0.363 -1.078,-0.892 C 0.02,0.941 0,0.833 0,0.735 Z m -1.206,1.186 c 0,0.627 -0.019,1.137 -0.039,1.588 h 1.059 l 0.059,-0.735 h 0.019 c 0.353,0.539 0.912,0.843 1.637,0.843 1.098,0 2.009,-0.941 2.009,-2.431 0,-1.725 -1.088,-2.558 -2.176,-2.558 -0.597,0 -1.097,0.255 -1.342,0.637 H 0 v -2.47 h -1.206 z" /></g><g
           transform="translate(275.7062,204.4216)"
           id="g500"><path
             id="path502"
             style="fill:#dd3539;fill-opacity:1;fill-rule:nonzero;stroke:none"
             d="m 0,0 c -0.853,0.02 -1.666,-0.167 -1.666,-0.892 0,-0.47 0.304,-0.686 0.686,-0.686 0.48,0 0.833,0.314 0.941,0.657 C -0.01,-0.833 0,-0.735 0,-0.657 Z m 0.157,-2.333 -0.078,0.53 h -0.03 c -0.294,-0.373 -0.794,-0.638 -1.411,-0.638 -0.961,0 -1.5,0.696 -1.5,1.422 0,1.205 1.069,1.813 2.833,1.803 v 0.078 c 0,0.314 -0.128,0.834 -0.97,0.834 -0.471,0 -0.961,-0.148 -1.284,-0.353 l -0.236,0.784 c 0.353,0.215 0.971,0.421 1.725,0.421 1.529,0 1.97,-0.97 1.97,-2.009 v -1.725 c 0,-0.431 0.02,-0.853 0.069,-1.147 z" /></g><g
           transform="translate(277.5898,205.3231)"
           id="g504"><path
             id="path506"
             style="fill:#dd3539;fill-opacity:1;fill-rule:nonzero;stroke:none"
             d="M 0,0 C 0,0.647 -0.01,1.108 -0.039,1.539 H 1.01 L 1.049,0.627 h 0.039 c 0.235,0.676 0.794,1.02 1.304,1.02 0.117,0 0.186,-0.01 0.284,-0.03 V 0.48 C 2.578,0.5 2.47,0.519 2.323,0.519 1.744,0.519 1.353,0.147 1.245,-0.392 1.225,-0.5 1.206,-0.627 1.206,-0.765 V -3.234 H 0 Z" /></g><g
           transform="translate(284.0263,202.2357)"
           id="g508"><path
             id="path510"
             style="fill:#dd3539;fill-opacity:1;fill-rule:nonzero;stroke:none"
             d="m 0,0 c -0.255,-0.117 -0.755,-0.245 -1.352,-0.245 -1.49,0 -2.461,0.951 -2.461,2.431 0,1.431 0.98,2.548 2.656,2.548 0.441,0 0.892,-0.098 1.167,-0.225 L -0.206,3.607 c -0.196,0.088 -0.48,0.186 -0.911,0.186 -0.922,0 -1.47,-0.676 -1.461,-1.548 0,-0.981 0.637,-1.539 1.461,-1.539 0.421,0 0.715,0.088 0.95,0.186 z" /></g><g
           transform="translate(284.3484,209.0477)"
           id="g512"><path
             id="path514"
             style="fill:#dd3539;fill-opacity:1;fill-rule:nonzero;stroke:none"
             d="m 0,0 h 1.216 v -2.842 h 0.019 c 0.147,0.225 0.343,0.411 0.598,0.548 0.235,0.138 0.519,0.216 0.823,0.216 0.813,0 1.666,-0.539 1.666,-2.068 V -6.959 H 3.117 v 2.676 c 0,0.696 -0.255,1.215 -0.922,1.215 -0.47,0 -0.803,-0.314 -0.931,-0.676 C 1.225,-3.842 1.216,-3.969 1.216,-4.107 V -6.959 H 0 Z" /></g><path
           id="path516"
           style="fill:#dd3539;fill-opacity:1;fill-rule:nonzero;stroke:none"
           d="m 289.375,206.862 h 1.216 v -4.773 h -1.216 z m 1.284,1.333 c 0,-0.363 -0.265,-0.647 -0.686,-0.647 -0.402,0 -0.666,0.284 -0.666,0.647 0,0.372 0.274,0.656 0.676,0.656 0.411,0 0.666,-0.284 0.676,-0.656" /><g
           transform="translate(292.6994,208.2242)"
           id="g518"><path
             id="path520"
             style="fill:#dd3539;fill-opacity:1;fill-rule:nonzero;stroke:none"
             d="M 0,0 V -1.362 H 1.147 V -2.264 H 0 v -2.107 c 0,-0.578 0.157,-0.882 0.618,-0.882 0.205,0 0.362,0.029 0.47,0.059 l 0.02,-0.922 c -0.177,-0.068 -0.49,-0.117 -0.873,-0.117 -0.441,0 -0.813,0.147 -1.039,0.392 -0.254,0.274 -0.372,0.705 -0.372,1.333 v 2.244 h -0.686 v 0.902 h 0.686 v 1.078 z" /></g><g
           transform="translate(297.0822,204.98)"
           id="g522"><path
             id="path524"
             style="fill:#dd3539;fill-opacity:1;fill-rule:nonzero;stroke:none"
             d="M 0,0 C 0.01,0.441 -0.186,1.167 -0.99,1.167 -1.735,1.167 -2.048,0.49 -2.097,0 Z m -2.097,-0.843 c 0.029,-0.862 0.706,-1.235 1.47,-1.235 0.559,0 0.961,0.079 1.323,0.216 l 0.176,-0.833 c -0.411,-0.167 -0.98,-0.294 -1.666,-0.294 -1.548,0 -2.46,0.95 -2.46,2.411 0,1.323 0.804,2.568 2.333,2.568 1.548,0 2.058,-1.274 2.058,-2.323 0,-0.225 -0.019,-0.402 -0.039,-0.51 z" /></g><g
           transform="translate(302.2148,202.2357)"
           id="g526"><path
             id="path528"
             style="fill:#dd3539;fill-opacity:1;fill-rule:nonzero;stroke:none"
             d="m 0,0 c -0.255,-0.117 -0.755,-0.245 -1.352,-0.245 -1.49,0 -2.461,0.951 -2.461,2.431 0,1.431 0.98,2.548 2.656,2.548 0.441,0 0.892,-0.098 1.167,-0.225 L -0.206,3.607 c -0.196,0.088 -0.48,0.186 -0.911,0.186 -0.922,0 -1.47,-0.676 -1.461,-1.548 0,-0.981 0.637,-1.539 1.461,-1.539 0.421,0 0.715,0.088 0.95,0.186 z" /></g><g
           transform="translate(304.1375,208.2242)"
           id="g530"><path
             id="path532"
             style="fill:#dd3539;fill-opacity:1;fill-rule:nonzero;stroke:none"
             d="M 0,0 V -1.362 H 1.147 V -2.264 H 0 v -2.107 c 0,-0.578 0.157,-0.882 0.618,-0.882 0.205,0 0.362,0.029 0.47,0.059 l 0.02,-0.922 c -0.177,-0.068 -0.49,-0.117 -0.873,-0.117 -0.441,0 -0.813,0.147 -1.039,0.392 -0.254,0.274 -0.372,0.705 -0.372,1.333 v 2.244 h -0.686 v 0.902 h 0.686 v 1.078 z" /></g><g
           transform="translate(309.8683,203.5197)"
           id="g534"><path
             id="path536"
             style="fill:#dd3539;fill-opacity:1;fill-rule:nonzero;stroke:none"
             d="m 0,0 c 0,-0.568 0.02,-1.039 0.039,-1.431 h -1.058 l -0.059,0.725 h -0.02 c -0.205,-0.343 -0.676,-0.833 -1.529,-0.833 -0.872,0 -1.666,0.52 -1.666,2.078 v 2.803 h 1.206 V 0.745 c 0,-0.794 0.254,-1.303 0.892,-1.303 0.48,0 0.793,0.342 0.921,0.646 0.039,0.108 0.068,0.236 0.068,0.373 v 2.881 l 1.206,0 z" /></g><g
           transform="translate(310.6137,205.3231)"
           id="g538"><path
             id="path540"
             style="fill:#dd3539;fill-opacity:1;fill-rule:nonzero;stroke:none"
             d="M 0,0 C 0,0.647 -0.01,1.108 -0.039,1.539 H 1.01 L 1.049,0.627 h 0.039 c 0.235,0.676 0.794,1.02 1.304,1.02 0.117,0 0.186,-0.01 0.284,-0.03 V 0.48 C 2.578,0.5 2.47,0.519 2.323,0.519 1.745,0.519 1.352,0.147 1.245,-0.392 1.225,-0.5 1.206,-0.627 1.206,-0.765 V -3.234 H 0 Z" /></g><g
           transform="translate(316.5006,204.98)"
           id="g542"><path
             id="path544"
             style="fill:#dd3539;fill-opacity:1;fill-rule:nonzero;stroke:none"
             d="M 0,0 C 0.01,0.441 -0.186,1.167 -0.99,1.167 -1.735,1.167 -2.048,0.49 -2.097,0 Z m -2.097,-0.843 c 0.029,-0.862 0.706,-1.235 1.47,-1.235 0.559,0 0.961,0.079 1.323,0.216 l 0.176,-0.833 c -0.411,-0.167 -0.979,-0.294 -1.666,-0.294 -1.548,0 -2.46,0.95 -2.46,2.411 0,1.323 0.804,2.568 2.333,2.568 1.548,0 2.058,-1.274 2.058,-2.323 0,-0.225 -0.019,-0.402 -0.039,-0.51 z" /></g><path
           id="path546"
           style="fill:#dd3539;fill-opacity:1;fill-rule:nonzero;stroke:none"
           d="m 319.656,209.048 h 1.216 v -6.959 h -1.216 z" /><path
           id="path548"
           style="fill:#dd3539;fill-opacity:1;fill-rule:nonzero;stroke:none"
           d="m 321.598,209.048 h 1.216 v -6.959 h -1.216 z" /><g
           transform="translate(324.7534,204.0881)"
           id="g550"><path
             id="path552"
             style="fill:#dd3539;fill-opacity:1;fill-rule:nonzero;stroke:none"
             d="m 0,0 c 0,-0.117 0.01,-0.225 0.039,-0.333 0.118,-0.49 0.549,-0.843 1.059,-0.843 0.764,0 1.215,0.637 1.215,1.578 0,0.843 -0.412,1.529 -1.186,1.529 -0.5,0 -0.96,-0.363 -1.078,-0.892 C 0.02,0.941 0,0.833 0,0.735 Z m -1.206,1.186 c 0,0.627 -0.019,1.137 -0.039,1.588 h 1.059 l 0.059,-0.735 h 0.019 c 0.353,0.539 0.912,0.843 1.637,0.843 1.098,0 2.009,-0.941 2.009,-2.431 0,-1.725 -1.088,-2.558 -2.176,-2.558 -0.597,0 -1.097,0.255 -1.342,0.637 H 0 v -2.47 h -1.206 z" /></g><g
           transform="translate(302.6972,267.1403)"
           id="g554"><path
             id="path556"
             style="fill:#dd3539;fill-opacity:1;fill-rule:nonzero;stroke:none"
             d="m 0,0 v -15.996 c 0.003,-0.075 0.003,-0.15 0.006,-0.225 H 13.584 C 13.241,-8.265 7.543,-1.673 0,0" /></g><g
           transform="translate(267.9484,267.1403)"
           id="g558"><path
             id="path560"
             style="fill:#dd3539;fill-opacity:1;fill-rule:nonzero;stroke:none"
             d="M 0,0 V -16.221 H 13.584 C 13.241,-8.265 7.543,-1.673 0,0" /></g><g
           transform="translate(282.3196,250.165)"
           id="g562"><path
             id="path564"
             style="fill:#dd3539;fill-opacity:1;fill-rule:nonzero;stroke:none"
             d="m 0,0 v -17.368 c 8.953,0.382 16.142,7.514 16.608,16.444 V 0.565 C 16.349,8.606 10.618,15.289 3.016,16.975 V 0 Z m -14.371,0 v -21.156 h -3.77 v 42.312 c 7.206,0 13.567,-3.605 17.387,-9.108 v 9.108 c 7.191,0 13.539,-3.59 17.362,-9.073 v 9.073 C 28.292,21.156 37.764,11.684 37.764,0 H 20.402 c 0,-0.328 -0.024,-21.156 -0.024,-21.156 h -3.77 v 9.073 C 12.785,-17.566 6.437,-21.156 -0.754,-21.156 V 0 Z m -11.977,-36.16 h 72.32 v 72.32 h -72.32 z" /></g><g
           transform="translate(268.8975,91.7784)"
           id="g566"><path
             id="path568"
             style="fill:#2d5ba4;fill-opacity:1;fill-rule:nonzero;stroke:none"
             d="m 0,0 c 1.24,0 2.479,0.418 3.486,1.147 v 1.611 c -0.929,-0.93 -2.215,-1.55 -3.533,-1.55 -2.618,0 -4.741,2.263 -4.741,4.835 0,2.572 2.107,4.834 4.711,4.834 1.348,0 2.634,-0.589 3.563,-1.549 v 1.611 C 2.448,11.714 1.301,12.086 0,12.086 -3.347,12.086 -6.09,9.343 -6.09,5.996 -6.09,2.681 -3.3,0 0,0" /></g><g
           transform="translate(281.9176,102.6556)"
           id="g570"><path
             id="path572"
             style="fill:#2d5ba4;fill-opacity:1;fill-rule:nonzero;stroke:none"
             d="m 0,0 c 2.681,0 4.788,-2.185 4.788,-4.834 0,-2.634 -2.139,-4.835 -4.788,-4.835 -2.65,0 -4.788,2.201 -4.788,4.835 C -4.788,-2.185 -2.681,0 0,0 m 0,-10.877 c 3.331,0 6.089,2.665 6.089,6.027 0,3.347 -2.758,6.059 -6.089,6.059 -3.332,0 -6.09,-2.712 -6.09,-6.059 0,-3.362 2.758,-6.027 6.09,-6.027" /></g><g
           transform="translate(293.0671,100.9824)"
           id="g574"><path
             id="path576"
             style="fill:#2d5ba4;fill-opacity:1;fill-rule:nonzero;stroke:none"
             d="M 0,0 9.111,-9.53 V 2.681 H 7.809 v -9.05 L -1.302,3.176 V -9.003 H 0 Z" /></g><g
           transform="translate(309.8345,92.9869)"
           id="g578"><path
             id="path580"
             style="fill:#2d5ba4;fill-opacity:1;fill-rule:nonzero;stroke:none"
             d="M 0,0 C -1.255,0 -2.169,0.976 -2.34,2.169 L -3.61,1.813 C -3.238,0 -1.844,-1.208 0.031,-1.208 c 2.03,0 3.672,1.564 3.672,3.61 0,1.859 -1.286,2.619 -2.804,3.285 L 0.124,6.028 c -0.79,0.356 -1.828,0.821 -1.828,1.828 0,1.069 0.898,1.813 1.937,1.813 0.991,0 1.549,-0.465 2.014,-1.271 l 1.038,0.666 c -0.62,1.147 -1.72,1.814 -3.021,1.814 -1.736,0 -3.27,-1.163 -3.27,-2.975 0,-1.674 1.178,-2.371 2.541,-2.991 L 0.248,4.602 C 1.333,4.106 2.402,3.641 2.402,2.278 2.402,0.961 1.255,0 0,0" /></g><g
           transform="translate(319.0662,91.9798)"
           id="g582"><path
             id="path584"
             style="fill:#2d5ba4;fill-opacity:1;fill-rule:nonzero;stroke:none"
             d="m 0,0 h 1.301 v 10.474 h 2.852 v 1.209 H -2.82 V 10.474 H 0 Z" /></g><g
           transform="translate(327.8526,102.4541)"
           id="g586"><path
             id="path588"
             style="fill:#2d5ba4;fill-opacity:1;fill-rule:nonzero;stroke:none"
             d="m 0,0 h 0.387 c 1.565,0 2.975,-0.186 2.975,-2.107 0,-1.813 -1.487,-2.092 -2.959,-2.092 H 0 Z m 0,-5.346 h 0.326 l 3.532,-5.128 h 1.596 l -3.719,5.237 c 1.798,0.155 2.929,1.425 2.929,3.223 0,2.634 -2.061,3.223 -4.277,3.223 H -1.301 V -10.474 H 0 Z" /></g><g
           transform="translate(341.243,91.7784)"
           id="g590"><path
             id="path592"
             style="fill:#2d5ba4;fill-opacity:1;fill-rule:nonzero;stroke:none"
             d="m 0,0 c 1.178,0 2.34,0.465 3.146,1.333 0.929,0.96 1.022,1.968 1.022,3.238 v 7.314 H 2.867 V 4.927 C 2.867,4.013 2.913,2.99 2.293,2.247 1.751,1.596 0.837,1.208 0,1.208 c -0.852,0 -1.844,0.403 -2.355,1.116 -0.542,0.744 -0.512,1.736 -0.512,2.603 v 6.958 H -4.168 V 4.571 c 0,-1.333 0.124,-2.402 1.147,-3.378 C -2.231,0.418 -1.1,0 0,0" /></g><g
           transform="translate(354.9016,91.7784)"
           id="g594"><path
             id="path596"
             style="fill:#2d5ba4;fill-opacity:1;fill-rule:nonzero;stroke:none"
             d="m 0,0 c 1.24,0 2.479,0.418 3.486,1.147 v 1.611 c -0.929,-0.93 -2.215,-1.55 -3.533,-1.55 -2.618,0 -4.741,2.263 -4.741,4.835 0,2.572 2.107,4.834 4.711,4.834 1.348,0 2.634,-0.589 3.563,-1.549 v 1.611 C 2.448,11.714 1.301,12.086 0,12.086 -3.347,12.086 -6.089,9.343 -6.089,5.996 -6.089,2.681 -3.3,0 0,0" /></g><g
           transform="translate(364.5493,91.9798)"
           id="g598"><path
             id="path600"
             style="fill:#2d5ba4;fill-opacity:1;fill-rule:nonzero;stroke:none"
             d="m 0,0 h 1.301 v 10.474 h 2.852 v 1.209 H -2.82 V 10.474 H 0 Z" /></g><path
           id="path602"
           style="fill:#2d5ba4;fill-opacity:1;fill-rule:nonzero;stroke:none"
           d="m 373.367,103.663 h -1.302 V 91.98 h 1.302 z" /><g
           transform="translate(383.1815,102.6556)"
           id="g604"><path
             id="path606"
             style="fill:#2d5ba4;fill-opacity:1;fill-rule:nonzero;stroke:none"
             d="m 0,0 c 2.681,0 4.788,-2.185 4.788,-4.834 0,-2.634 -2.139,-4.835 -4.788,-4.835 -2.65,0 -4.788,2.201 -4.788,4.835 C -4.788,-2.185 -2.681,0 0,0 m 0,-10.877 c 3.331,0 6.089,2.665 6.089,6.027 0,3.347 -2.758,6.059 -6.089,6.059 -3.331,0 -6.09,-2.712 -6.09,-6.059 0,-3.362 2.759,-6.027 6.09,-6.027" /></g><g
           transform="translate(394.3062,100.9824)"
           id="g608"><path
             id="path610"
             style="fill:#2d5ba4;fill-opacity:1;fill-rule:nonzero;stroke:none"
             d="M 0,0 9.111,-9.53 V 2.681 H 7.809 v -9.05 L -1.302,3.176 V -9.003 H 0 Z" /></g><g
           transform="translate(385.2501,127.1751)"
           id="g612"><path
             id="path614"
             style="fill:#2d5ba4;fill-opacity:1;fill-rule:nonzero;stroke:none"
             d="M 0,0 C 2.275,0 3.837,1.792 3.837,3.998 3.837,6.18 2.275,7.996 0,7.996 -2.275,7.996 -3.837,6.18 -3.837,3.998 -3.837,1.792 -2.275,0 0,0" /></g><g
           transform="translate(346.5956,127.2208)"
           id="g616"><path
             id="path618"
             style="fill:#2d5ba4;fill-opacity:1;fill-rule:nonzero;stroke:none"
             d="M 0,0 C 1.746,0 3.263,1.356 4.504,2.435 L 0.643,7.399 -0.184,6.847 C -1.493,5.951 -3.056,4.894 -3.056,3.125 -3.056,1.494 -1.631,0 0,0" /></g><g
           transform="translate(316.4149,127.1751)"
           id="g620"><path
             id="path622"
             style="fill:#2d5ba4;fill-opacity:1;fill-rule:nonzero;stroke:none"
             d="M 0,0 C 2.275,0 3.837,1.792 3.837,3.998 3.837,6.18 2.275,7.996 0,7.996 -2.275,7.996 -3.837,6.18 -3.837,3.998 -3.837,1.792 -2.275,0 0,0" /></g><g
           transform="translate(347.6984,137.0779)"
           id="g624"><path
             id="path626"
             style="fill:#2d5ba4;fill-opacity:1;fill-rule:nonzero;stroke:none"
             d="m 0,0 0.161,0.115 c 0.988,0.758 2.16,1.424 2.16,2.803 0,1.057 -0.873,1.769 -1.884,1.769 -1.057,0 -1.907,-0.827 -1.907,-1.907 0,-0.873 0.574,-1.517 1.057,-2.206 z" /></g><g
           transform="translate(289.2386,127.1751)"
           id="g628"><path
             id="path630"
             style="fill:#2d5ba4;fill-opacity:1;fill-rule:nonzero;stroke:none"
             d="m 0,0 c 2.367,0 3.608,1.907 3.608,4.09 0,2.16 -1.356,3.906 -3.631,3.906 -2.137,0 -3.515,-1.861 -3.515,-3.883 C -3.538,1.999 -2.298,0 0,0" /></g><path
           id="path632"
           style="fill:#2d5ba4;fill-opacity:1;fill-rule:nonzero;stroke:none"
           d="M 407.545,79.535 H 256.8 v 36.03 h 150.745 z m -144.598,63.563 4.549,-12.982 5.607,13.878 5.606,-13.878 4.549,12.982 h 2.091 l -6.64,-18.221 -5.606,13.947 -5.607,-13.947 -6.64,18.221 z m 26.062,-6.227 c 1.47,0 2.803,-0.689 3.699,-1.838 h 0.046 v 1.539 h 1.838 v -10.799 h -1.838 v 1.494 h -0.046 c -0.942,-1.195 -2.206,-1.793 -3.722,-1.793 -3.171,0 -5.17,2.689 -5.17,5.676 0,3.079 1.953,5.721 5.193,5.721 m 7.898,-0.299 h 1.126 v 3.883 h 1.838 v -3.883 h 1.93 v -1.7 h -1.93 v -9.099 h -1.838 v 9.099 h -1.126 z m 5.924,-2.757 c 0,1.815 1.471,3.056 3.217,3.056 1.241,0 2.39,-0.873 2.873,-1.999 l -1.54,-0.804 c -0.253,0.574 -0.804,1.103 -1.471,1.103 -0.643,0 -1.332,-0.506 -1.332,-1.195 0,-0.988 1.241,-1.356 2.504,-1.884 1.264,-0.528 2.505,-1.287 2.505,-3.102 0,-2.045 -1.654,-3.516 -3.654,-3.516 -1.815,0 -3.239,1.035 -3.814,2.735 l 1.632,0.689 c 0.459,-1.011 0.988,-1.723 2.205,-1.723 0.988,0 1.746,0.666 1.746,1.654 0,2.413 -4.871,1.586 -4.871,4.986 m 13.584,3.056 c 3.171,0 5.675,-2.55 5.675,-5.721 0,-3.171 -2.527,-5.676 -5.675,-5.676 -3.148,0 -5.675,2.505 -5.675,5.676 0,3.171 2.504,5.721 5.675,5.721 m 7.779,-0.299 h 1.839 v -1.309 h 0.045 c 0.758,1.034 1.747,1.608 3.079,1.608 2.987,0 3.676,-2.16 3.676,-4.687 v -6.411 h -1.838 v 6.089 c 0,1.746 -0.138,3.309 -2.274,3.309 -2.528,0 -2.688,-2.344 -2.688,-4.274 v -5.124 h -1.839 z m 21.712,-0.666 0.207,0.138 c -0.781,1.08 -1.723,2.252 -1.723,3.676 0,2.183 1.631,3.676 3.791,3.676 1.953,0 3.676,-1.378 3.676,-3.4 0,-2.068 -1.562,-3.194 -3.056,-4.32 l 3.654,-4.664 1.953,2.275 1.401,-1.149 -2.206,-2.574 2.941,-3.791 h -2.435 l -1.861,2.436 c -1.539,-1.379 -3.378,-2.735 -5.538,-2.735 -2.642,0 -5.054,1.977 -5.054,4.734 0,2.895 2.091,4.274 4.25,5.698 m 27.038,7.49 c 1.93,0 3.63,-0.551 5.17,-1.7 v -2.389 c -1.379,1.424 -3.286,2.297 -5.285,2.297 -3.86,0 -6.985,-3.354 -6.985,-7.169 0,-3.814 3.148,-7.168 7.031,-7.168 1.953,0 3.86,0.919 5.239,2.297 v -2.389 c -1.494,-1.08 -3.332,-1.701 -5.17,-1.701 -4.894,0 -9.03,3.976 -9.03,8.893 0,4.962 4.067,9.029 9.03,9.029 m 12.306,-6.525 c 3.171,0 5.675,-2.55 5.675,-5.721 0,-3.171 -2.527,-5.676 -5.675,-5.676 -3.148,0 -5.675,2.505 -5.675,5.676 0,3.171 2.504,5.721 5.675,5.721 m 6.748,-0.299 h 2.252 l 2.826,-3.676 2.826,3.676 h 2.298 l -3.953,-5.055 4.481,-5.744 h -2.229 l -3.423,4.389 -3.447,-4.389 h -2.297 l 4.595,5.744 z M 255.971,78.707 h 152.402 v 73.716 H 255.971 Z" /><g
           transform="translate(408.1823,281.5999)"
           id="g634"><path
             id="path636"
             style="fill:#75706d;fill-opacity:1;fill-rule:nonzero;stroke:none"
             d="m 0,0 c -0.025,2.246 -1.795,4.083 -4.038,4.192 l -41.648,2.023 c -2.332,0.113 -4.317,-1.678 -4.444,-4.009 l -4.234,-77.688 c -0.142,-2.595 2.062,-4.707 4.649,-4.456 l 46.674,4.538 c 2.193,0.213 3.858,2.069 3.834,4.272 z" /></g><g
           transform="translate(364.9055,210.313)"
           id="g638"><path
             id="path640"
             style="fill:#ffffff;fill-opacity:1;fill-rule:nonzero;stroke:none"
             d="m 0,0 c 0,0 -0.674,-0.245 -1.348,-0.306 -0.613,-0.055 -1.491,0.073 -1.491,1.341 0,1.221 0.531,1.453 1.205,1.629 L 0,3.111 Z M 2.328,9.45 C 1.613,9.847 0.572,9.983 -0.838,9.856 -3.145,9.649 -5.147,8.754 -5.514,8.56 -5.657,8.478 -5.78,8.375 -5.78,8.145 c 0,-0.047 0,-0.093 0.021,-0.137 l 0.367,-1.81 C -5.371,6.061 -5.29,6 -5.167,6.01 c 0.061,0.006 0.102,0.01 0.163,0.038 0.409,0.175 2.042,0.829 3.268,0.939 0.572,0.051 1.041,0.025 1.287,-0.115 0.306,-0.156 0.388,-0.471 0.388,-1.025 V 5.433 L -3.492,4.525 c -1.246,-0.32 -3.023,-0.986 -3.023,-3.867 0,-3.549 2.492,-3.786 5.126,-3.549 1.246,0.112 2.185,0.289 3.043,0.574 1.368,0.492 2.083,0.809 2.083,2.63 v 6.268 c 0,1.359 -0.409,2.336 -1.409,2.869" /></g><g
           transform="translate(380.8204,209.2603)"
           id="g642"><path
             id="path644"
             style="fill:#ffffff;fill-opacity:1;fill-rule:nonzero;stroke:none"
             d="m 0,0 -3.941,-0.354 c -0.102,-0.01 -0.225,0.003 -0.286,0.135 l -2.696,4.251 v -4.309 c 0,-0.208 -0.143,-0.359 -0.347,-0.377 l -3.104,-0.279 c -0.204,-0.018 -0.348,0.107 -0.348,0.315 v 15.831 c 0,0.368 0.103,0.608 0.429,0.707 l 2.819,0.737 0.122,0.011 c 0.245,0.022 0.429,-0.076 0.429,-0.422 V 6.82 l 2.92,4.711 c 0.082,0.192 0.184,0.224 0.286,0.233 l 0.102,0.009 3.513,0.247 c 0.143,0.012 0.184,-0.122 0.184,-0.214 0,-0.046 -0.021,-0.071 -0.021,-0.094 L -3.165,5.983 0.163,0.337 C 0.184,0.293 0.184,0.27 0.184,0.247 0.184,0.132 0.102,0.009 0,0" /></g><g
           transform="translate(388.9206,219.3889)"
           id="g646"><path
             id="path648"
             style="fill:#ffffff;fill-opacity:1;fill-rule:nonzero;stroke:none"
             d="m 0,0 c 0,-0.207 -0.143,-0.359 -0.347,-0.377 l -2.89,-0.277 v -4.931 c 0,-0.737 0.123,-1.325 1.144,-1.234 0.612,0.056 1,0.183 1.266,0.252 l 0.082,0.008 c 0.183,0.016 0.224,-0.118 0.265,-0.253 l 0.286,-1.772 c 0.02,-0.067 0.02,-0.136 0.02,-0.205 0,-0.207 -0.081,-0.376 -0.326,-0.467 -0.225,-0.09 -1.144,-0.518 -2.594,-0.649 -2.635,-0.236 -3.982,0.679 -3.982,3.676 V 3.778 c 0,0.369 0.102,0.608 0.429,0.707 l 2.879,0.789 c 0.061,0.006 0.102,0.032 0.143,0.035 0.224,0.021 0.388,-0.103 0.388,-0.425 V 2.365 l 2.89,0.277 C -0.143,2.661 0,2.535 0,2.328 Z" /></g><g
           transform="translate(398.2713,212.9341)"
           id="g650"><path
             id="path652"
             style="fill:#cdd43c;fill-opacity:1;fill-rule:nonzero;stroke:none"
             d="M 0,0 H 0.003 C 0.013,0.001 0.02,-0.002 0.03,-0.002 0.044,-0.003 0.059,-0.003 0.073,-0.006 0.083,-0.009 0.09,-0.014 0.099,-0.019 0.113,-0.025 0.126,-0.031 0.137,-0.04 0.138,-0.041 0.138,-0.042 0.139,-0.043 0.167,-0.067 0.186,-0.1 0.186,-0.139 v -0.019 c 0,-0.005 0.002,-0.009 0.002,-0.014 L 0.184,-1.718 C 0.183,-2.006 -0.038,-2.246 -0.325,-2.271 l -4.68,-0.387 h -0.003 c -0.01,-10e-4 -0.018,0.002 -0.028,0.002 -0.014,0.001 -0.029,0.001 -0.042,0.004 -0.01,0.003 -0.018,0.008 -0.027,0.013 -0.013,0.006 -0.026,0.012 -0.037,0.021 -10e-4,10e-4 -0.002,0.002 -0.002,0.003 -0.029,0.024 -0.048,0.057 -0.047,0.096 V -2.5 c -0.001,0.005 -0.003,0.009 -0.003,0.014 l 0.005,1.555 c 0.001,0.283 0.218,0.519 0.5,0.543 l 0.473,0.039 V 10.845 L -5.005,10.78 h -0.003 c -0.01,-10e-4 -0.018,0.002 -0.028,0.003 -0.014,0 -0.029,0 -0.042,0.003 -0.01,0.003 -0.018,0.009 -0.027,0.013 -0.013,0.006 -0.026,0.012 -0.037,0.021 -10e-4,10e-4 -0.002,0.002 -0.002,0.003 -0.029,0.024 -0.048,0.057 -0.047,0.096 v 0.019 c -0.001,0.005 -0.003,0.009 -0.003,0.014 l 0.005,1.555 c 0.001,0.283 0.218,0.519 0.5,0.543 L 0,13.438 H 0.003 C 0.013,13.439 0.02,13.436 0.03,13.436 0.044,13.435 0.059,13.435 0.073,13.432 0.083,13.429 0.09,13.424 0.099,13.419 0.113,13.413 0.126,13.407 0.137,13.398 0.138,13.397 0.138,13.396 0.139,13.395 0.167,13.371 0.186,13.338 0.186,13.299 V 13.28 c 0,-0.005 0.002,-0.009 0.002,-0.014 L 0.184,11.72 C 0.183,11.432 -0.038,11.192 -0.325,11.167 l -0.39,-0.032 V -0.059 Z" /></g><g
           transform="translate(404.33,213.4789)"
           id="g654"><path
             id="path656"
             style="fill:#cdd43c;fill-opacity:1;fill-rule:nonzero;stroke:none"
             d="M 0,0 H 0.003 C 0.013,0.001 0.02,-0.002 0.03,-0.002 0.044,-0.003 0.059,-0.003 0.073,-0.006 0.083,-0.009 0.09,-0.014 0.099,-0.019 0.113,-0.025 0.126,-0.031 0.137,-0.04 0.138,-0.041 0.138,-0.042 0.139,-0.043 0.167,-0.067 0.186,-0.1 0.186,-0.139 v -0.019 c 0,-0.005 0.002,-0.009 0.002,-0.014 L 0.184,-1.718 C 0.183,-2.006 -0.038,-2.246 -0.325,-2.271 l -4.68,-0.387 h -0.003 c -0.01,-10e-4 -0.018,0.002 -0.028,0.002 -0.014,0.001 -0.029,0.001 -0.042,0.004 -0.01,0.003 -0.018,0.008 -0.027,0.013 -0.013,0.006 -0.026,0.012 -0.037,0.021 -10e-4,10e-4 -0.002,0.002 -0.003,0.003 -0.028,0.024 -0.047,0.057 -0.046,0.096 V -2.5 c -0.001,0.005 -0.003,0.009 -0.003,0.014 l 0.005,1.555 c 0.001,0.283 0.218,0.519 0.5,0.543 l 0.473,0.039 V 10.845 L -5.005,10.78 h -0.003 c -0.01,-10e-4 -0.018,0.002 -0.028,0.003 -0.014,0 -0.029,0 -0.042,0.003 -0.01,0.003 -0.018,0.009 -0.027,0.013 -0.013,0.006 -0.026,0.012 -0.037,0.021 -10e-4,10e-4 -0.002,0.002 -0.003,0.003 -0.028,0.024 -0.047,0.057 -0.046,0.096 v 0.019 c -0.001,0.005 -0.003,0.009 -0.003,0.014 l 0.005,1.555 c 0.001,0.283 0.218,0.519 0.5,0.543 L 0,13.438 H 0.003 C 0.013,13.439 0.02,13.436 0.03,13.436 0.044,13.435 0.059,13.435 0.073,13.432 0.083,13.429 0.09,13.424 0.099,13.419 0.113,13.413 0.126,13.407 0.137,13.398 0.138,13.397 0.138,13.396 0.139,13.395 0.167,13.371 0.186,13.338 0.186,13.299 V 13.28 c 0,-0.005 0.002,-0.009 0.002,-0.014 L 0.184,11.72 C 0.183,11.432 -0.038,11.192 -0.325,11.167 l -0.39,-0.032 V -0.059 Z" /></g></g></g></g></svg>