<svg xmlns="http://www.w3.org/2000/svg" width="1472" height="95.456" viewBox="0 0 1472 95.4562988" enable-background="new 0 0 1472 95.4562988"><style type="text/css">.st0{fill:#434046;} .st1{fill:#C6559A;} .st2{fill:#00B9F2;} .st3{fill:#A2A3A7;} .st4{fill:#1C2652;} .st5{fill:#00ADB3;} .st6{fill:#DE0000;} .st7{fill:#094FA3;} .st8{fill:#6F6A66;} .st9{fill:#FFFFFF;} .st10{fill:#CDD315;}</style><path d="M438.917 25.291c6.6 0 12.926 2.341 14.475 2.956l-2.609 11.011c-1.984-.995-4.451-2.199-8.01-2.816l-.022-.004-.022-.002c-.486-.054-.994-.104-1.459-.104h-.011c-1.142.054-2.186.333-2.878.774-1.024.683-1.177 1.459-1.177 1.86s.198 1.764 2.747 2.459c.628.169 1.327.332 2.066.504 2.298.535 5.158 1.2 7.567 2.497 3.735 1.981 5.611 5.093 5.735 9.493v.409c.046 4.342-1.692 8.054-5.161 11.028-3.473 2.935-7.977 4.447-13.38 4.495h-.297c-7.651-.045-12.886-2.527-14.334-3.455l2.681-11.214.41.212c1.719.891 4.316 2.237 7.546 2.754.592.108 1.193.162 1.786.162 1.211 0 2.325-.223 3.153-.638.368-.196 1.489-.794 1.489-2.148v-.076l-.002-.026c-.091-1.273-1.096-1.834-1.961-2.18-.86-.344-1.91-.573-3.125-.839l-.899-.199c-3.304-.746-6.724-1.699-9.039-4.377-1.113-1.315-1.855-2.717-2.208-4.172-.407-1.628-.488-3.476-.235-5.35.143-1.095.431-2.249.814-3.253.679-1.829 1.826-3.69 2.994-4.857 1.345-1.346 2.655-2.265 4.52-3.172 1.903-.924 4.04-1.347 5.505-1.54.911-.13 1.944-.193 3.163-.193l.178-.001m35.026.1c6.651 0 13.024 2.377 14.51 2.97l-2.592 10.938c-2.11-1.083-4.512-2.151-8.012-2.757l-.026-.004-.026-.003-.15-.015c-.452-.046-.88-.089-1.277-.089-1.195 0-2.225.236-2.913.674-1.024.683-1.177 1.459-1.177 1.86s.198 1.764 2.747 2.459c.592.159 1.246.315 1.938.48 2.335.557 5.24 1.249 7.696 2.571 3.736 1.981 5.612 5.077 5.735 9.443v.409c.046 4.342-1.692 8.054-5.161 11.028-3.473 2.935-7.977 4.447-13.38 4.495h-.297c-7.653-.046-12.888-2.528-14.335-3.456l2.633-11.112.409.211c1.719.891 4.316 2.237 7.545 2.754.592.108 1.193.162 1.786.162 1.211 0 2.325-.223 3.153-.638.368-.196 1.489-.794 1.489-2.148v-.076l-.002-.026c-.091-1.273-1.096-1.834-1.961-2.18-.86-.344-1.91-.573-3.125-.839l-.899-.199c-3.304-.746-6.724-1.699-9.039-4.377-1.113-1.315-1.855-2.717-2.208-4.172-.407-1.628-.488-3.476-.235-5.349.143-1.095.431-2.249.814-3.253.679-1.829 1.826-3.69 2.994-4.857 1.346-1.346 2.655-2.264 4.52-3.172 1.903-.924 4.04-1.347 5.505-1.54.911-.13 1.944-.193 3.163-.193l.178-.001m-52.481 1.004l-11.86 20.434-.197.339.175.351 10.516 21.127h-16.447l-5.939-14.798-1.404-3.498v18.346h-15.405v-42.301h15.405v17.634l1.378-2.729 7.526-14.905h16.252m17.455-1.833l-.183.001c-1.104 0-2.208.05-3.262.201-1.907.251-3.964.753-5.721 1.606-1.857.903-3.262 1.857-4.717 3.312-1.355 1.355-2.509 3.362-3.161 5.118-.401 1.054-.703 2.258-.853 3.412-.251 1.857-.201 3.814.251 5.62.401 1.656 1.255 3.161 2.358 4.466 2.559 2.961 6.323 3.914 9.434 4.617 1.556.351 2.91.602 3.914 1.004 1.004.401 1.455.853 1.505 1.556v.05c0 .652-.351 1.104-1.104 1.505-.703.351-1.706.552-2.81.552-.552 0-1.104-.05-1.656-.151-3.764-.602-6.624-2.358-8.28-3.161l-.301-.15-3.011 12.595.151.1c1.004.753 6.574 3.713 15.004 3.764h.301c5.67-.05 10.287-1.656 13.85-4.667 3.513-3.011 5.47-6.875 5.419-11.592v-.401c-.151-5.369-2.81-8.38-6.122-10.136-3.262-1.756-7.176-2.358-9.785-3.061-1.656-.452-2.208-1.204-2.208-1.756 0-.401.251-.853.853-1.255.552-.351 1.455-.602 2.509-.652.401 0 .903.05 1.355.1 3.764.652 6.222 1.957 8.33 3.011l.301.151 2.961-12.495-.201-.1s-7.312-3.162-15.122-3.162zm35.026.1l-.183.001c-1.104 0-2.208.05-3.262.201-1.907.251-3.964.753-5.721 1.606-1.857.903-3.262 1.857-4.717 3.312-1.355 1.355-2.509 3.362-3.161 5.118-.401 1.054-.703 2.258-.853 3.412-.251 1.857-.201 3.814.251 5.62.401 1.656 1.255 3.161 2.358 4.466 2.559 2.961 6.323 3.914 9.434 4.617 1.556.351 2.91.602 3.914 1.004 1.004.401 1.455.853 1.505 1.556v.05c0 .652-.351 1.104-1.104 1.505-.703.351-1.706.552-2.81.552-.552 0-1.104-.05-1.656-.151-3.764-.602-6.624-2.358-8.28-3.161l-.301-.151-2.961 12.495.151.1c1.004.753 6.574 3.713 15.004 3.764h.301c5.67-.05 10.287-1.656 13.85-4.667 3.513-3.011 5.47-6.875 5.419-11.592v-.401c-.151-5.369-2.81-8.33-6.122-10.086-3.262-1.756-7.176-2.409-9.785-3.111-1.656-.452-2.208-1.204-2.208-1.756 0-.401.251-.853.853-1.255.552-.351 1.455-.552 2.509-.552.401 0 .853.05 1.355.1 3.764.652 6.222 1.857 8.33 2.961l.301.151 2.961-12.495-.251-.05s-7.312-3.162-15.122-3.162zm-51.217 1.004h-17.965l-7.728 15.305v-15.305h-16.861v43.757h16.861v-15.305l6.122 15.255h18.115l-11.04-22.18 12.495-21.527z"/><path class="st0" d="M524.942 42.957h3.072l1.552 4.866h.021l1.625-4.866h2.957v7.32h-1.909l.031-5.621h-.021l-1.867 5.621h-1.793l-1.783-5.621h-.021l.042 5.621h-1.909v-7.32zM538.692 50.276c-.01-.294-.042-.577-.042-.86h-.021c-.43.681-.954.986-1.73.986-1.08 0-2.045-.535-2.045-1.72 0-1.667 1.814-1.867 2.821-1.867.304 0 .639.032.881.074-.01-.745-.566-.944-1.248-.944-.608 0-1.216.116-1.74.409l-.032-1.279c.671-.273 1.374-.388 2.181-.388 1.395 0 2.601.598 2.601 2.265v2.035c0 .43.021.86.105 1.29h-1.73zm-1.3-1.133c.713 0 1.164-.65 1.164-1.29-.241-.011-.514-.032-.797-.032-.639 0-1.143.199-1.143.723 0 .378.336.598.776.598zM545.427 46.375c-.346-.21-.692-.304-1.143-.304-.818 0-1.448.567-1.448 1.51 0 .871.734 1.437 1.552 1.437.43 0 .86-.095 1.174-.262l.042 1.406c-.472.157-1.038.241-1.541.241-1.804 0-3.177-1.049-3.177-2.852 0-1.814 1.374-2.863 3.177-2.863.566 0 1.07.095 1.499.304l-.136 1.384zM550.354 46.375c-.346-.21-.692-.304-1.143-.304-.818 0-1.447.567-1.447 1.51 0 .871.734 1.437 1.552 1.437.43 0 .86-.095 1.174-.262l.042 1.406c-.472.157-1.038.241-1.541.241-1.804 0-3.177-1.049-3.177-2.852 0-1.814 1.374-2.863 3.177-2.863.566 0 1.07.095 1.499.304l-.136 1.384zM555.023 46.323c-.21-.063-.419-.063-.64-.063-.881 0-1.374.639-1.374 1.709v2.307h-1.888v-5.464h1.72v1.007h.021c.325-.692.797-1.133 1.615-1.133.22 0 .451.032.64.063l-.095 1.573zM557.102 48.095c.104.755.681 1.049 1.604 1.049.514 0 1.101-.115 1.667-.419v1.332c-.609.241-1.3.346-2.003.346-1.804 0-3.178-1.059-3.178-2.863s1.227-2.852 2.926-2.852c2.024 0 2.758 1.437 2.758 3.062v.346h-3.775zm2.076-1.07c0-.629-.294-1.143-1.049-1.143-.681 0-1.007.514-1.049 1.143h2.097zM565.061 50.276c-.01-.294-.042-.577-.042-.86h-.021c-.43.681-.954.986-1.73.986-1.08 0-2.045-.535-2.045-1.72 0-1.667 1.814-1.867 2.821-1.867.304 0 .639.032.881.074-.01-.745-.566-.944-1.248-.944-.608 0-1.216.116-1.74.409l-.032-1.279c.671-.273 1.374-.388 2.181-.388 1.395 0 2.601.598 2.601 2.265v2.035c0 .43.021.86.105 1.29h-1.73zm-1.3-1.133c.713 0 1.164-.65 1.164-1.29-.241-.011-.514-.032-.797-.032-.639 0-1.143.199-1.143.723 0 .378.336.598.776.598zM567.566 44.813h1.72v1.007h.021c.378-.786 1.133-1.133 1.992-1.133 1.489 0 2.087 1.049 2.087 2.181v3.408h-1.888v-2.643c0-1.028-.357-1.374-.871-1.374-.776 0-1.174.535-1.174 1.709v2.307h-1.888v-5.464zM573.976 47.55c0-1.814 1.374-2.863 3.177-2.863 1.804 0 3.177 1.049 3.177 2.863 0 1.804-1.374 2.852-3.177 2.852-1.804 0-3.177-1.049-3.177-2.852zm4.404 0c0-.818-.357-1.541-1.227-1.541-.87 0-1.227.723-1.227 1.541 0 .808.357 1.531 1.227 1.531.87 0 1.227-.723 1.227-1.531zM584.839 46.323c-.21-.063-.419-.063-.64-.063-.881 0-1.374.639-1.374 1.709v2.307h-1.888v-5.464h1.72v1.007h.021c.325-.692.797-1.133 1.615-1.133.22 0 .451.032.64.063l-.095 1.573zM585.346 42.957h1.951v5.872h3.02v1.447h-4.971v-7.32zM594.442 50.276c-.01-.294-.042-.577-.042-.86h-.021c-.43.681-.954.986-1.73.986-1.08 0-2.045-.535-2.045-1.72 0-1.667 1.814-1.867 2.821-1.867.304 0 .639.032.881.074-.01-.745-.566-.944-1.248-.944-.608 0-1.216.116-1.74.409l-.032-1.279c.671-.273 1.374-.388 2.181-.388 1.395 0 2.601.598 2.601 2.265v2.035c0 .43.021.86.105 1.29h-1.73zm-1.3-1.133c.713 0 1.164-.65 1.164-1.29-.241-.011-.514-.032-.797-.032-.639 0-1.143.199-1.143.723 0 .378.336.598.776.598zM596.207 44.813h2.024l1.133 3.891h.021l1.143-3.891h1.877l-2.024 5.464h-2.15l-2.024-5.464zM604.749 43.922h-1.888v-1.384h1.888v1.384zm-1.888.891h1.888v5.464h-1.888v-5.464zM605.732 44.813h1.72v1.007h.021c.378-.786 1.133-1.133 1.992-1.133 1.489 0 2.087 1.049 2.087 2.181v3.408h-1.888v-2.643c0-1.028-.356-1.374-.87-1.374-.776 0-1.174.535-1.174 1.709v2.307h-1.888v-5.464zM618.21 49.637c0 2.244-1.091 2.968-3.293 2.968-.902 0-1.646-.189-2.087-.346l.095-1.489c.577.283 1.059.451 1.846.451 1.091 0 1.678-.514 1.678-1.584v-.294h-.021c-.451.64-1.08.933-1.835.933-1.499 0-2.433-1.133-2.433-2.747 0-1.626.766-2.842 2.465-2.842.807 0 1.458.441 1.856 1.112h.021v-.986h1.709v4.824zm-3.031-.807c.671 0 1.206-.566 1.206-1.405 0-.608-.357-1.29-1.206-1.29-.702 0-1.069.619-1.069 1.363 0 .85.503 1.332 1.069 1.332zM618.603 44.813h1.112v-1.227l1.856-.577v1.804h1.321v1.322h-1.321v2.013c0 .66.157.996.755.996.188 0 .388-.042.577-.073l.063 1.227c-.357.042-.713.105-1.185.105-1.688 0-2.097-.744-2.097-2.045v-2.223h-1.08v-1.322zM623.109 47.55c0-1.814 1.374-2.863 3.178-2.863s3.178 1.049 3.178 2.863c0 1.804-1.374 2.852-3.178 2.852s-3.178-1.049-3.178-2.852zm4.404 0c0-.818-.356-1.541-1.227-1.541s-1.227.723-1.227 1.541c0 .808.356 1.531 1.227 1.531s1.227-.723 1.227-1.531zM630.072 44.813h1.72v1.007h.021c.378-.786 1.133-1.133 1.992-1.133 1.489 0 2.087 1.049 2.087 2.181v3.408h-1.888v-2.643c0-1.028-.357-1.374-.871-1.374-.776 0-1.174.535-1.174 1.709v2.307h-1.888v-5.464z"/><g id="yxqjwV_5_"><path d="M1239.515 47.078c-.226-.34-.466-.639-.639-.973-.46-.885-.286-1.91.389-2.478.747-.628 1.993-.674 2.754-.101.675.507.838 1.628.26 2.32-.334.399-.8.69-1.217 1.016-.143.112-.318.183-.506.288l2.574 2.811c.599-.883.677-1.863.713-2.873h.65c.004 1.198-.205 2.333-.918 3.346l1.031 1.146c-.708.264-1.124-.132-1.482-.655-.938.783-1.998.985-3.143.892-1.809-.147-2.837-1.923-1.926-3.41.258-.421.705-.727 1.076-1.076.11-.103.254-.17.384-.254zm3.179 3.399l-2.78-3.02c-.354.284-.73.523-1.027.837-.778.823-.542 2.146.47 2.654.295.148.635.245.964.279.88.09 1.675-.142 2.373-.75zm-3.369-5.401c-.005.647.359 1.113.768 1.554.033.036.121.067.155.048.603-.326 1.236-.623 1.566-1.277.263-.52.125-1.187-.308-1.467-.475-.307-.984-.323-1.488-.064-.487.25-.694.671-.693 1.206zM1206.402 50.966l.83.986c-.649.199-1.092-.041-1.327-.525-.664.143-1.254.349-1.854.385-2.461.147-4.035-1.369-4.393-3.569-.283-1.739.227-3.249 1.685-4.313 1.279-.934 2.712-1.024 4.147-.416 1.457.617 2.212 1.804 2.412 3.35.18 1.394-.161 2.643-1.107 3.704l-.394.398zm-.448-.517l.094-.068c1.089-1.038 1.36-2.331 1.105-3.751-.424-2.362-2.89-3.611-4.953-2.505-1.262.676-1.831 1.811-1.879 3.207-.051 1.463.448 2.693 1.741 3.472 1.071.645 2.192.611 3.349.055l-1.471-1.693c.219 0 .365.017.505-.003.286-.041.475.071.65.295.264.339.562.652.86.992zM1278.329 44.407v7.211h-.671v-.355c.003-2.269.008-4.539.007-6.808 0-.362.044-.74-.317-1.09.372 0 .663-.013.953.009.08.006.166.105.227.18 1.777 2.166 3.551 4.335 5.326 6.503l.269.322v-7.016h.632v8.242c-.316.093-.539.016-.76-.258-1.791-2.221-3.6-4.428-5.404-6.639l-.262-.301zM1227.416 51.601c-.473.098-.799.049-1.076-.399-.624-1.011-1.318-1.979-1.991-2.959-.06-.087-.179-.187-.273-.19-.573-.018-1.146-.009-1.755-.009v3.572h-.727v-7.268000000000001c0-.334.032-.678-.299-.96l.215-.041c.913.007 1.828-.021 2.738.035.921.057 1.705.431 2.079 1.34.35.851.312 1.707-.3 2.432-.273.324-.68.536-1.059.823l2.449 3.624zm-5.088-4.092c.752-.043 1.495-.022 2.215-.142.814-.136 1.232-.778 1.232-1.67-.001-.885-.433-1.549-1.233-1.675-.72-.114-1.464-.084-2.214-.119v3.607zM1264.552 48.044v3.571h-.69v-.356c-.003-2.33 0-4.66-.015-6.99-.002-.29-.097-.58-.154-.901l.115-.023c.882.005 1.766-.006 2.647.027 1.148.043 2.026.722 2.261 1.703.296 1.234-.227 2.264-1.403 2.766l-.136.066 2.481 3.671c-.525.16-.724.092-1.004-.322-.683-1.011-1.366-2.022-2.058-3.027-.059-.085-.182-.175-.277-.178-.574-.017-1.148-.008-1.767-.008zm.008-.544c.736-.034 1.467-.005 2.176-.116.869-.136 1.333-.82 1.308-1.738-.024-.909-.535-1.547-1.412-1.659-.555-.071-1.124-.039-1.686-.053h-.386v3.565zM1293.169 43.388l.277-.043c.903.007 1.806-.008 2.708.032 1.264.055 2.193.907 2.279 2.039.093 1.22-.343 1.912-1.59 2.497l2.481 3.671c-.565.153-.723.095-1.024-.351-.677-1.002-1.354-2.005-2.04-3.002-.059-.085-.183-.174-.28-.177-.573-.017-1.148-.008-1.757-.008v3.571h-.709v-.359c0-2.299.002-4.597-.003-6.896-.001-.33.063-.688-.343-.973zm1.062 4.062l1.697-.001.307-.015c.859-.109 1.438-.741 1.461-1.594.028-1.043-.44-1.735-1.366-1.842-.685-.079-1.386-.016-2.099-.016v3.467zM1215.555 43.364h.655l.036.139c-.004 1.786.03 3.573-.027 5.357-.057 1.772-1.293 2.946-3.065 3.001-1.075.034-2.061-.194-2.8-1.06-.502-.588-.721-1.284-.73-2.042-.018-1.509-.009-3.017-.03-4.526-.004-.273-.097-.544-.154-.847h.866v.325c0 1.55-.004 3.1.004 4.651.002.317.022.638.08.949.216 1.152 1.079 1.899 2.254 1.942.365.013.744-.002 1.098-.086 1.108-.265 1.768-1.088 1.795-2.31.038-1.703.016-3.408.019-5.112v-.38zM1262.336 51.658l-.528.003c-.171.013-.253-.058-.32-.214-.332-.783-.683-1.558-1.012-2.342-.072-.172-.165-.224-.344-.223-1.099.007-2.198.008-3.296-.002-.198-.002-.29.071-.361.246-.288.701-.589 1.396-.884 2.094-.208.492-.266.52-.865.391l.709-1.632 2.793-6.36c.061-.138.098-.33.302-.265.111.035.235.144.282.251 1.153 2.605 2.296 5.213 3.44 7.822l.083.232zm-5.49-3.364h3.28l-1.657-3.817-1.624 3.817zM1228.589 43.362h4.579v.569h-3.688v3.183h3.605v.593h-3.604v3.358h3.848v.547h-4.585v-.355c0-2.31.005-4.62-.007-6.93-.002-.31-.092-.62-.147-.965zM1250.649 51.626h-.716v-7.189c0-.363.057-.739-.255-1.018l.068-.058c1.095.025 2.209-.064 3.282.105 1.764.277 2.47 2.465 1.285 3.783-.53.589-1.243.768-2.001.793-.542.018-1.086.004-1.662.004v3.582zm.015-7.643v3.458c.649 0 1.273.025 1.895-.006.905-.044 1.508-.678 1.561-1.588.058-.996-.44-1.737-1.36-1.848-.684-.082-1.386-.016-2.096-.016zM1291.337 43.93h-3.695v3.18h3.585v.596h-3.585v3.362h3.819v.55h-4.549v-.361c0-2.31.006-4.62-.007-6.929-.002-.31-.099-.619-.156-.951h4.59v.554zM1198.201 44.463l-.265-.19c-.62-.703-2.106-.759-2.77-.1-.487.484-.54 1.318-.047 1.844.317.338.722.598 1.104.87.459.327.957.601 1.398.949.863.683 1.14 1.551.845 2.476-.266.835-1.07 1.416-2.1 1.493-.718.054-1.408-.052-2.055-.396-.206-.109-.311-.231-.28-.475.024-.191.005-.388.005-.68.143.103.246.15.311.228.625.753 1.951.995 2.798.503.897-.521 1.013-1.736.205-2.465-.347-.313-.759-.556-1.147-.823-.447-.307-.921-.58-1.346-.915-.642-.505-.9-1.195-.742-1.996.155-.787.685-1.288 1.432-1.497.443-.124.927-.109 1.394-.139.139-.009.285.033.424.066.854.201.927.303.836 1.246zM1300.494 50.291c.086.066.2.114.254.2.556.894 2.227.882 2.858.459.772-.518.934-1.643.248-2.299-.432-.413-.963-.724-1.455-1.073-.368-.26-.763-.486-1.114-.765-.654-.52-.95-1.204-.769-2.04.185-.856.777-1.321 1.587-1.54.738-.199 1.462-.125 2.173.145.234.089.379.213.337.494-.025.17-.005.346-.005.595-.123-.081-.219-.113-.265-.18-.5-.729-2.14-.725-2.728-.168-.474.449-.611 1.231-.194 1.763.271.346.648.618 1.006.884.599.445 1.255.819 1.825 1.297.673.564.864 1.334.623 2.177-.237.827-.835 1.3-1.651 1.487-.835.191-1.647.098-2.429-.271-.267-.127-.441-.273-.382-.602.028-.159.005-.327.005-.49l.077-.072zM1273.298 51.622h-.717v-7.687h-2.73v-.574h6.179v.562h-2.732v7.698zM1219.217 51.622h-.68v-.374c0-2.318.005-4.637-.007-6.955-.001-.292-.091-.584-.144-.906h.831v8.236z"/></g><path d="M243.293 51.609c-.811.191-1.685.35-2.528.35-3.593 0-6.089-1.797-6.089-5.548 0-3.799 2.321-5.93 6.089-5.93.731 0 1.701.143 2.512.461l-.159 1.876c-.842-.477-1.606-.588-2.401-.588-2.289 0-3.72 1.749-3.72 4.022 0 2.257 1.399 3.958 3.768 3.958.874 0 1.908-.191 2.432-.461l.096 1.86zM244.262 39.845h2.13v4.849h.032c.54-.795 1.463-1.303 2.575-1.303 1.94 0 2.782 1.367 2.782 3.211v5.167h-2.13v-4.372c0-1.002-.016-2.353-1.383-2.353-1.542 0-1.876 1.669-1.876 2.718v4.006h-2.13v-11.923zM253.864 44.01c.827-.382 1.94-.62 2.846-.62 2.496 0 3.529 1.033 3.529 3.45v1.049c0 .827.016 1.447.032 2.051.016.62.048 1.192.096 1.828h-1.876c-.079-.429-.079-.97-.095-1.224h-.032c-.493.906-1.558 1.415-2.528 1.415-1.447 0-2.862-.874-2.862-2.432 0-1.224.588-1.939 1.399-2.337.811-.398 1.86-.477 2.75-.477h1.176c0-1.32-.588-1.765-1.844-1.765-.906 0-1.812.35-2.528.89l-.064-1.828zm2.496 6.391c.652 0 1.16-.286 1.494-.731.35-.461.445-1.049.445-1.685h-.922c-.954 0-2.369.159-2.369 1.415 0 .699.588 1.002 1.351 1.002zM261.861 43.581h2.035v1.16h.032c.477-.795 1.288-1.351 2.544-1.351 2.512 0 3.434 2.003 3.434 4.261 0 2.241-.922 4.308-3.481 4.308-.906 0-1.653-.223-2.4-1.129h-.032v4.276h-2.13v-11.526zm2.146 4.07c0 1.16.461 2.655 1.876 2.655 1.399 0 1.796-1.526 1.796-2.655 0-1.097-.382-2.607-1.765-2.607-1.367 0-1.908 1.463-1.908 2.607zM271.066 43.581h1.987v1.145h.032c.668-1.002 1.638-1.335 2.432-1.335 1.145 0 1.956.429 2.416 1.447.493-.986 1.558-1.447 2.56-1.447 2.019 0 2.591 1.383 2.591 3.211v5.167h-2.13v-4.88c0-.763 0-1.844-1.224-1.844-1.415 0-1.59 1.685-1.59 2.75v3.974h-2.13v-4.88c0-.763 0-1.844-1.224-1.844-1.415 0-1.59 1.685-1.59 2.75v3.974h-2.13v-8.187zM285.119 44.01c.827-.382 1.94-.62 2.846-.62 2.496 0 3.529 1.033 3.529 3.45v1.049c0 .827.016 1.447.032 2.051.016.62.048 1.192.095 1.828h-1.876c-.08-.429-.08-.97-.096-1.224h-.032c-.493.906-1.558 1.415-2.528 1.415-1.447 0-2.862-.874-2.862-2.432 0-1.224.588-1.939 1.399-2.337s1.86-.477 2.75-.477h1.177c0-1.32-.588-1.765-1.844-1.765-.906 0-1.813.35-2.528.89l-.064-1.828zm2.496 6.391c.652 0 1.161-.286 1.495-.731.35-.461.445-1.049.445-1.685h-.922c-.954 0-2.369.159-2.369 1.415 0 .699.588 1.002 1.351 1.002zM293.116 43.581h2.019v1.113h.032c.668-.938 1.574-1.303 2.687-1.303 1.94 0 2.782 1.367 2.782 3.211v5.167h-2.13v-4.372c0-1.002-.016-2.353-1.383-2.353-1.542 0-1.876 1.669-1.876 2.718v4.006h-2.13v-8.187zM306.47 42.42h-3.18v-1.749h8.585v1.749h-3.18v9.348h-2.226v-9.348zM311.223 44.01c.827-.382 1.94-.62 2.846-.62 2.496 0 3.529 1.033 3.529 3.45v1.049c0 .827.016 1.447.032 2.051.016.62.048 1.192.095 1.828h-1.876c-.08-.429-.08-.97-.096-1.224h-.032c-.493.906-1.558 1.415-2.528 1.415-1.447 0-2.862-.874-2.862-2.432 0-1.224.588-1.939 1.399-2.337s1.86-.477 2.75-.477h1.177c0-1.32-.588-1.765-1.844-1.765-.906 0-1.813.35-2.528.89l-.064-1.828zm2.496 6.391c.652 0 1.161-.286 1.495-.731.35-.461.445-1.049.445-1.685h-.922c-.954 0-2.369.159-2.369 1.415 0 .699.588 1.002 1.351 1.002zM322.622 49.558h.032l1.971-5.978h2.162l-3.068 8.124c-.684 1.812-1.176 3.593-3.402 3.593-.509 0-1.017-.079-1.51-.223l.143-1.574c.27.095.572.143 1.097.143.858 0 1.383-.588 1.383-1.463l-3.132-8.601h2.353l1.971 5.978zM327.63 39.845h2.13v11.923h-2.13v-11.923zM335.276 43.39c2.432 0 4.293 1.637 4.293 4.34 0 2.353-1.574 4.229-4.293 4.229-2.702 0-4.276-1.876-4.276-4.229 0-2.703 1.86-4.34 4.276-4.34zm0 6.915c1.638 0 2.067-1.463 2.067-2.83 0-1.256-.668-2.432-2.067-2.432-1.383 0-2.051 1.208-2.051 2.432 0 1.351.429 2.83 2.051 2.83zM340.809 43.581h1.892v1.86h.032c.096-.763.969-2.051 2.241-2.051.207 0 .429 0 .652.064v2.146c-.191-.111-.572-.175-.954-.175-1.733 0-1.733 2.162-1.733 3.338v3.005h-2.13v-8.187z"/><path class="st1" d="M27.826 30.752h-3.72l-.903-3.032h-4.774l-.925 3.032h-3.032l4.731-14.752h4l4.623 14.752zm-5.419-5.742l-1.57-5.183-1.57 5.183h3.14zM38.085 27.827v2.925h-9.376v-14.752h3.441v11.827h5.935zM48.193 27.827v2.925h-9.376v-14.752h3.441v11.827h5.935zM52.431 18.86v3.355h5.613v2.774h-5.613v5.763h-3.441v-14.752h10.494v2.86h-7.053zM60.904 28.645c-1.075-1.527-1.548-3.441-1.548-5.29 0-3.914 1.957-7.57 6.322-7.57 1.957 0 3.505.645 4.688 2.258 1.054 1.441 1.591 3.527 1.591 5.311 0 1.677-.452 3.72-1.398 5.118-1.14 1.677-2.881 2.494-4.882 2.494-2 0-3.613-.688-4.774-2.322zm2.537-8.365c-.344.881-.473 2.15-.473 3.075 0 1.849.28 4.795 2.709 4.795 1.183 0 1.828-.58 2.215-1.677.344-.903.452-2.129.452-3.097 0-1.075-.107-2.344-.538-3.333-.43-.989-1.054-1.441-2.129-1.441-1.183 0-1.828.602-2.236 1.677zM77.034 30.752h-3.441v-14.752h6.215c1.312 0 2.645.022 3.785.753 1.204.796 1.871 2.236 1.871 3.677 0 1.677-.968 3.226-2.559 3.806l2.731 6.516h-3.828l-2.258-5.828h-2.516v5.828zm0-8.365h1.892c.709 0 1.484.065 2.107-.301.559-.344.86-1.032.86-1.677 0-.581-.344-1.204-.839-1.505-.58-.366-1.57-.28-2.215-.28h-1.806v3.763zM91.314 16c2.129 0 3.957.129 5.57 1.656 1.591 1.505 2.279 3.548 2.279 5.677 0 1.979-.602 3.893-1.914 5.376-1.462 1.613-3.269 2.043-5.354 2.043h-4.86v-14.752h4.279zm-.839 11.978h1.161c1.441 0 2.366-.28 3.161-1.57.581-.946.817-2.086.817-3.183 0-1.161-.344-2.408-1.054-3.333-.796-1.032-1.677-1.183-2.903-1.183h-1.183v9.268zM27.074 46.882h-3.441v-6.086h-4.559v6.086h-3.441v-14.752h3.441v5.763h4.559v-5.763h3.441v14.752zM41.375 46.882h-3.72l-.903-3.032h-4.774l-.925 3.032h-3.032l4.731-14.752h4l4.624 14.752zm-5.419-5.742l-1.57-5.183-1.57 5.183h3.14zM51.634 43.957v2.925h-9.376v-14.752h3.441v11.827h5.935zM61.742 43.957v2.925h-9.376v-14.752h3.441v11.827h5.935zM24.601 63.012h-2.366l-3.591-12.021h-.043v12.021h-2.903v-14.752h5.398l2.581 8.838 2.71-8.838h5.398v14.752h-3.441v-12.021h-.086l-3.656 12.021zM34.881 60.905c-1.075-1.527-1.548-3.441-1.548-5.29 0-3.914 1.957-7.57 6.322-7.57 1.957 0 3.505.645 4.688 2.258 1.054 1.441 1.591 3.527 1.591 5.311 0 1.677-.452 3.72-1.398 5.118-1.14 1.677-2.882 2.494-4.882 2.494-2 0-3.613-.688-4.774-2.322zm2.537-8.365c-.344.881-.473 2.15-.473 3.075 0 1.849.28 4.795 2.709 4.795 1.183 0 1.828-.58 2.215-1.677.344-.903.452-2.129.452-3.097 0-1.075-.107-2.344-.538-3.333-.43-.989-1.054-1.441-2.129-1.441-1.183 0-1.828.602-2.236 1.677zM58.86 63.012h-2.946l-5.656-9.913h-.086v9.913h-2.666v-14.752h3.72l4.924 8.666h.043v-8.666h2.667v14.752zM73.204 63.012h-3.72l-.903-3.032h-4.774l-.925 3.032h-3.032l4.731-14.752h4l4.624 14.752zm-5.419-5.742l-1.57-5.183-1.57 5.183h3.14zM79.291 57.873v-2.753h6.064v7.892h-1.57l-.495-1.699c-1.097 1.333-2.301 1.914-4.021 1.914-4.322 0-6.107-3.591-6.107-7.462 0-4 1.957-7.72 6.408-7.72 3.183 0 5.333 1.935 5.785 5.054l-3.269.452c-.15-1.484-.946-2.731-2.602-2.731-2.43 0-2.795 3.161-2.795 4.989 0 1.914.538 4.623 2.946 4.623 1.505 0 2.538-1.054 2.451-2.559h-2.796zM98.797 63.012h-3.441v-6.086h-4.559v6.086h-3.441v-14.752h3.441v5.763h4.559v-5.763h3.441v14.752zM113.099 63.012h-3.72l-.903-3.032h-4.774l-.925 3.032h-3.032l4.731-14.752h4l4.624 14.752zm-5.419-5.742l-1.57-5.183-1.57 5.183h3.14zM125.422 63.012h-2.946l-5.656-9.913h-.086v9.913h-2.666v-14.752h3.72l4.924 8.666h.043v-8.666h2.667v14.752zM24.601 79.142h-2.366l-3.591-12.021h-.043v12.021h-2.903v-14.752h5.398l2.581 8.838 2.71-8.838h5.398v14.752h-3.441v-12.021h-.086l-3.656 12.021zM34.881 77.035c-1.075-1.527-1.548-3.441-1.548-5.29 0-3.914 1.957-7.57 6.322-7.57 1.957 0 3.505.645 4.688 2.258 1.054 1.441 1.591 3.527 1.591 5.311 0 1.677-.452 3.72-1.398 5.118-1.14 1.677-2.882 2.494-4.882 2.494-2 0-3.613-.688-4.774-2.322zm2.537-8.365c-.344.881-.473 2.15-.473 3.075 0 1.849.28 4.795 2.709 4.795 1.183 0 1.828-.58 2.215-1.677.344-.903.452-2.129.452-3.097 0-1.075-.107-2.344-.538-3.333-.43-.989-1.054-1.441-2.129-1.441-1.183 0-1.828.602-2.236 1.677zM51.011 79.142h-3.441v-14.752h6.215c1.312 0 2.645.022 3.785.753 1.204.796 1.871 2.236 1.871 3.677 0 1.677-.968 3.226-2.559 3.806l2.731 6.516h-3.828l-2.258-5.828h-2.516v5.828zm0-8.365h1.892c.709 0 1.484.065 2.107-.301.559-.344.86-1.032.86-1.677 0-.581-.344-1.204-.839-1.505-.581-.366-1.57-.28-2.215-.28h-1.806v3.763zM64.56 79.142h-3.441v-14.752h6.215c1.312 0 2.645.022 3.785.753 1.204.796 1.871 2.236 1.871 3.677 0 1.677-.968 3.226-2.559 3.806l2.731 6.516h-3.828l-2.258-5.828h-2.516v5.828zm0-8.365h1.892c.709 0 1.484.065 2.107-.301.559-.344.86-1.032.86-1.677 0-.581-.344-1.204-.839-1.505-.58-.366-1.57-.28-2.215-.28h-1.806v3.763zM78.109 79.142h-3.441v-14.752h3.441v14.752zM87.872 68.605c-.43-1.247-1.226-1.742-2.538-1.742-.925 0-2.043.237-2.043 1.376 0 1.075 1.29 1.333 2.129 1.484 1.204.258 2.817.559 3.849 1.247 1.204.796 1.935 2.021 1.935 3.484 0 1.441-.688 2.817-1.828 3.699-1.183.925-2.796 1.204-4.279 1.204-2.774 0-5.29-1.204-5.957-4.086l3.183-.731c.43 1.548 1.548 2.086 3.075 2.086.989 0 2.301-.366 2.301-1.591 0-1.226-1.677-1.462-2.581-1.656-2.624-.537-5.204-1.312-5.204-4.537 0-1.376.538-2.581 1.592-3.462 1.075-.903 2.344-1.204 3.699-1.204 2.581 0 4.688.903 5.591 3.462l-2.925.968z"/><polygon class="st2" points="670.9121704,49.4932404 670.9121704,45.5477943 781.1793823,45.5477943 779.4981689,49.4932404"/><polygon points="684.6367798,25.0244446 690.6887207,25.0244446 690.6887207,42.6751709 686.7237549,42.6751709 686.7266846,29.4777431 682.6050415,42.6771622 678.9846191,42.6771622 674.9052734,29.4777431 674.9032593,42.6791649 670.9133911,42.6791649 670.9133911,25.021965 677.0255737,25.021965 680.9300537,37.1975212"/><polygon points="781.3893433,25.0092297 781.3893433,42.6782074 775.9668579,42.6782074 769.8621826,30.7760448 769.8621826,42.6822586 765.6069946,42.6814194 765.6069946,25.0264683 771.3797607,25.0264683 777.3736572,37.0014915 777.3754883,25.0092297"/><polygon class="st3" points="707.2114868,52.4106903 711.2277832,52.4106903 711.2277832,70.0218964 705.9435425,70.0223007 699.7039185,57.9119797 699.6949463,70.0157852 695.7349243,70.0119324 695.7349243,52.4034882 701.1477051,52.4034882 707.2114868,64.3078232"/><path class="st3" d="M737.276 52.393h5.071l6.458 17.619h-4.423l-1.357-3.663h-6.685l-1.32 3.678h-4.393l6.649-17.633zm.205 10.355h4.306l-2.088-7.012-2.218 7.012z"/><polygon class="st3" points="750.7156372,70.0265884 750.7156372,52.4031181 754.9431763,52.4031181 754.9449463,66.281723 765.1995239,66.281723 763.6282349,70.0265884"/><polygon class="st3" points="692.5932617,52.4100609 692.5932617,70.0256271 688.7114258,70.0256271 688.6344604,52.4100609"/><polygon class="st3" points="766.802063,70.0265884 766.802063,52.4031181 771.0296021,52.4031181 771.0313721,66.281723 781.2859497,66.281723 779.7146606,70.0265884"/><path class="st3" d="M721.329 70.027l-7.209-.012v-17.607h7.117c3.505 0 9.176 1.166 9.176 8.795s-6.04 8.824-9.084 8.824zm4.833-8.852c0-3.598-2.097-5.067-4.339-5.067h-3.441v10.192s2.189-.011 3.564-.011c1.755 0 4.216-1.515 4.216-5.113z"/><path d="M752.449 25.026h5.071l6.458 17.655h-4.422l-1.357-3.665h-6.685l-1.32 3.68h-4.393l6.649-17.67zm.205 10.388h4.306l-2.088-7.015-2.218 7.015zM723.806 35.785l3.693 6.896h-4.85s-1.993-4.12-2.952-6.099h-3.007s.004 4.099.004 6.097h-4.22v-17.651s3.698-.018 7.793-.018 6.484 2.347 6.484 5.574-1.698 4.283-2.946 5.2zm-1.291-4.894c0-1.86-1.495-2.111-2.294-2.111h-3.527v4.222h3.358c1.043 0 2.463-.251 2.463-2.111zM701.591 24.755c-5.371 0-8.99 3.659-8.99 9.09s3.619 9.09 8.99 9.09 8.99-3.659 8.99-9.09-3.619-9.09-8.99-9.09zm0 14.476c-2.827 0-4.732-2.168-4.732-5.387s1.905-5.387 4.732-5.387 4.732 2.168 4.732 5.387-1.905 5.387-4.732 5.387zM746.241 33.046l.006-.011h-9.01v3.299h4.309c-.725 1.789-2.252 2.898-4.261 2.898-2.827 0-4.732-2.168-4.732-5.387s1.905-5.387 4.732-5.387c1.773 0 3.182.854 3.987 2.283l3.722-1.901c-1.503-2.549-4.236-4.086-7.709-4.086-5.371 0-8.99 3.659-8.99 9.09s3.619 9.09 8.99 9.09 8.99-3.659 8.99-9.09c0-.272-.015-.536-.034-.799z"/><path class="st3" d="M673.866 64.421c1.327 1.631 2.919 2.479 4.878 2.479 1.083 0 3.261-.484 3.261-1.985 0-.871-.819-1.504-2.04-1.722l-3.41-.709c-3.042-.508-5.157-1.878-5.157-4.42 0-4.164 2.586-5.883 7.161-5.883 2.719 0 5.392 1.162 7.236 3.317l-3.534 1.867c-1.083-1.38-2.251-1.865-3.979-1.865-.945 0-2.676.313-2.676 1.714 0 .92 1.063 1.577 2.63 1.843l1.567.266c3.272.557 6.362 1.662 6.362 4.954 0 5.181-4.841 6.11-7.906 6.11-2.788 0-5.608-1.239-7.82-4.101l3.426-1.865z"/><path class="st4" d="M857.042 53.424v-11.226h2.965l2.332 4.114c.666 1.183 1.333 2.582 1.832 3.848h.05c-.167-1.482-.217-2.998-.217-4.68v-3.281h2.332v11.226h-2.664l-2.399-4.33c-.666-1.199-1.399-2.649-1.948-3.964l-.05.017c.066 1.482.1 3.064.1 4.896v3.381h-2.332zM877.815 52.908c-.782.266-2.265.633-3.747.633-2.049 0-3.531-.516-4.564-1.516-1.033-.966-1.599-2.432-1.582-4.08.016-3.731 2.731-5.863 6.412-5.863 1.449 0 2.565.283 3.115.549l-.533 2.032c-.616-.267-1.382-.484-2.615-.484-2.115 0-3.714 1.199-3.714 3.631 0 2.315 1.449 3.681 3.531 3.681.582 0 1.049-.066 1.249-.167v-2.349h-1.732v-1.982h4.181v5.913zM882.967 42.348c.666-.133 2.015-.233 3.281-.233 1.549 0 2.498.15 3.314.633.783.416 1.349 1.183 1.349 2.199 0 .999-.582 1.932-1.849 2.398v.033c1.283.35 2.232 1.316 2.232 2.765 0 1.016-.467 1.816-1.166 2.382-.816.649-2.181 1.016-4.414 1.016-1.249 0-2.182-.083-2.748-.167v-11.026zm2.515 4.297h.833c1.332 0 2.049-.549 2.049-1.382 0-.849-.65-1.299-1.799-1.299-.549 0-.866.033-1.082.066v2.615zm0 4.98c.25.033.549.033.983.033 1.149 0 2.165-.433 2.165-1.616 0-1.132-1.016-1.582-2.282-1.582h-.866v3.165zM897.527 53.424l-.15-.816h-.05c-.533.649-1.366 1-2.332 1-1.649 0-2.632-1.199-2.632-2.499 0-2.115 1.899-3.131 4.781-3.115v-.116c0-.433-.234-1.049-1.482-1.049-.833 0-1.715.283-2.248.616l-.467-1.632c.566-.317 1.682-.716 3.165-.716 2.715 0 3.581 1.599 3.581 3.514v2.831c0 .783.034 1.533.117 1.982h-2.282zm-.299-3.847c-1.333-.017-2.366.3-2.366 1.283 0 .649.433.966 1 .966.633 0 1.149-.416 1.316-.933.033-.133.05-.283.05-.433v-.882zM904.209 43.015c0 .7-.533 1.266-1.365 1.266-.8 0-1.333-.566-1.316-1.266-.017-.733.516-1.283 1.332-1.283.816 0 1.333.55 1.349 1.283zm-2.615 10.41v-8.144h2.532v8.144h-2.532zM906.059 41.599h2.531v11.826h-2.531v-11.826zM912.49 50.16c.083 1.049 1.115 1.549 2.299 1.549.866 0 1.565-.116 2.248-.333l.333 1.715c-.833.333-1.849.5-2.948.5-2.765 0-4.347-1.599-4.347-4.147 0-2.066 1.282-4.347 4.114-4.347 2.632 0 3.631 2.049 3.631 4.064 0 .433-.05.816-.083 1h-5.247zm2.981-1.732c0-.616-.267-1.649-1.432-1.649-1.066 0-1.499.966-1.566 1.649h2.998zM921.037 45.28l1.216 3.997c.133.483.3 1.083.4 1.516h.05c.116-.433.25-1.049.366-1.516l1-3.997h2.715l-1.899 5.363c-1.166 3.231-1.948 4.53-2.865 5.346-.883.767-1.816 1.033-2.448 1.116l-.533-2.148c.316-.05.716-.2 1.099-.433.383-.2.799-.599 1.049-1.016.083-.116.133-.25.133-.366 0-.083-.017-.217-.117-.416l-2.981-7.445h2.815zM815.833 30.654v33.834h34.203v-33.834h-34.203zm11.056 26.496h-3.455v-3.795h3.455c1.392 0 2.026.594 2.026 1.898s-.634 1.898-2.026 1.898zm-3.455-7.096v-3.795h2.983c1.392 0 2.026.594 2.026 1.898 0 1.304-.634 1.898-2.026 1.898h-2.983zm23.493-2.269l-1.977 1.379c.807-1.162.815-2.029.815-2.982 0-1.553-1.345-2.856-3.183-3.236-.182.214-.392.409-.635.583l-1.063.741c2.163.187 3.166 1.763 3.166 3.338 0 .993-.008 1.896-.849 3.106l-2.06 1.436c.841-1.21.849-2.113.849-3.106 0-1.618-1.401-2.975-3.316-3.371-.19.223-.409.426-.661.607l-1.107.772c2.253.195 3.298 1.836 3.298 3.478 0 1.034-.009 1.975-.885 3.235l-2.146 1.496c.876-1.261.885-2.201.885-3.235 0-1.686-1.459-3.099-3.454-3.512-.197.233-.426.443-.689.632l-1.154.805c2.347.203 3.435 1.913 3.435 3.622 0 1.077-.009 2.057-.922 3.37l-2.235 1.558c.913-1.313.922-2.293.922-3.37 0-1.803-1.603-3.308-3.767-3.691 2.159-.735 3.121-2.11 3.121-4.425s-2.061-3.851-5.267-3.851h-9.87l2.854-1.558h9.252c3.206 0 5.267 1.536 5.267 3.851 0 1.225-.271 2.186-.844 2.929 1.886-.726 2.731-2.027 2.731-4.152 0-2.223-1.979-3.697-5.056-3.697h-9.476l2.739-1.496h8.882c3.077 0 5.056 1.475 5.056 3.697 0 1.176-.26 2.098-.81 2.812 1.81-.697 2.621-1.946 2.621-3.986 0-2.134-1.9-3.549-4.854-3.549h-9.097l2.63-1.436h8.527c2.954 0 4.854 1.416 4.854 3.549 0 1.129-.25 2.014-.778 2.699 1.738-.669 2.517-1.868 2.517-3.826 0-2.048-1.824-3.407-4.66-3.407h-8.733l2.525-1.379h8.185c2.836 0 4.66 1.359 4.66 3.407 0 1.498-.455 2.552-1.447 3.264l-1.021.712c2.076.18 3.039 1.692 3.039 3.205 0 .953-.008 1.82-.815 2.982z"/><path d="M1048.528 38.926h2.169c.235 0 .463.023.682.068.219.059.441.181.666.364.189.138.342.336.459.593.123.249.184.542.184.881 0 .458-.156.874-.469 1.25-.32.395-.789.599-1.405.61h-1.381v2.411h-.906v-6.178zm.906 2.886h1.345c.337-.006.591-.113.761-.324.162-.204.243-.431.243-.681 0-.207-.033-.382-.099-.524-.069-.128-.165-.228-.288-.302-.187-.122-.403-.18-.65-.174h-1.312v2.005zM1056.518 38.926h2.338c.498 0 .905.136 1.22.407.379.308.577.747.593 1.318-.011.839-.396 1.41-1.156 1.712l1.385 2.742h-1.076l-1.239-2.64h-1.161v2.64h-.906v-6.178zm.906 2.708h1.374c.34-.006.595-.108.765-.306.167-.184.251-.411.251-.68-.005-.323-.106-.557-.3-.701-.154-.127-.376-.191-.667-.191h-1.424v1.878zM1064.937 38.926h.906v6.178h-.906v-6.178zM1070.252 38.926h.854l2.71 4.392h.016v-4.392h.906v6.178h-.858l-2.706-4.392h-.016v4.392h-.906v-6.178zM1080.958 41.706h2.127v1.257c-.011.618-.216 1.136-.615 1.553-.402.415-.908.628-1.518.639-.47-.011-.863-.13-1.177-.356-.32-.217-.552-.469-.698-.754l-.119-.267-.082-.331c-.041-.249-.062-.726-.062-1.432 0-.718.02-1.198.062-1.441.044-.243.111-.439.201-.589.145-.285.377-.54.698-.763.315-.226.707-.342 1.177-.347.577.006 1.047.182 1.411.53.364.35.594.784.689 1.301h-.961c-.074-.25-.208-.463-.403-.639-.203-.167-.449-.254-.739-.26-.214.006-.397.049-.551.132-.156.085-.282.191-.378.318-.118.133-.196.304-.234.514-.044.221-.066.636-.066 1.244s.022 1.021.066 1.236c.038.215.117.389.234.522.096.127.222.231.378.31.154.093.337.14.551.14.354 0 .645-.125.876-.374.23-.238.348-.551.354-.939v-.323h-1.221v-.881zM1087.221 38.926h.906v5.297h2.917v.881h-3.823v-6.178zM1094.949 38.926h3.823v.881h-2.917v1.768h2.49v.83h-2.49v1.819h2.917v.881h-3.823v-6.178zM1108.055 38.926h2.319c.588.006 1.03.158 1.326.458.298.302.448.702.448 1.199.005.254-.053.497-.177.729-.063.11-.153.215-.271.314-.118.105-.263.199-.435.284v.017c.327.088.573.264.741.53.156.274.235.572.235.894-.005.534-.167.956-.485 1.267-.315.325-.708.487-1.179.487h-2.522v-6.178zm.906.83v1.776h1.31c.331 0 .575-.09.731-.268.159-.165.238-.372.238-.622s-.079-.461-.238-.635c-.156-.162-.4-.246-.731-.251h-1.31zm0 2.606v1.861h1.399c.337-.006.584-.1.741-.285.156-.181.234-.396.234-.646 0-.255-.078-.473-.234-.654-.156-.178-.403-.271-.741-.276h-1.399zM1116.005 38.926h2.338c.498 0 .905.136 1.22.407.379.308.577.747.593 1.318-.011.839-.396 1.41-1.156 1.712l1.385 2.742h-1.076l-1.239-2.64h-1.161v2.64h-.906v-6.178zm.906 2.708h1.374c.34-.006.595-.108.765-.306.167-.184.251-.411.251-.68-.005-.323-.106-.557-.3-.701-.154-.127-.376-.191-.667-.191h-1.424v1.878zM1127.168 43.723h-2.27l-.46 1.382h-.96l2.175-6.178h.759l2.175 6.178h-.956l-.464-1.382zm-.259-.83l-.866-2.703h-.016l-.866 2.703h1.748zM1131.886 38.926h.854l2.71 4.392h.016v-4.392h.906v6.178h-.858l-2.706-4.392h-.017v4.392h-.906v-6.178zM1140.169 38.926h2.094c.81.006 1.418.353 1.823 1.042.145.232.236.475.275.729.03.254.045.693.045 1.318 0 .664-.023 1.127-.07 1.39-.022.133-.055.252-.099.356l-.168.318c-.175.291-.419.531-.731.72-.309.203-.688.305-1.137.305h-2.032v-6.178zm.906 5.297h1.085c.51 0 .879-.18 1.109-.539.101-.133.166-.301.193-.505.025-.201.037-.577.037-1.13 0-.538-.012-.923-.037-1.155-.033-.232-.111-.42-.234-.565-.252-.36-.608-.534-1.068-.522h-1.085v4.416zM1147.539 42.015c0-.719.02-1.2.062-1.444.044-.243.111-.44.201-.59.145-.284.377-.538.697-.76.315-.225.707-.34 1.177-.346.476.006.873.122 1.19.347.314.223.542.478.681.763.101.15.171.346.209.589.035.243.053.723.053 1.441 0 .706-.018 1.184-.053 1.432-.038.249-.108.448-.209.597-.14.285-.367.537-.681.754-.317.226-.714.345-1.19.356-.47-.011-.863-.13-1.177-.356-.32-.217-.552-.469-.698-.754l-.119-.267-.082-.331c-.041-.249-.062-.726-.062-1.432zm.906 0c0 .609.022 1.021.066 1.236.038.215.116.389.234.522.096.127.222.231.378.31.154.093.337.14.551.14.217 0 .404-.047.563-.14.151-.079.271-.183.362-.31.118-.133.199-.307.243-.522.041-.215.062-.627.062-1.236s-.021-1.023-.062-1.244c-.044-.21-.125-.381-.243-.514-.09-.127-.211-.234-.362-.318-.159-.082-.347-.126-.563-.132-.214.006-.397.049-.551.132-.156.085-.282.191-.378.318-.118.133-.196.304-.234.514-.044.221-.066.636-.066 1.244zM1154.991 38.926h.854l2.71 4.392h.016v-4.392h.906v6.178h-.858l-2.706-4.392h-.017v4.392h-.906v-6.178zM1048.528 50.037h2.169c.235 0 .463.023.682.068.219.059.441.181.666.364.189.138.342.336.459.593.123.249.184.542.184.881 0 .458-.156.874-.469 1.25-.32.395-.789.599-1.405.61h-1.381v2.411h-.906v-6.178zm.906 2.886h1.345c.337-.006.591-.114.761-.324.162-.204.243-.431.243-.681 0-.207-.033-.382-.099-.524-.069-.128-.165-.228-.288-.302-.187-.122-.403-.18-.65-.174h-1.312v2.005zM1056.963 50.037h3.823v.881h-2.917v1.768h2.49v.83h-2.49v1.819h2.917v.881h-3.823v-6.178zM1065.546 50.037h2.338c.499 0 .905.136 1.22.407.379.308.577.747.593 1.318-.011.839-.396 1.41-1.155 1.712l1.385 2.742h-1.076l-1.239-2.64h-1.161v2.64h-.906v-6.178zm.906 2.708h1.374c.34-.006.595-.108.765-.306.167-.184.251-.411.251-.68-.005-.323-.106-.557-.3-.701-.154-.127-.376-.191-.667-.191h-1.424v1.878zM1074.358 50.037h.906v3.182h.018l2.464-3.182h1.076l-1.917 2.437 2.119 3.742h-1.076l-1.631-3.021-1.052 1.14v1.881h-.906v-6.178zM1083.086 50.037h.906v6.178h-.906v-6.178zM1088.823 50.037h.854l2.71 4.392h.016v-4.392h.906v6.178h-.858l-2.706-4.392h-.016v4.392h-.906v-6.178zM1097.463 54.719c.477.405 1.043.61 1.701.616.778-.011 1.172-.298 1.183-.861.006-.461-.254-.738-.78-.831l-.792-.115c-.515-.088-.906-.284-1.174-.59-.277-.314-.415-.696-.415-1.145 0-.54.174-.975.521-1.306.336-.328.813-.495 1.431-.501.744.017 1.39.23 1.94.638l-.505.769c-.449-.306-.943-.464-1.483-.476-.279 0-.512.072-.698.216-.194.15-.294.373-.3.67 0 .178.067.339.201.484.134.147.349.249.645.305l.673.098c.561.079.976.287 1.244.623.266.331.398.715.398 1.154-.03 1.182-.73 1.781-2.1 1.798-.886 0-1.647-.281-2.285-.843l.595-.704z"/><path class="st5" d="M1108.123 50.038h.652v2.748h2.76v.677h-2.76v2.751h-.652v-2.751h-2.767v-.677h2.767v-2.748z"/><path d="M1115.326 50.037h.956l.94 4.392h.016l1.161-4.392h.657l1.157 4.392h.016l.944-4.392h.956l-1.494 6.178h-.759l-1.141-4.456h-.016l-1.145 4.456h-.755l-1.494-6.178zM1125.691 50.037h.906v6.178h-.906v-6.178zM1131.43 50.037h.906v5.297h2.917v.881h-3.823v-6.178zM1139.408 50.037h.906v5.297h2.917v.881h-3.823v-6.178z"/><path class="st6" d="M961.359 75.208c0-.457-.014-.828-.028-1.156h.77l.043.535h.014c.257-.393.664-.614 1.192-.614.799 0 1.463.685 1.463 1.77 0 1.256-.792 1.862-1.584 1.862-.435 0-.799-.185-.978-.464h-.014v1.798h-.878v-3.732zm.878.863l.029.243c.085.357.4.613.77.613.557 0 .885-.464.885-1.149 0-.614-.3-1.113-.863-1.113-.364 0-.699.264-.785.649l-.036.221v.535zM968.38 72.461v4.088c0 .357.014.742.028.978h-.785l-.036-.549h-.014c-.207.385-.628.628-1.134.628-.828 0-1.484-.706-1.484-1.777-.007-1.163.721-1.855 1.555-1.855.478 0 .821.2.978.457h.014v-1.969h.878zm-.878 3.04l-.021-.228c-.078-.342-.357-.621-.756-.621-.564 0-.878.5-.878 1.149 0 .635.314 1.099.87 1.099.357 0 .671-.243.756-.621l.029-.257v-.521zM968.92 75.208c0-.457-.014-.828-.028-1.156h.77l.043.535h.014c.257-.393.664-.614 1.192-.614.799 0 1.463.685 1.463 1.77 0 1.256-.792 1.862-1.584 1.862-.435 0-.799-.185-.978-.464h-.014v1.798h-.878v-3.732zm.878.863l.029.243c.085.357.4.613.77.613.557 0 .885-.464.885-1.149 0-.614-.3-1.113-.863-1.113-.364 0-.699.264-.785.649l-.036.221v.535zM975.812 77.527l-.057-.385h-.021c-.214.271-.578.464-1.027.464-.699 0-1.092-.507-1.092-1.035 0-.878.778-1.32 2.062-1.313v-.057c0-.228-.093-.606-.706-.606-.342 0-.699.107-.935.257l-.171-.571c.257-.157.706-.307 1.256-.307 1.113 0 1.434.706 1.434 1.463v1.256c0 .314.014.621.05.835h-.792zm-.114-1.698c-.621-.014-1.213.121-1.213.649 0 .342.221.5.5.5.35 0 .606-.228.685-.478l.028-.193v-.478zM977.069 75.172c0-.471-.007-.806-.028-1.12h.763l.028.664h.029c.171-.492.578-.742.949-.742l.207.021v.828l-.257-.028c-.421 0-.706.271-.785.664l-.029.271v1.798h-.878v-2.355zM981.755 77.42c-.185.085-.549.178-.985.178-1.085 0-1.791-.692-1.791-1.77 0-1.042.713-1.855 1.934-1.855.321 0 .649.071.849.164l-.157.657c-.143-.064-.35-.136-.664-.136-.671 0-1.07.492-1.063 1.127 0 .714.464 1.12 1.063 1.12.307 0 .521-.064.692-.136l.121.649zM981.989 72.461h.885v2.069h.014c.107-.164.25-.3.435-.399.171-.1.378-.157.599-.157.592 0 1.213.392 1.213 1.506v2.048h-.878v-1.948c0-.507-.185-.885-.671-.885-.342 0-.585.228-.678.492-.029.071-.036.164-.036.264v2.076h-.885v-5.066zM986.584 73.082c0 .264-.193.471-.5.471-.292 0-.485-.207-.485-.471 0-.271.2-.478.492-.478.3 0 .485.207.492.478zm-.935 4.445v-3.475h.885v3.475h-.885zM988.069 73.06v.992h.835v.656h-.835v1.534c0 .421.114.642.45.642.15 0 .264-.021.342-.043l.014.671c-.128.05-.357.085-.635.085-.321 0-.592-.107-.756-.285-.185-.2-.271-.514-.271-.97v-1.634h-.499v-.656h.499v-.785l.856-.207zM989.733 76.035c.021.628.514.899 1.07.899.407 0 .699-.057.963-.157l.128.606c-.3.121-.714.214-1.213.214-1.127 0-1.791-.692-1.791-1.755 0-.963.585-1.869 1.698-1.869 1.127 0 1.498.928 1.498 1.691 0 .164-.014.293-.029.371h-2.326zm1.527-.613c.007-.321-.135-.849-.721-.849-.542 0-.771.492-.806.849h1.527zM994.996 77.42c-.185.085-.549.178-.985.178-1.085 0-1.791-.692-1.791-1.77 0-1.042.713-1.855 1.934-1.855.321 0 .649.071.849.164l-.157.657c-.143-.064-.35-.136-.664-.136-.671 0-1.07.492-1.063 1.127 0 .714.464 1.12 1.063 1.12.307 0 .521-.064.692-.136l.121.649zM996.396 73.06v.992h.835v.656h-.835v1.534c0 .421.114.642.45.642.15 0 .264-.021.343-.043l.014.671c-.128.05-.357.085-.635.085-.321 0-.592-.107-.756-.285-.185-.2-.271-.514-.271-.97v-1.634h-.499v-.656h.499v-.785l.856-.207zM1000.568 76.485c0 .414.014.756.028 1.042h-.77l-.043-.528h-.014c-.15.25-.492.606-1.113.606-.635 0-1.213-.378-1.213-1.513v-2.04h.878v1.891c0 .578.185.949.649.949.349 0 .578-.249.671-.471.028-.079.05-.171.05-.271v-2.098h.878v2.433zM1001.111 75.172c0-.471-.007-.806-.028-1.12h.763l.028.664h.029c.171-.492.578-.742.949-.742l.207.021v.828l-.257-.028c-.421 0-.706.271-.785.664l-.029.271v1.798h-.878v-2.355zM1003.87 76.035c.021.628.514.899 1.07.899.407 0 .699-.057.963-.157l.128.606c-.3.121-.713.214-1.213.214-1.127 0-1.791-.692-1.791-1.755 0-.963.585-1.869 1.698-1.869 1.127 0 1.498.928 1.498 1.691 0 .164-.014.293-.029.371h-2.326zm1.527-.613c.007-.321-.136-.849-.721-.849-.542 0-.77.492-.806.849h1.527zM1007.694 72.461h.885v5.066h-.885v-5.066zM1009.107 72.461h.885v5.066h-.885v-5.066zM1010.527 75.208c0-.457-.014-.828-.028-1.156h.77l.043.535h.014c.257-.393.664-.614 1.192-.614.799 0 1.463.685 1.463 1.77 0 1.256-.792 1.862-1.584 1.862-.435 0-.799-.185-.978-.464h-.014v1.798h-.878v-3.732zm.878.863l.029.243c.086.357.4.613.77.613.557 0 .885-.464.885-1.149 0-.614-.3-1.113-.863-1.113-.364 0-.699.264-.785.649l-.036.221v.535zM995.347 30.169v11.645l.004.164h9.885c-.25-5.792-4.398-10.591-9.889-11.809zM970.05 30.169v11.809h9.889c-.25-5.792-4.398-10.591-9.889-11.809zM961.331 16.202v52.65h52.65v-52.65h-52.65zm8.719 26.325v15.402h-2.744v-30.804c5.246 0 9.877 2.625 12.658 6.631v-6.631c5.235 0 9.857 2.614 12.64 6.605v-6.605c8.506 0 15.402 6.896 15.402 15.402h-12.64l-.018 15.402h-2.744v-6.605c-2.783 3.991-7.405 6.605-12.64 6.605v-15.402h-9.913zm10.462 0v12.644c6.518-.278 11.751-5.47 12.091-11.971v-1.084c-.189-5.854-4.361-10.719-9.895-11.947v12.358h-2.195z"/><path class="st7" d="M1348.933 64.888c.902 0 1.805-.304 2.538-.835v-1.173c-.677.677-1.613 1.128-2.572 1.128-1.906 0-3.452-1.647-3.452-3.52s1.534-3.519 3.429-3.519c.981 0 1.918.429 2.594 1.128v-1.173c-.756-.564-1.59-.835-2.538-.835-2.436 0-4.433 1.997-4.433 4.433 0 2.414 2.031 4.365 4.433 4.365zM1358.411 64.888c2.425 0 4.433-1.94 4.433-4.388 0-2.437-2.008-4.411-4.433-4.411-2.426 0-4.433 1.974-4.433 4.411 0 2.448 2.008 4.388 4.433 4.388zm0-7.919c1.952 0 3.485 1.59 3.485 3.519 0 1.918-1.557 3.52-3.485 3.52-1.929 0-3.486-1.602-3.486-3.52 0-1.929 1.534-3.519 3.486-3.519z"/><polygon class="st7" points="1366.5284424,58.1872559 1373.1610107,65.124855 1373.1610107,56.2357903 1372.213501,56.2357903 1372.213501,62.8236084 1365.5806885,55.8748207 1365.5806885,64.7412109 1366.5284424,64.7412109"/><path class="st7" d="M1378.735 64.008c-.914 0-1.579-.711-1.703-1.579l-.925.259c.271 1.32 1.286 2.2 2.651 2.2 1.478 0 2.673-1.139 2.673-2.628 0-1.353-.936-1.906-2.042-2.391l-.564-.248c-.575-.259-1.331-.598-1.331-1.331 0-.778.654-1.32 1.41-1.32.722 0 1.128.338 1.467.925l.756-.485c-.451-.835-1.252-1.32-2.2-1.32-1.263 0-2.38.846-2.38 2.166 0 1.218.857 1.726 1.85 2.177l.519.226c.79.361 1.568.699 1.568 1.692 0 .959-.835 1.658-1.749 1.658z"/><polygon class="st7" points="1385.4559326,64.7412109 1386.4034424,64.7412109 1386.4034424,57.1158333 1388.479126,57.1158333 1388.479126,56.2357903 1383.4029541,56.2357903 1383.4029541,57.1158333 1385.4559326,57.1158333"/><path class="st7" d="M1391.853 61.008h.237l2.572 3.734h1.162l-2.707-3.813c1.308-.113 2.132-1.038 2.132-2.346 0-1.918-1.5-2.346-3.113-2.346h-1.23v8.505h.948v-3.734zm0-3.892h.282c1.139 0 2.166.135 2.166 1.534 0 1.32-1.083 1.523-2.155 1.523h-.293v-3.057zM1401.601 64.888c.857 0 1.703-.338 2.29-.97.677-.699.744-1.433.744-2.357v-5.324h-.948v5.065c0 .665.034 1.41-.417 1.951-.395.474-1.06.756-1.669.756-.62 0-1.342-.293-1.714-.812-.395-.541-.373-1.263-.373-1.895v-5.065h-.947v5.324c0 .97.09 1.748.835 2.459.575.564 1.399.869 2.2.869zM1411.544 64.888c.902 0 1.805-.304 2.538-.835v-1.173c-.677.677-1.613 1.128-2.572 1.128-1.906 0-3.452-1.647-3.452-3.52s1.534-3.519 3.429-3.519c.981 0 1.918.429 2.594 1.128v-1.173c-.756-.564-1.59-.835-2.538-.835-2.436 0-4.433 1.997-4.433 4.433 0 2.414 2.031 4.365 4.433 4.365z"/><polygon class="st7" points="1418.5679932,64.7412109 1419.5155029,64.7412109 1419.5155029,57.1158333 1421.5911865,57.1158333 1421.5911865,56.2357903 1416.5150146,56.2357903 1416.5150146,57.1158333 1418.5679932,57.1158333"/><rect x="1424.039" y="56.236" class="st7" width=".948" height="8.505"/><path class="st7" d="M1432.132 64.888c2.425 0 4.433-1.94 4.433-4.388 0-2.437-2.008-4.411-4.433-4.411s-4.433 1.974-4.433 4.411c0 2.448 2.008 4.388 4.433 4.388zm0-7.919c1.951 0 3.485 1.59 3.485 3.519 0 1.918-1.557 3.52-3.485 3.52-1.929 0-3.486-1.602-3.486-3.52 0-1.929 1.534-3.519 3.486-3.519z"/><polygon class="st7" points="1440.2313232,58.1872559 1446.8638916,65.124855 1446.8638916,56.2357903 1445.9163818,56.2357903 1445.9163818,62.8236084 1439.2835693,55.8748207 1439.2835693,64.7412109 1440.2313232,64.7412109"/><path class="st7" d="M1433.638 39.119c1.656 0 2.794-1.305 2.794-2.91 0-1.589-1.137-2.91-2.794-2.91-1.656 0-2.793 1.321-2.793 2.91 0 1.606 1.137 2.91 2.793 2.91zM1405.498 39.086c1.271 0 2.375-.987 3.279-1.773l-2.81-3.613-.602.402c-.953.652-2.091 1.422-2.091 2.71 0 1.188 1.037 2.275 2.225 2.275zM1383.526 39.119c1.656 0 2.793-1.305 2.793-2.91 0-1.589-1.137-2.91-2.793-2.91-1.656 0-2.793 1.321-2.793 2.91 0 1.606 1.137 2.91 2.793 2.91zM1406.3 31.909l.117-.084c.719-.552 1.572-1.037 1.572-2.041 0-.769-.635-1.288-1.371-1.288-.77 0-1.389.602-1.389 1.388 0 .636.418 1.104.77 1.606l.301.418zM1363.741 39.119c1.723 0 2.626-1.388 2.626-2.977 0-1.573-.987-2.844-2.643-2.844-1.555 0-2.559 1.355-2.559 2.827 0 1.539.903 2.994 2.576 2.994zM1339.522 20.738v53.666h110.95v-53.666h-110.95zm99.028 11.539h1.639l2.057 2.676 2.057-2.676h1.673l-2.877 3.68 3.262 4.182h-1.623l-2.492-3.195-2.509 3.195h-1.673l3.345-4.182-2.86-3.68zm-4.912-.217c2.308 0 4.132 1.857 4.132 4.165s-1.84 4.132-4.132 4.132-4.131-1.823-4.131-4.132c0-2.308 1.823-4.165 4.131-4.165zm-8.959-4.751c1.405 0 2.643.401 3.764 1.238v1.739c-1.004-1.037-2.392-1.673-3.847-1.673-2.81 0-5.085 2.442-5.085 5.219s2.292 5.219 5.119 5.219c1.422 0 2.81-.669 3.814-1.673v1.739c-1.087.786-2.426 1.238-3.764 1.238-3.563 0-6.574-2.894-6.574-6.474 0-3.613 2.961-6.574 6.574-6.574zm-19.683 5.453l.15-.1c-.568-.786-1.255-1.639-1.255-2.676 0-1.589 1.188-2.676 2.76-2.676 1.422 0 2.676 1.004 2.676 2.476 0 1.505-1.137 2.325-2.225 3.145l2.66 3.396 1.422-1.656 1.02.836-1.606 1.873 2.141 2.76h-1.773l-1.355-1.773c-1.121 1.004-2.459 1.991-4.031 1.991-1.923 0-3.68-1.439-3.68-3.446 0-2.108 1.522-3.111 3.094-4.148zm-15.807-.485h1.338v.953h.033c.552-.753 1.271-1.171 2.241-1.171 2.175 0 2.676 1.572 2.676 3.412v4.667h-1.338v-4.433c0-1.271-.1-2.409-1.656-2.409-1.84 0-1.957 1.706-1.957 3.111v3.73h-1.338v-7.862zm-5.663-.217c2.308 0 4.132 1.857 4.132 4.165s-1.84 4.132-4.132 4.132-4.131-1.823-4.131-4.132c0-2.308 1.823-4.165 4.131-4.165zm-9.889 2.225c0-1.322 1.071-2.225 2.342-2.225.903 0 1.739.635 2.091 1.455l-1.121.586c-.184-.418-.585-.803-1.071-.803-.468 0-.97.368-.97.87 0 .719.903.987 1.823 1.372.92.385 1.823.937 1.823 2.258 0 1.489-1.204 2.559-2.66 2.559-1.321 0-2.359-.753-2.777-1.991l1.188-.502c.334.736.719 1.255 1.606 1.255.719 0 1.271-.485 1.271-1.204 0-1.756-3.546-1.154-3.546-3.63zm-4.313-2.007h.82v-2.827h1.338v2.827h1.405v1.238h-1.405v6.624h-1.338v-6.624h-.82v-1.238zm-5.75-.217c1.07 0 2.041.502 2.693 1.338h.033v-1.121h1.338v7.862h-1.338v-1.087h-.033c-.686.87-1.606 1.305-2.71 1.305-2.308 0-3.764-1.957-3.764-4.132 0-2.241 1.422-4.165 3.781-4.165zm-18.974-4.533l3.312 9.451 4.082-10.103 4.081 10.103 3.312-9.451h1.522l-4.834 13.265-4.081-10.153-4.082 10.153-4.834-13.265h1.522zm105.269 46.274h-109.744v-26.23h109.744v26.23z"/><path class="st8" d="M199.551 20.73c-.018-1.635-1.307-2.973-2.94-3.052l-30.32-1.472c-1.697-.082-3.143 1.221-3.235 2.918l-3.082 56.558c-.103 1.889 1.501 3.427 3.385 3.244l33.979-3.304c1.596-.155 2.809-1.506 2.791-3.11l-.577-51.782z"/><path class="st9" d="M169.74 65.748c-.52-.289-1.279-.388-2.305-.296-1.68.151-3.137.802-3.405.944-.104.06-.193.135-.193.302l.015.1.268 1.318c.015.1.074.144.164.136l.119-.027c.297-.127 1.487-.603 2.379-.684.416-.037.758-.018.937.084.223.114.283.343.283.746v.302l-2.498.661c-.907.233-2.201.718-2.201 2.815 0 2.583 1.814 2.756 3.732 2.584.907-.082 1.591-.21 2.215-.418.996-.358 1.516-.589 1.516-1.915v-4.563c0-.99-.297-1.701-1.026-2.088zm-1.695 6.879s-.491.178-.981.223c-.446.04-1.085-.053-1.085-.976 0-.889.387-1.058.877-1.186l1.19-.325v2.265zM179.632 73.394l-2.869.258c-.074.007-.164-.002-.208-.099l-1.962-3.095v3.137c0 .151-.104.261-.253.274l-2.26.203c-.149.013-.253-.078-.253-.229v-11.525c0-.268.074-.443.312-.514l2.052-.537.089-.008c.178-.016.312.056.312.307v6.862l2.126-3.429c.059-.14.134-.163.208-.17l.074-.007 2.557-.179c.104-.009.134.088.134.156l-.015.069-2.349 4.17 2.423 4.11.015.066c0 .084-.06.173-.134.18zM185.529 66.02c0 .151-.104.261-.253.274l-2.104.202v3.59c0 .537.089.965.833.898.446-.04.729-.133.922-.183l.06-.005c.134-.012.163.086.193.184l.208 1.29.015.15c0 .151-.059.273-.238.34-.164.065-.833.377-1.888.472-1.918.172-2.899-.494-2.899-2.676v-7.285c0-.269.074-.443.312-.515l2.096-.574.104-.026c.163-.015.282.075.282.31v1.833l2.104-.202c.149-.013.253.078.253.229v1.695z"/><path class="st10" d="M192.336 70.719h.002l.02.002.031.003.019.009.027.016.001.001.035.071v.014l.002.01-.003 1.125c-.001.21-.161.385-.371.403l-3.407.282h-.002l-.02-.002-.031-.003-.019-.009-.027-.016-.002-.002-.034-.07v-.014l-.002-.01.003-1.132c.001-.206.158-.378.364-.396l.345-.028v-8.149l-.575.048h-.002l-.02-.002-.031-.003-.019-.009-.027-.016-.002-.002-.034-.07v-.014l-.002-.01.003-1.132c.001-.206.158-.378.364-.396l3.414-.282h.002l.02.002.031.003.019.009.027.016.001.001.035.071v.014l.002.01-.003 1.125c-.001.21-.161.385-.371.403l-.284.023v8.149l.521-.043zM196.747 70.323h.002l.02.002.031.003.019.009.027.016.001.001.035.071v.014l.002.01-.003 1.125c-.001.21-.161.385-.371.403l-3.407.282h-.002l-.02-.002-.031-.003-.019-.009-.027-.016-.002-.002-.034-.07v-.014l-.002-.01.003-1.132c.001-.206.158-.378.364-.396l.345-.028v-8.149l-.575.048h-.002l-.02-.002-.031-.003-.019-.009-.027-.016-.002-.002-.034-.07v-.014l-.002-.01.003-1.132c.001-.206.158-.378.364-.396l3.414-.282h.002l.02.002.031.003.019.009.027.016.001.001.035.071v.014l.002.01-.003 1.125c-.001.21-.161.385-.371.403l-.284.023v8.149l.521-.043z"/></svg>