<?xml version="1.0" encoding="UTF-8" standalone="no"?>
<svg
   xmlns:dc="http://purl.org/dc/elements/1.1/"
   xmlns:cc="http://creativecommons.org/ns#"
   xmlns:rdf="http://www.w3.org/1999/02/22-rdf-syntax-ns#"
   xmlns:svg="http://www.w3.org/2000/svg"
   xmlns="http://www.w3.org/2000/svg"
   viewBox="0 0 95.927597 95.973869"
   height="95.973869"
   width="95.927597"
   xml:space="preserve"
   id="svg2"
   version="1.1"><metadata
     id="metadata8"><rdf:RDF><cc:Work
         rdf:about=""><dc:format>image/svg+xml</dc:format><dc:type
           rdf:resource="http://purl.org/dc/dcmitype/StillImage" /></cc:Work></rdf:RDF></metadata><defs
     id="defs6"><clipPath
       id="clipPath18"
       clipPathUnits="userSpaceOnUse"><path
         id="path16"
         d="M 0,71.98 H 71.946 V 0 H 0 Z" /></clipPath></defs><g
     transform="matrix(1.3333333,0,0,-1.3333333,0,95.973867)"
     id="g10"><g
       id="g12"><g
         clip-path="url(#clipPath18)"
         id="g14"><g
           transform="translate(48.5875,51.4623)"
           id="g20"><path
             id="path22"
             style="fill:#545455;fill-opacity:1;fill-rule:nonzero;stroke:none"
             d="m 0,0 -0.981,0.044 c 0,-0.004 0,-0.007 -0.001,-0.011 -0.068,-1.421 -0.013,-2.618 0.076,-3.548 0.082,-0.069 0.163,-0.14 0.24,-0.217 1.543,-1.542 1.543,-4.044 0,-5.586 -1.542,-1.543 -4.043,-1.543 -5.586,0 -1.296,1.296 -1.499,3.268 -0.616,4.78 -0.142,1.257 -0.234,2.894 -0.14,4.85 l -6.256,0.279 c -0.9,0.04 -1.777,-0.301 -2.414,-0.938 l -19.775,-19.776 c -1.255,-1.254 -1.255,-3.288 0,-4.543 l 13.854,-13.854 c 1.254,-1.254 3.288,-1.254 4.543,0 l 19.775,19.776 c 0.638,0.637 0.978,1.513 0.938,2.414 L 3.066,-3.066 C 2.992,-1.404 1.662,-0.074 0,0" /></g><g
           transform="translate(59.7522,51.2146)"
           id="g24"><path
             id="path26"
             style="fill:#545455;fill-opacity:1;fill-rule:nonzero;stroke:none"
             d="m 0,0 c -0.025,2.637 -0.928,4.885 -2.613,6.499 -1.503,1.442 -3.521,2.259 -5.68,2.3 -5.354,0.104 -8.359,-4.093 -8.561,-8.292 -0.212,-4.405 0.568,-7.144 0.602,-7.259 0.261,-0.897 1.198,-1.411 2.096,-1.153 0.899,0.258 1.419,1.197 1.163,2.096 -0.006,0.023 -0.654,2.362 -0.472,6.153 0.172,3.562 2.688,5.109 5.106,5.062 2.447,-0.047 4.93,-1.747 4.966,-5.438 0.042,-4.459 -0.333,-6.931 -2.524,-11.923 -0.376,-0.858 0.014,-1.859 0.872,-2.235 0.659,-0.29 1.403,-0.126 1.882,0.354 0.145,0.145 0.267,0.318 0.354,0.517 C -0.58,-8.239 0.05,-5.252 0,0" /></g></g></g></g></svg>