<?xml version="1.0" encoding="UTF-8" standalone="no"?>
<svg
   xmlns:dc="http://purl.org/dc/elements/1.1/"
   xmlns:cc="http://creativecommons.org/ns#"
   xmlns:rdf="http://www.w3.org/1999/02/22-rdf-syntax-ns#"
   xmlns:svg="http://www.w3.org/2000/svg"
   xmlns="http://www.w3.org/2000/svg"
   viewBox="0 0 220.61333 131.06667"
   height="131.06667"
   width="220.61333"
   xml:space="preserve"
   id="svg2"
   version="1.1"><metadata
     id="metadata8"><rdf:RDF><cc:Work
         rdf:about=""><dc:format>image/svg+xml</dc:format><dc:type
           rdf:resource="http://purl.org/dc/dcmitype/StillImage" /></cc:Work></rdf:RDF></metadata><defs
     id="defs6"><clipPath
       id="clipPath34"
       clipPathUnits="userSpaceOnUse"><path
         id="path32"
         d="M 0,98.3 H 165.46 V 0 H 0 Z" /></clipPath></defs><g
     transform="matrix(1.3333333,0,0,-1.3333333,0,131.06667)"
     id="g10"><g
       transform="translate(16.9613,79.3701)"
       id="g12"><path
         id="path14"
         style="fill:#c55699;fill-opacity:1;fill-rule:nonzero;stroke:none"
         d="M 0,0 -2.156,7.119 -4.313,0 Z M 7.444,-7.887 H 2.334 L 1.093,-3.722 H -5.464 L -6.735,-7.887 H -10.9 l 6.499,20.264 h 5.494 z" /></g><g
       transform="translate(38.4969,75.5005)"
       id="g16"><path
         id="path18"
         style="fill:#c55699;fill-opacity:1;fill-rule:nonzero;stroke:none"
         d="m 0,0 v -4.017 h -12.879 v 20.263 h 4.726 L -8.153,0 Z" /></g><g
       transform="translate(52.3819,75.5005)"
       id="g20"><path
         id="path22"
         style="fill:#c55699;fill-opacity:1;fill-rule:nonzero;stroke:none"
         d="m 0,0 v -4.017 h -12.879 v 20.263 h 4.726 L -8.153,0 Z" /></g><g
       transform="translate(58.2022,87.8183)"
       id="g24"><path
         id="path26"
         style="fill:#c55699;fill-opacity:1;fill-rule:nonzero;stroke:none"
         d="m 0,0 v -4.608 h 7.71 v -3.81 H 0 v -7.917 H -4.726 V 3.929 H 9.689 V 0 Z" /></g><g
       id="g28"><g
         clip-path="url(#clipPath34)"
         id="g30"><g
           transform="translate(73.3269,85.8684)"
           id="g36"><path
             id="path38"
             style="fill:#c55699;fill-opacity:1;fill-rule:nonzero;stroke:none"
             d="m 0,0 c -0.473,-1.211 -0.65,-2.954 -0.65,-4.224 0,-2.54 0.384,-6.587 3.722,-6.587 1.625,0 2.511,0.797 3.043,2.304 0.472,1.241 0.62,2.924 0.62,4.253 0,1.478 -0.148,3.22 -0.739,4.579 C 5.406,1.684 4.549,2.304 3.072,2.304 1.448,2.304 0.561,1.477 0,0 m -3.485,-11.491 c -1.477,2.098 -2.127,4.727 -2.127,7.267 0,5.376 2.688,10.398 8.684,10.398 2.688,0 4.815,-0.887 6.44,-3.102 1.447,-1.979 2.186,-4.844 2.186,-7.296 0,-2.304 -0.621,-5.11 -1.921,-7.03 -1.565,-2.304 -3.957,-3.426 -6.705,-3.426 -2.747,0 -4.962,0.945 -6.557,3.189" /></g><g
           transform="translate(91.9975,82.9737)"
           id="g40"><path
             id="path42"
             style="fill:#c55699;fill-opacity:1;fill-rule:nonzero;stroke:none"
             d="M 0,0 H 2.599 C 3.574,0 4.638,-0.089 5.494,0.414 6.262,0.886 6.676,1.831 6.676,2.718 6.676,3.515 6.203,4.372 5.523,4.785 4.726,5.287 3.367,5.169 2.481,5.169 H 0 Z M 0,-11.491 H -4.726 V 8.773 H 3.81 c 1.802,0 3.634,-0.03 5.199,-1.034 1.654,-1.093 2.57,-3.072 2.57,-5.051 0,-2.304 -1.329,-4.431 -3.515,-5.228 l 3.751,-8.951 H 6.557 L 3.456,-3.486 H 0 Z" /></g><g
           transform="translate(110.4606,75.2939)"
           id="g44"><path
             id="path46"
             style="fill:#c55699;fill-opacity:1;fill-rule:nonzero;stroke:none"
             d="m 0,0 h 1.595 c 1.979,0 3.249,0.384 4.342,2.156 0.798,1.3 1.123,2.865 1.123,4.372 0,1.595 -0.473,3.308 -1.448,4.579 -1.093,1.417 -2.304,1.624 -3.988,1.624 H 0 Z m 1.152,16.453 c 2.924,0 5.435,-0.177 7.65,-2.274 2.186,-2.068 3.131,-4.874 3.131,-7.799 0,-2.717 -0.827,-5.347 -2.629,-7.385 C 7.296,-3.22 4.814,-3.811 1.949,-3.811 h -6.675 v 20.264 z" /></g><g
           transform="translate(23.3714,49.327)"
           id="g48"><path
             id="path50"
             style="fill:#c55699;fill-opacity:1;fill-rule:nonzero;stroke:none"
             d="m 0,0 h -4.726 v 8.359 h -6.262 V 0 h -4.726 v 20.264 h 4.726 v -7.917 h 6.262 v 7.917 H 0 Z" /></g><g
           transform="translate(35.5721,57.2139)"
           id="g52"><path
             id="path54"
             style="fill:#c55699;fill-opacity:1;fill-rule:nonzero;stroke:none"
             d="M 0,0 -2.156,7.119 -4.313,0 Z M 7.444,-7.887 H 2.334 L 1.093,-3.722 H -5.464 L -6.735,-7.887 H -10.9 l 6.499,20.264 h 5.494 z" /></g><g
           transform="translate(57.1081,53.3442)"
           id="g56"><path
             id="path58"
             style="fill:#c55699;fill-opacity:1;fill-rule:nonzero;stroke:none"
             d="m 0,0 v -4.017 h -12.879 v 20.263 h 4.726 L -8.153,0 Z" /></g><g
           transform="translate(70.9927,53.3442)"
           id="g60"><path
             id="path62"
             style="fill:#c55699;fill-opacity:1;fill-rule:nonzero;stroke:none"
             d="m 0,0 v -4.017 h -12.879 v 20.263 h 4.726 L -8.153,0 Z" /></g><g
           transform="translate(19.9744,27.1707)"
           id="g64"><path
             id="path66"
             style="fill:#c55699;fill-opacity:1;fill-rule:nonzero;stroke:none"
             d="M 0,0 H -3.249 L -8.182,16.512 H -8.241 V 0 h -3.988 v 20.264 h 7.414 L -1.27,8.123 2.452,20.264 H 9.866 V 0 H 5.14 V 16.512 H 5.021 Z" /></g><g
           transform="translate(37.5814,41.5559)"
           id="g68"><path
             id="path70"
             style="fill:#c55699;fill-opacity:1;fill-rule:nonzero;stroke:none"
             d="m 0,0 c -0.473,-1.211 -0.65,-2.954 -0.65,-4.224 0,-2.54 0.384,-6.587 3.722,-6.587 1.625,0 2.511,0.797 3.043,2.304 0.472,1.241 0.62,2.924 0.62,4.253 0,1.478 -0.148,3.22 -0.739,4.579 C 5.406,1.684 4.549,2.304 3.072,2.304 1.448,2.304 0.561,1.477 0,0 m -3.485,-11.491 c -1.477,2.098 -2.127,4.727 -2.127,7.267 0,5.376 2.688,10.398 8.684,10.398 2.688,0 4.815,-0.887 6.44,-3.102 1.447,-1.979 2.186,-4.844 2.186,-7.296 0,-2.304 -0.621,-5.11 -1.921,-7.03 -1.565,-2.304 -3.958,-3.426 -6.705,-3.426 -2.747,0 -4.962,0.945 -6.557,3.189" /></g><g
           transform="translate(67.0335,27.1707)"
           id="g72"><path
             id="path74"
             style="fill:#c55699;fill-opacity:1;fill-rule:nonzero;stroke:none"
             d="m 0,0 h -4.047 l -7.768,13.617 h -0.119 V 0 h -3.662 v 20.264 h 5.11 L -3.722,8.36 h 0.059 V 20.264 H 0 Z" /></g><g
           transform="translate(79.2932,35.0576)"
           id="g76"><path
             id="path78"
             style="fill:#c55699;fill-opacity:1;fill-rule:nonzero;stroke:none"
             d="M 0,0 -2.156,7.119 -4.313,0 Z M 7.444,-7.887 H 2.334 L 1.093,-3.722 H -5.464 L -6.735,-7.887 H -10.9 l 6.499,20.264 h 5.494 z" /></g><g
           transform="translate(95.0984,34.2303)"
           id="g80"><path
             id="path82"
             style="fill:#c55699;fill-opacity:1;fill-rule:nonzero;stroke:none"
             d="M 0,0 V 3.781 H 8.33 V -7.06 H 6.174 l -0.68,2.334 C 3.988,-6.557 2.333,-7.355 -0.03,-7.355 c -5.937,0 -8.388,4.933 -8.388,10.25 0,5.494 2.688,10.604 8.802,10.604 4.372,0 7.326,-2.658 7.946,-6.941 L 3.84,5.937 c -0.207,2.039 -1.3,3.752 -3.574,3.752 -3.338,0 -3.84,-4.343 -3.84,-6.853 0,-2.629 0.738,-6.351 4.047,-6.351 2.067,0 3.485,1.448 3.367,3.515 z" /></g><g
           transform="translate(121.8917,27.1707)"
           id="g84"><path
             id="path86"
             style="fill:#c55699;fill-opacity:1;fill-rule:nonzero;stroke:none"
             d="m 0,0 h -4.726 v 8.36 h -6.262 V 0 h -4.726 v 20.264 h 4.726 v -7.917 h 6.262 v 7.917 H 0 Z" /></g><g
           transform="translate(134.0924,35.0576)"
           id="g88"><path
             id="path90"
             style="fill:#c55699;fill-opacity:1;fill-rule:nonzero;stroke:none"
             d="M 0,0 -2.156,7.119 -4.313,0 Z M 7.444,-7.887 H 2.334 L 1.093,-3.722 H -5.464 L -6.735,-7.887 H -10.9 l 6.499,20.264 h 5.494 z" /></g><g
           transform="translate(158.4637,27.1707)"
           id="g92"><path
             id="path94"
             style="fill:#c55699;fill-opacity:1;fill-rule:nonzero;stroke:none"
             d="m 0,0 h -4.047 l -7.768,13.617 h -0.119 V 0 h -3.662 v 20.264 h 5.11 L -3.722,8.36 h 0.059 V 20.264 H 0 Z" /></g><g
           transform="translate(19.9744,5.0145)"
           id="g96"><path
             id="path98"
             style="fill:#c55699;fill-opacity:1;fill-rule:nonzero;stroke:none"
             d="M 0,0 H -3.249 L -8.182,16.512 H -8.241 V 0 h -3.988 v 20.264 h 7.414 L -1.27,8.123 2.452,20.264 H 9.866 V 0 H 5.14 V 16.512 H 5.021 Z" /></g><g
           transform="translate(37.5814,19.3996)"
           id="g100"><path
             id="path102"
             style="fill:#c55699;fill-opacity:1;fill-rule:nonzero;stroke:none"
             d="m 0,0 c -0.473,-1.211 -0.65,-2.954 -0.65,-4.224 0,-2.54 0.384,-6.587 3.722,-6.587 1.625,0 2.511,0.797 3.043,2.304 0.472,1.241 0.62,2.924 0.62,4.253 0,1.478 -0.148,3.22 -0.739,4.579 C 5.406,1.684 4.549,2.304 3.072,2.304 1.448,2.304 0.561,1.477 0,0 m -3.485,-11.491 c -1.477,2.098 -2.127,4.727 -2.127,7.267 0,5.376 2.688,10.398 8.684,10.398 2.688,0 4.815,-0.887 6.44,-3.102 1.447,-1.979 2.186,-4.844 2.186,-7.296 0,-2.304 -0.621,-5.11 -1.921,-7.03 -1.565,-2.304 -3.958,-3.426 -6.705,-3.426 -2.747,0 -4.962,0.945 -6.557,3.189" /></g><g
           transform="translate(56.2519,16.505)"
           id="g104"><path
             id="path106"
             style="fill:#c55699;fill-opacity:1;fill-rule:nonzero;stroke:none"
             d="M 0,0 H 2.599 C 3.574,0 4.638,-0.089 5.494,0.414 6.262,0.886 6.676,1.831 6.676,2.718 6.676,3.515 6.203,4.372 5.524,4.785 4.726,5.287 3.367,5.169 2.481,5.169 H 0 Z M 0,-11.491 H -4.726 V 8.773 H 3.81 c 1.802,0 3.634,-0.03 5.199,-1.034 1.654,-1.093 2.57,-3.072 2.57,-5.051 0,-2.304 -1.329,-4.431 -3.515,-5.228 l 3.751,-8.951 H 6.557 L 3.456,-3.486 H 0 Z" /></g><g
           transform="translate(74.8627,16.505)"
           id="g108"><path
             id="path110"
             style="fill:#c55699;fill-opacity:1;fill-rule:nonzero;stroke:none"
             d="M 0,0 H 2.599 C 3.574,0 4.638,-0.089 5.494,0.414 6.262,0.886 6.676,1.831 6.676,2.718 6.676,3.515 6.203,4.372 5.523,4.785 4.726,5.287 3.367,5.169 2.481,5.169 H 0 Z M 0,-11.491 H -4.726 V 8.773 H 3.81 c 1.802,0 3.634,-0.03 5.199,-1.034 1.654,-1.093 2.57,-3.072 2.57,-5.051 0,-2.304 -1.329,-4.431 -3.515,-5.228 l 3.751,-8.951 H 6.557 L 3.456,-3.486 H 0 Z" /></g><path
           id="path112"
           style="fill:#c55699;fill-opacity:1;fill-rule:nonzero;stroke:none"
           d="m 93.474,5.014 h -4.726 v 20.264 h 4.726 z" /><g
           transform="translate(106.8846,19.4883)"
           id="g114"><path
             id="path116"
             style="fill:#c55699;fill-opacity:1;fill-rule:nonzero;stroke:none"
             d="m 0,0 c -0.591,1.713 -1.684,2.393 -3.486,2.393 -1.27,0 -2.806,-0.325 -2.806,-1.891 0,-1.477 1.772,-1.831 2.924,-2.038 1.654,-0.354 3.87,-0.768 5.288,-1.713 1.654,-1.093 2.658,-2.777 2.658,-4.786 0,-1.979 -0.945,-3.869 -2.511,-5.08 -1.624,-1.27 -3.84,-1.654 -5.878,-1.654 -3.81,0 -7.266,1.654 -8.182,5.612 l 4.372,1.005 c 0.591,-2.127 2.126,-2.866 4.224,-2.866 1.358,0 3.161,0.502 3.161,2.186 0,1.684 -2.304,2.009 -3.545,2.275 -3.604,0.738 -7.149,1.802 -7.149,6.232 0,1.89 0.739,3.545 2.187,4.756 1.476,1.24 3.219,1.654 5.08,1.654 3.545,0 6.439,-1.24 7.68,-4.756 z" /></g></g></g></g></svg>