<?xml version="1.0" encoding="UTF-8" standalone="no"?>
<svg
   xmlns:dc="http://purl.org/dc/elements/1.1/"
   xmlns:cc="http://creativecommons.org/ns#"
   xmlns:rdf="http://www.w3.org/1999/02/22-rdf-syntax-ns#"
   xmlns:svg="http://www.w3.org/2000/svg"
   xmlns="http://www.w3.org/2000/svg"
   viewBox="0 0 90.537735 131.06667"
   height="131.06667"
   width="90.537735"
   xml:space="preserve"
   id="svg2"
   version="1.1"><metadata
     id="metadata8"><rdf:RDF><cc:Work
         rdf:about=""><dc:format>image/svg+xml</dc:format><dc:type
           rdf:resource="http://purl.org/dc/dcmitype/StillImage" /></cc:Work></rdf:RDF></metadata><defs
     id="defs6"><clipPath
       id="clipPath18"
       clipPathUnits="userSpaceOnUse"><path
         id="path16"
         d="M 0,98.3 H 67.903 V 0 H 0 Z" /></clipPath></defs><g
     transform="matrix(1.3333333,0,0,-1.3333333,0,131.06667)"
     id="g10"><g
       id="g12"><g
         clip-path="url(#clipPath18)"
         id="g14"><g
           transform="translate(60.7041,84.08)"
           id="g20"><path
             id="path22"
             style="fill:#6f6a66;fill-opacity:1;fill-rule:nonzero;stroke:none"
             d="m 0,0 c -0.025,2.246 -1.795,4.083 -4.038,4.192 l -41.648,2.023 c -2.332,0.113 -4.317,-1.678 -4.444,-4.009 l -4.234,-77.688 c -0.142,-2.595 2.062,-4.707 4.649,-4.456 l 46.674,4.538 c 2.193,0.213 3.858,2.069 3.833,4.272 z" /></g><g
           transform="translate(17.4273,12.793)"
           id="g24"><path
             id="path26"
             style="fill:#ffffff;fill-opacity:1;fill-rule:nonzero;stroke:none"
             d="m 0,0 c 0,0 -0.674,-0.245 -1.348,-0.306 -0.613,-0.055 -1.491,0.073 -1.491,1.341 0,1.221 0.531,1.453 1.205,1.629 L 0,3.111 Z M 2.328,9.45 C 1.613,9.847 0.572,9.983 -0.838,9.856 -3.145,9.649 -5.147,8.754 -5.514,8.56 -5.657,8.478 -5.78,8.375 -5.78,8.145 c 0,-0.047 0,-0.093 0.021,-0.137 l 0.367,-1.81 C -5.371,6.061 -5.29,6 -5.167,6.01 c 0.061,0.006 0.102,0.01 0.163,0.038 0.409,0.175 2.042,0.829 3.268,0.939 0.572,0.051 1.041,0.025 1.287,-0.115 0.306,-0.156 0.388,-0.471 0.388,-1.025 V 5.433 L -3.492,4.525 c -1.246,-0.32 -3.023,-0.986 -3.023,-3.867 0,-3.549 2.492,-3.786 5.126,-3.549 1.246,0.112 2.185,0.289 3.043,0.574 1.368,0.492 2.083,0.809 2.083,2.63 v 6.268 c 0,1.359 -0.409,2.336 -1.409,2.869" /></g><g
           transform="translate(33.3422,11.7403)"
           id="g28"><path
             id="path30"
             style="fill:#ffffff;fill-opacity:1;fill-rule:nonzero;stroke:none"
             d="m 0,0 -3.941,-0.354 c -0.102,-0.01 -0.225,0.003 -0.286,0.135 l -2.696,4.251 v -4.309 c 0,-0.208 -0.143,-0.359 -0.347,-0.377 l -3.104,-0.279 c -0.204,-0.018 -0.348,0.107 -0.348,0.315 v 15.831 c 0,0.368 0.103,0.608 0.429,0.707 l 2.819,0.737 0.122,0.011 c 0.245,0.022 0.429,-0.076 0.429,-0.422 V 6.82 l 2.92,4.711 c 0.082,0.192 0.184,0.224 0.286,0.233 l 0.102,0.009 3.513,0.247 c 0.143,0.012 0.184,-0.122 0.184,-0.214 0,-0.046 -0.021,-0.071 -0.021,-0.094 L -3.165,5.983 0.163,0.337 C 0.184,0.293 0.184,0.27 0.184,0.247 0.184,0.132 0.102,0.009 0,0" /></g><g
           transform="translate(41.4424,21.8689)"
           id="g32"><path
             id="path34"
             style="fill:#ffffff;fill-opacity:1;fill-rule:nonzero;stroke:none"
             d="m 0,0 c 0,-0.207 -0.143,-0.359 -0.347,-0.377 l -2.89,-0.277 v -4.931 c 0,-0.737 0.123,-1.325 1.144,-1.234 0.612,0.056 1,0.183 1.266,0.252 l 0.082,0.008 c 0.183,0.016 0.224,-0.118 0.265,-0.253 l 0.286,-1.772 c 0.02,-0.067 0.02,-0.136 0.02,-0.205 0,-0.207 -0.081,-0.376 -0.326,-0.467 -0.225,-0.09 -1.144,-0.518 -2.594,-0.649 -2.635,-0.236 -3.982,0.679 -3.982,3.676 V 3.778 c 0,0.369 0.102,0.608 0.429,0.707 l 2.879,0.789 c 0.061,0.006 0.102,0.032 0.143,0.035 0.224,0.021 0.388,-0.103 0.388,-0.425 V 2.365 l 2.89,0.277 C -0.143,2.661 0,2.535 0,2.328 Z" /></g><g
           transform="translate(50.7931,15.4141)"
           id="g36"><path
             id="path38"
             style="fill:#cbd22b;fill-opacity:1;fill-rule:nonzero;stroke:none"
             d="M 0,0 H 0.003 C 0.013,0.001 0.02,-0.002 0.03,-0.002 0.044,-0.003 0.059,-0.003 0.073,-0.006 0.083,-0.009 0.09,-0.014 0.099,-0.019 0.113,-0.025 0.126,-0.031 0.137,-0.04 0.138,-0.041 0.138,-0.042 0.139,-0.043 0.167,-0.067 0.186,-0.1 0.186,-0.139 v -0.019 c 0,-0.005 0.002,-0.009 0.002,-0.014 L 0.184,-1.718 C 0.183,-2.006 -0.038,-2.246 -0.325,-2.271 l -4.68,-0.387 h -0.003 c -0.01,-10e-4 -0.018,0.002 -0.028,0.002 -0.014,0.001 -0.029,0.001 -0.042,0.004 -0.01,0.003 -0.018,0.008 -0.027,0.013 -0.013,0.006 -0.026,0.012 -0.037,0.021 -10e-4,10e-4 -0.002,0.002 -0.002,0.003 -0.029,0.024 -0.048,0.057 -0.047,0.096 V -2.5 c -0.001,0.005 -0.003,0.009 -0.003,0.014 l 0.005,1.555 c 0.001,0.283 0.218,0.519 0.5,0.543 l 0.473,0.039 V 10.845 L -5.005,10.78 h -0.003 c -0.01,-10e-4 -0.018,0.002 -0.028,0.003 -0.014,0 -0.029,0 -0.042,0.003 -0.01,0.003 -0.018,0.009 -0.027,0.013 -0.013,0.006 -0.026,0.012 -0.037,0.021 -10e-4,10e-4 -0.002,0.002 -0.002,0.003 -0.029,0.024 -0.048,0.057 -0.047,0.096 v 0.019 c -0.001,0.005 -0.003,0.009 -0.003,0.014 l 0.005,1.555 c 0.001,0.283 0.218,0.519 0.5,0.543 L 0,13.438 H 0.003 C 0.013,13.439 0.02,13.436 0.03,13.436 0.044,13.435 0.059,13.435 0.073,13.432 0.083,13.429 0.09,13.424 0.099,13.419 0.113,13.413 0.126,13.407 0.137,13.398 0.138,13.397 0.138,13.396 0.139,13.395 0.167,13.371 0.186,13.338 0.186,13.299 V 13.28 c 0,-0.005 0.002,-0.009 0.002,-0.014 L 0.184,11.72 C 0.183,11.432 -0.038,11.192 -0.325,11.167 l -0.39,-0.032 V -0.059 Z" /></g><g
           transform="translate(56.8518,15.9589)"
           id="g40"><path
             id="path42"
             style="fill:#cbd22b;fill-opacity:1;fill-rule:nonzero;stroke:none"
             d="M 0,0 H 0.003 C 0.013,0.001 0.02,-0.002 0.03,-0.002 0.044,-0.003 0.059,-0.003 0.073,-0.006 0.083,-0.009 0.09,-0.014 0.099,-0.019 0.113,-0.025 0.126,-0.031 0.137,-0.04 0.138,-0.041 0.138,-0.042 0.139,-0.043 0.167,-0.067 0.186,-0.1 0.186,-0.139 v -0.019 c 0,-0.005 0.002,-0.009 0.002,-0.014 L 0.184,-1.718 C 0.183,-2.006 -0.038,-2.246 -0.325,-2.271 l -4.68,-0.387 h -0.003 c -0.01,-10e-4 -0.018,0.002 -0.028,0.002 -0.014,0.001 -0.029,0.001 -0.042,0.004 -0.01,0.003 -0.018,0.008 -0.027,0.013 -0.013,0.006 -0.026,0.012 -0.037,0.021 -10e-4,10e-4 -0.002,0.002 -0.002,0.003 -0.029,0.024 -0.048,0.057 -0.047,0.096 V -2.5 c -0.001,0.005 -0.003,0.009 -0.003,0.014 l 0.005,1.555 c 0.001,0.283 0.218,0.519 0.5,0.543 l 0.473,0.039 V 10.845 L -5.005,10.78 h -0.003 c -0.01,-10e-4 -0.018,0.002 -0.028,0.003 -0.014,0 -0.029,0 -0.042,0.003 -0.01,0.003 -0.018,0.009 -0.027,0.013 -0.013,0.006 -0.026,0.012 -0.037,0.021 -10e-4,10e-4 -0.002,0.002 -0.002,0.003 -0.029,0.024 -0.048,0.057 -0.047,0.096 v 0.019 c -0.001,0.005 -0.003,0.009 -0.003,0.014 l 0.005,1.555 c 0.001,0.283 0.218,0.519 0.5,0.543 L 0,13.438 H 0.003 C 0.013,13.439 0.02,13.436 0.03,13.436 0.044,13.435 0.059,13.435 0.073,13.432 0.083,13.429 0.09,13.424 0.099,13.419 0.113,13.413 0.126,13.407 0.137,13.398 0.138,13.397 0.138,13.396 0.139,13.395 0.167,13.371 0.186,13.338 0.186,13.299 V 13.28 c 0,-0.005 0.002,-0.009 0.002,-0.014 L 0.184,11.72 C 0.183,11.432 -0.038,11.192 -0.325,11.167 l -0.39,-0.032 V -0.059 Z" /></g></g></g></g></svg>