<?xml version="1.0" encoding="UTF-8" standalone="no"?>
<svg
   xmlns:dc="http://purl.org/dc/elements/1.1/"
   xmlns:cc="http://creativecommons.org/ns#"
   xmlns:rdf="http://www.w3.org/1999/02/22-rdf-syntax-ns#"
   xmlns:svg="http://www.w3.org/2000/svg"
   xmlns="http://www.w3.org/2000/svg"
   viewBox="0 0 220.61333 131.06667"
   height="131.06667"
   width="220.61333"
   xml:space="preserve"
   id="svg2"
   version="1.1"><metadata
     id="metadata8"><rdf:RDF><cc:Work
         rdf:about=""><dc:format>image/svg+xml</dc:format><dc:type
           rdf:resource="http://purl.org/dc/dcmitype/StillImage" /></cc:Work></rdf:RDF></metadata><defs
     id="defs6"><clipPath
       id="clipPath18"
       clipPathUnits="userSpaceOnUse"><path
         id="path16"
         d="M 0,98.3 H 165.46 V 0 H 0 Z" /></clipPath></defs><g
     transform="matrix(1.3333333,0,0,-1.3333333,0,131.06667)"
     id="g10"><g
       id="g12"><g
         clip-path="url(#clipPath18)"
         id="g14"><g
           transform="translate(18.5071,41.7229)"
           id="g20"><path
             id="path22"
             style="fill:#000000;fill-opacity:1;fill-rule:nonzero;stroke:none"
             d="m 0,0 c -1.114,-0.262 -2.315,-0.48 -3.472,-0.48 -4.935,0 -8.364,2.467 -8.364,7.621 0,5.219 3.188,8.145 8.364,8.145 1.004,0 2.336,-0.196 3.45,-0.633 L -0.24,12.076 c -1.158,0.655 -2.206,0.808 -3.298,0.808 -3.144,0 -5.11,-2.402 -5.11,-5.525 0,-3.101 1.922,-5.437 5.176,-5.437 1.201,0 2.62,0.262 3.341,0.633 z" /></g><g
           transform="translate(19.839,57.8824)"
           id="g24"><path
             id="path26"
             style="fill:#000000;fill-opacity:1;fill-rule:nonzero;stroke:none"
             d="M 0,0 H 2.926 V -6.66 H 2.97 c 0.742,1.091 2.009,1.79 3.537,1.79 2.665,0 3.822,-1.878 3.822,-4.411 v -7.097 H 7.403 v 6.005 c 0,1.376 -0.022,3.232 -1.9,3.232 -2.118,0 -2.577,-2.293 -2.577,-3.734 v -5.503 H 0 Z" /></g><g
           transform="translate(36.457,43.3825)"
           id="g28"><path
             id="path30"
             style="fill:#000000;fill-opacity:1;fill-rule:nonzero;stroke:none"
             d="M 0,0 C 0.895,0 1.594,0.393 2.052,1.005 2.533,1.638 2.664,2.446 2.664,3.319 H 1.398 C 0.087,3.319 -1.856,3.101 -1.856,1.376 -1.856,0.415 -1.048,0 0,0 M -3.429,8.779 C -2.293,9.303 -0.764,9.63 0.48,9.63 3.909,9.63 5.328,8.211 5.328,4.892 V 3.45 C 5.328,2.315 5.35,1.463 5.372,0.633 5.394,-0.218 5.437,-1.005 5.503,-1.878 H 2.926 C 2.817,-1.289 2.817,-0.546 2.795,-0.196 H 2.751 C 2.074,-1.441 0.611,-2.14 -0.721,-2.14 c -1.987,0 -3.93,1.201 -3.93,3.341 0,1.682 0.808,2.664 1.921,3.21 1.114,0.546 2.555,0.655 3.778,0.655 h 1.616 c 0,1.813 -0.808,2.424 -2.533,2.424 -1.245,0 -2.489,-0.48 -3.472,-1.223 z" /></g><g
           transform="translate(46.9609,47.1602)"
           id="g32"><path
             id="path34"
             style="fill:#000000;fill-opacity:1;fill-rule:nonzero;stroke:none"
             d="M 0,0 C 0,-1.594 0.633,-3.647 2.577,-3.647 4.498,-3.647 5.044,-1.55 5.044,0 5.044,1.507 4.52,3.581 2.62,3.581 0.742,3.581 0,1.572 0,0 m -2.948,5.59 h 2.795 V 3.996 h 0.044 c 0.655,1.092 1.769,1.856 3.494,1.856 3.45,0 4.716,-2.751 4.716,-5.852 0,-3.079 -1.266,-5.918 -4.782,-5.918 -1.245,0 -2.271,0.306 -3.297,1.551 h -0.044 v -5.875 h -2.926 z" /></g><g
           transform="translate(56.6563,52.7505)"
           id="g36"><path
             id="path38"
             style="fill:#000000;fill-opacity:1;fill-rule:nonzero;stroke:none"
             d="m 0,0 h 2.73 v -1.572 h 0.043 c 0.918,1.376 2.25,1.834 3.341,1.834 1.573,0 2.687,-0.589 3.32,-1.987 0.677,1.354 2.14,1.987 3.516,1.987 2.773,0 3.559,-1.9 3.559,-4.411 v -7.097 h -2.926 v 6.704 c 0,1.048 0,2.533 -1.682,2.533 -1.943,0 -2.183,-2.314 -2.183,-3.778 v -5.459 H 6.792 v 6.704 c 0,1.048 0,2.533 -1.682,2.533 -1.943,0 -2.184,-2.314 -2.184,-3.778 v -5.459 H 0 Z" /></g><g
           transform="translate(79.3887,43.3825)"
           id="g40"><path
             id="path42"
             style="fill:#000000;fill-opacity:1;fill-rule:nonzero;stroke:none"
             d="m 0,0 c 0.895,0 1.594,0.393 2.053,1.005 0.48,0.633 0.611,1.441 0.611,2.314 H 1.398 C 0.087,3.319 -1.856,3.101 -1.856,1.376 -1.856,0.415 -1.048,0 0,0 m -3.428,8.779 c 1.135,0.524 2.664,0.851 3.909,0.851 3.428,0 4.847,-1.419 4.847,-4.738 V 3.45 C 5.328,2.315 5.35,1.463 5.372,0.633 5.394,-0.218 5.438,-1.005 5.503,-1.878 H 2.926 C 2.817,-1.289 2.817,-0.546 2.795,-0.196 H 2.752 C 2.075,-1.441 0.611,-2.14 -0.72,-2.14 c -1.988,0 -3.931,1.201 -3.931,3.341 0,1.682 0.808,2.664 1.921,3.21 1.114,0.546 2.555,0.655 3.778,0.655 h 1.616 c 0,1.813 -0.808,2.424 -2.533,2.424 -1.245,0 -2.489,-0.48 -3.472,-1.223 z" /></g><g
           transform="translate(86.9447,52.7505)"
           id="g44"><path
             id="path46"
             style="fill:#000000;fill-opacity:1;fill-rule:nonzero;stroke:none"
             d="m 0,0 h 2.773 v -1.528 h 0.044 c 0.917,1.288 2.162,1.79 3.69,1.79 2.665,0 3.822,-1.878 3.822,-4.411 v -7.097 H 7.403 v 6.005 c 0,1.376 -0.022,3.232 -1.9,3.232 -2.118,0 -2.577,-2.293 -2.577,-3.734 v -5.503 H 0 Z" /></g><g
           transform="translate(105.2877,54.3448)"
           id="g48"><path
             id="path50"
             style="fill:#000000;fill-opacity:1;fill-rule:nonzero;stroke:none"
             d="M 0,0 H -4.367 V 2.402 H 7.425 V 0 H 3.057 V -12.84 H 0 Z" /></g><g
           transform="translate(115.2457,43.3825)"
           id="g52"><path
             id="path54"
             style="fill:#000000;fill-opacity:1;fill-rule:nonzero;stroke:none"
             d="m 0,0 c 0.895,0 1.594,0.393 2.053,1.005 0.48,0.633 0.611,1.441 0.611,2.314 H 1.398 C 0.087,3.319 -1.856,3.101 -1.856,1.376 -1.856,0.415 -1.048,0 0,0 m -3.428,8.779 c 1.135,0.524 2.664,0.851 3.909,0.851 3.428,0 4.847,-1.419 4.847,-4.738 V 3.45 C 5.328,2.315 5.35,1.463 5.372,0.633 5.394,-0.218 5.438,-1.005 5.503,-1.878 H 2.926 C 2.817,-1.289 2.817,-0.546 2.795,-0.196 H 2.752 C 2.075,-1.441 0.611,-2.14 -0.72,-2.14 c -1.988,0 -3.931,1.201 -3.931,3.341 0,1.682 0.808,2.664 1.921,3.21 1.114,0.546 2.555,0.655 3.778,0.655 h 1.616 c 0,1.813 -0.808,2.424 -2.533,2.424 -1.245,0 -2.489,-0.48 -3.472,-1.223 z" /></g><g
           transform="translate(127.4746,44.5397)"
           id="g56"><path
             id="path58"
             style="fill:#000000;fill-opacity:1;fill-rule:nonzero;stroke:none"
             d="m 0,0 h 0.044 l 2.708,8.211 h 2.97 L 1.507,-2.948 c -0.939,-2.489 -1.616,-4.935 -4.673,-4.935 -0.699,0 -1.398,0.109 -2.075,0.306 l 0.197,2.161 c 0.371,-0.13 0.786,-0.196 1.507,-0.196 1.179,0 1.899,0.808 1.899,2.009 L -5.94,8.211 h 3.232 z" /></g><path
           id="path60"
           style="fill:#000000;fill-opacity:1;fill-rule:nonzero;stroke:none"
           d="m 134.353,57.882 h 2.926 V 41.504 h -2.926 z" /><g
           transform="translate(144.857,43.5135)"
           id="g62"><path
             id="path64"
             style="fill:#000000;fill-opacity:1;fill-rule:nonzero;stroke:none"
             d="M 0,0 C 2.249,0 2.839,2.009 2.839,3.887 2.839,5.612 1.922,7.228 0,7.228 -1.9,7.228 -2.817,5.568 -2.817,3.887 -2.817,2.031 -2.227,0 0,0 m 0,9.499 c 3.341,0 5.896,-2.249 5.896,-5.961 0,-3.232 -2.162,-5.809 -5.896,-5.809 -3.712,0 -5.874,2.577 -5.874,5.809 0,3.712 2.555,5.961 5.874,5.961" /></g><g
           transform="translate(152.4564,52.7505)"
           id="g66"><path
             id="path68"
             style="fill:#000000;fill-opacity:1;fill-rule:nonzero;stroke:none"
             d="m 0,0 h 2.599 v -2.555 h 0.043 c 0.131,1.048 1.332,2.817 3.079,2.817 0.284,0 0.59,0 0.896,-0.087 v -2.948 c -0.263,0.153 -0.787,0.24 -1.311,0.24 -2.38,0 -2.38,-2.97 -2.38,-4.586 v -4.127 H 0 Z" /></g></g></g></g></svg>