<?xml version="1.0" encoding="UTF-8" standalone="no"?>
<svg
   xmlns:dc="http://purl.org/dc/elements/1.1/"
   xmlns:cc="http://creativecommons.org/ns#"
   xmlns:rdf="http://www.w3.org/1999/02/22-rdf-syntax-ns#"
   xmlns:svg="http://www.w3.org/2000/svg"
   xmlns="http://www.w3.org/2000/svg"
   viewBox="0 0 255.87067 131.06667"
   height="131.06667"
   width="255.87067"
   xml:space="preserve"
   id="svg2"
   version="1.1"><metadata
     id="metadata8"><rdf:RDF><cc:Work
         rdf:about=""><dc:format>image/svg+xml</dc:format><dc:type
           rdf:resource="http://purl.org/dc/dcmitype/StillImage" /></cc:Work></rdf:RDF></metadata><defs
     id="defs6"><clipPath
       id="clipPath18"
       clipPathUnits="userSpaceOnUse"><path
         id="path16"
         d="M 0,98.3 H 191.903 V 0 H 0 Z" /></clipPath></defs><g
     transform="matrix(1.3333333,0,0,-1.3333333,0,131.06667)"
     id="g10"><g
       id="g12"><g
         clip-path="url(#clipPath18)"
         id="g14"><g
           transform="translate(78.5326,76.9428)"
           id="g20"><path
             id="path22"
             style="fill:#000000;fill-opacity:1;fill-rule:nonzero;stroke:none"
             d="M 0,0 H -24.676 L -35.291,-21.023 V 0 h -23.16 v -60.106 h 23.16 v 21.024 l 8.409,-20.955 h 24.883 l -15.164,30.467 z m 70.352,1.379 c -0.084,0 -0.168,0 -0.252,0 -1.516,0 -3.033,-0.069 -4.48,-0.276 -2.619,-0.345 -5.446,-1.034 -7.858,-2.206 -2.55,-1.241 -4.48,-2.55 -6.479,-4.549 -1.861,-1.861 -3.447,-4.618 -4.343,-7.031 -0.551,-1.447 -0.965,-3.102 -1.172,-4.687 -0.344,-2.55 -0.275,-5.239 0.345,-7.72 0.552,-2.275 1.723,-4.342 3.24,-6.135 3.515,-4.066 8.685,-5.376 12.958,-6.341 2.137,-0.482 3.998,-0.827 5.377,-1.379 1.378,-0.551 1.999,-1.171 2.067,-2.136 v -0.069 c 0,-0.896 -0.482,-1.517 -1.516,-2.068 -0.965,-0.483 -2.343,-0.758 -3.86,-0.758 -0.758,0 -1.516,0.069 -2.275,0.207 -5.169,0.827 -9.098,3.239 -11.373,4.342 l -0.413,0.207 -4.067,-17.163 0.207,-0.138 c 1.378,-1.034 9.029,-5.101 20.609,-5.17 h 0.414 c 7.789,0.069 14.13,2.275 19.024,6.41 4.825,4.136 7.513,9.444 7.444,15.923 0,0.207 0,0.345 0,0.551 -0.206,7.376 -3.86,11.442 -8.409,13.855 -4.48,2.412 -9.857,3.308 -13.441,4.273 -2.275,0.621 -3.033,1.655 -3.033,2.413 0,0.551 0.345,1.172 1.172,1.723 0.758,0.483 1.999,0.758 3.446,0.758 0.552,0 1.172,-0.069 1.861,-0.137 5.17,-0.896 8.548,-2.551 11.443,-4.067 l 0.413,-0.207 4.067,17.163 -0.345,0.069 c 0,0 -10.044,4.343 -20.771,4.343 M 22.24,1.517 c -0.084,0 -0.168,0 -0.252,-10e-4 -1.516,0 -3.033,-0.068 -4.48,-0.275 C 14.889,0.896 12.062,0.207 9.65,-0.965 7.1,-2.206 5.17,-3.515 3.171,-5.514 c -1.861,-1.861 -3.447,-4.618 -4.343,-7.031 -0.551,-1.447 -0.965,-3.102 -1.172,-4.687 -0.344,-2.55 -0.275,-5.239 0.345,-7.72 0.552,-2.275 1.723,-4.343 3.24,-6.135 3.515,-4.066 8.685,-5.376 12.958,-6.341 2.137,-0.483 3.998,-0.827 5.377,-1.379 1.378,-0.551 1.999,-1.171 2.067,-2.136 v -0.069 c 0,-0.896 -0.482,-1.517 -1.516,-2.068 -0.965,-0.483 -2.343,-0.758 -3.86,-0.758 -0.758,0 -1.516,0.069 -2.275,0.206 -5.169,0.827 -9.098,3.24 -11.373,4.343 l -0.413,0.207 -4.136,-17.301 0.207,-0.138 c 1.378,-1.034 9.029,-5.101 20.609,-5.17 H 19.3 c 7.789,0.069 14.13,2.275 19.024,6.41 4.825,4.136 7.513,9.444 7.444,15.923 v 0.551 c -0.206,7.376 -3.86,11.511 -8.409,13.924 -4.48,2.412 -9.857,3.239 -13.441,4.204 -2.275,0.621 -3.033,1.655 -3.033,2.413 0,0.551 0.345,1.172 1.172,1.723 0.758,0.483 1.999,0.827 3.446,0.896 0.552,0 1.241,-0.069 1.862,-0.138 5.169,-0.896 8.547,-2.688 11.442,-4.135 l 0.413,-0.207 4.067,17.163 -0.276,0.138 c 0,0 -10.044,4.343 -20.771,4.343 M -1.737,-1 l -16.291,-28.068 -0.27,-0.466 0.24,-0.482 14.444,-29.021 h -22.592 l -8.157,20.327 -1.928,4.804 v -5.176 -20.024 h -21.16 V -1 h 21.16 v -20.023 -4.199 l 1.892,3.748 L -24.061,-1 h 22.324 m 72.089,1.379 c 9.135,0 17.889,-3.264 19.93,-4.079 l -3.56,-15.025 c -2.898,1.488 -6.198,2.955 -11.006,3.788 l -0.035,0.006 -0.036,0.004 -0.206,0.02 c -0.622,0.063 -1.209,0.122 -1.755,0.122 -1.642,0 -3.056,-0.324 -4.001,-0.926 -1.407,-0.938 -1.617,-2.003 -1.617,-2.555 0,-0.551 0.272,-2.423 3.773,-3.378 0.813,-0.219 1.711,-0.433 2.662,-0.66 3.207,-0.764 7.198,-1.716 10.571,-3.532 5.132,-2.721 7.709,-6.973 7.877,-12.971 v -0.562 c 0.064,-5.964 -2.323,-11.062 -7.089,-15.148 -4.771,-4.031 -10.957,-6.108 -18.379,-6.174 h -0.408 c -10.511,0.063 -17.703,3.472 -19.69,4.747 l 3.616,15.264 c 0.18,-0.093 0.367,-0.19 0.562,-0.291 2.361,-1.224 5.929,-3.073 10.365,-3.782 0.813,-0.148 1.638,-0.223 2.453,-0.223 1.664,0 3.193,0.306 4.331,0.876 0.506,0.269 2.045,1.091 2.045,2.95 v 0.069 0.035 l -0.002,0.036 c -0.125,1.748 -1.505,2.518 -2.694,2.994 -1.181,0.472 -2.623,0.788 -4.293,1.153 -0.399,0.087 -0.811,0.177 -1.234,0.272 -4.539,1.025 -9.236,2.334 -12.416,6.012 -1.528,1.807 -2.548,3.733 -3.033,5.732 -0.559,2.235 -0.671,4.775 -0.323,7.348 0.196,1.504 0.592,3.088 1.118,4.468 0.933,2.512 2.508,5.068 4.112,6.672 1.848,1.848 3.647,3.11 6.209,4.357 2.614,1.27 5.549,1.85 7.562,2.115 1.252,0.179 2.671,0.266 4.346,0.266 h 0.245 M 22.24,0.517 c 9.066,0 17.755,-3.215 19.882,-4.06 l -3.584,-15.124 c -2.725,1.366 -6.113,3.02 -11.003,3.868 l -0.03,0.005 -0.03,0.003 c -0.667,0.074 -1.366,0.143 -2.004,0.143 -0.005,0 -0.01,0 -0.015,0 -1.569,-0.075 -3.003,-0.458 -3.954,-1.063 -1.407,-0.938 -1.617,-2.003 -1.617,-2.555 0,-0.551 0.272,-2.423 3.773,-3.378 0.863,-0.233 1.823,-0.456 2.838,-0.692 3.156,-0.734 7.085,-1.648 10.395,-3.431 5.131,-2.721 7.708,-6.995 7.877,-13.04 v -0.562 c 0.064,-5.964 -2.323,-11.063 -7.089,-15.148 -4.77,-4.031 -10.957,-6.108 -18.379,-6.174 h -0.408 c -10.509,0.063 -17.7,3.471 -19.689,4.746 l 3.682,15.404 c 0.18,-0.093 0.368,-0.19 0.564,-0.292 2.361,-1.224 5.929,-3.073 10.365,-3.783 0.813,-0.147 1.639,-0.222 2.453,-0.222 1.664,0 3.193,0.306 4.331,0.875 0.506,0.27 2.045,1.091 2.045,2.951 v 0.069 0.035 l -0.002,0.036 c -0.125,1.748 -1.505,2.518 -2.694,2.994 -1.181,0.472 -2.623,0.787 -4.293,1.152 -0.4,0.088 -0.812,0.178 -1.234,0.273 -4.539,1.025 -9.236,2.334 -12.416,6.012 -1.528,1.807 -2.548,3.732 -3.033,5.731 -0.559,2.236 -0.671,4.776 -0.323,7.349 0.196,1.504 0.592,3.088 1.118,4.468 0.933,2.512 2.508,5.068 4.112,6.672 1.848,1.848 3.647,3.11 6.209,4.356 2.614,1.27 5.549,1.851 7.562,2.116 1.251,0.179 2.671,0.265 4.346,0.265 l 0.245,0.001" /></g></g></g></g></svg>