<?xml version="1.0" encoding="UTF-8" standalone="no"?>
<svg
   xmlns:dc="http://purl.org/dc/elements/1.1/"
   xmlns:cc="http://creativecommons.org/ns#"
   xmlns:rdf="http://www.w3.org/1999/02/22-rdf-syntax-ns#"
   xmlns:svg="http://www.w3.org/2000/svg"
   xmlns="http://www.w3.org/2000/svg"
   viewBox="0 0 220.61333 131.06667"
   height="131.06667"
   width="220.61333"
   xml:space="preserve"
   id="svg2"
   version="1.1"><metadata
     id="metadata8"><rdf:RDF><cc:Work
         rdf:about=""><dc:format>image/svg+xml</dc:format><dc:type
           rdf:resource="http://purl.org/dc/dcmitype/StillImage" /></cc:Work></rdf:RDF></metadata><defs
     id="defs6"><clipPath
       id="clipPath22"
       clipPathUnits="userSpaceOnUse"><path
         id="path20"
         d="M 0,98.3 H 165.46 V 0 H 0 Z" /></clipPath></defs><g
     transform="matrix(1.3333333,0,0,-1.3333333,0,131.06667)"
     id="g10"><g
       transform="translate(6.7593,53.0277)"
       id="g12"><path
         id="path14"
         style="fill:#434046;fill-opacity:1;fill-rule:nonzero;stroke:none"
         d="M 0,0 H 4.22 L 6.352,-6.684 H 6.381 L 8.614,0 h 4.062 v -10.054 h -2.622 l 0.043,7.721 H 10.069 L 7.504,-10.054 H 5.042 L 2.593,-2.333 H 2.564 l 0.058,-7.721 H 0 Z" /></g><g
       id="g16"><g
         clip-path="url(#clipPath22)"
         id="g18"><g
           transform="translate(23.8604,44.5291)"
           id="g24"><path
             id="path26"
             style="fill:#434046;fill-opacity:1;fill-rule:nonzero;stroke:none"
             d="M 0,0 C 0.979,0 1.599,0.893 1.599,1.771 1.268,1.786 0.894,1.815 0.504,1.815 -0.374,1.815 -1.065,1.541 -1.065,0.821 -1.065,0.303 -0.604,0 0,0 M 1.786,-1.556 C 1.772,-1.152 1.729,-0.764 1.729,-0.375 H 1.7 c -0.591,-0.936 -1.311,-1.354 -2.377,-1.354 -1.483,0 -2.808,0.735 -2.808,2.363 0,2.29 2.491,2.564 3.874,2.564 0.418,0 0.879,-0.044 1.21,-0.101 -0.014,1.023 -0.778,1.297 -1.714,1.297 -0.835,0 -1.671,-0.159 -2.391,-0.562 l -0.043,1.757 c 0.922,0.374 1.887,0.533 2.996,0.533 1.915,0 3.572,-0.821 3.572,-3.111 V 0.216 c 0,-0.591 0.029,-1.181 0.144,-1.772 z" /></g><g
           transform="translate(34.897,48.3319)"
           id="g28"><path
             id="path30"
             style="fill:#434046;fill-opacity:1;fill-rule:nonzero;stroke:none"
             d="m 0,0 c -0.475,0.288 -0.951,0.418 -1.57,0.418 -1.124,0 -1.988,-0.778 -1.988,-2.074 0,-1.196 1.009,-1.974 2.132,-1.974 0.591,0 1.181,0.13 1.613,0.36 L 0.245,-5.2 c -0.648,-0.216 -1.426,-0.331 -2.118,-0.331 -2.477,0 -4.364,1.44 -4.364,3.918 0,2.492 1.887,3.932 4.364,3.932 0.778,0 1.47,-0.13 2.06,-0.418 z" /></g><g
           transform="translate(41.6646,48.3319)"
           id="g32"><path
             id="path34"
             style="fill:#434046;fill-opacity:1;fill-rule:nonzero;stroke:none"
             d="m 0,0 c -0.475,0.288 -0.951,0.418 -1.57,0.418 -1.124,0 -1.988,-0.778 -1.988,-2.074 0,-1.196 1.009,-1.974 2.132,-1.974 0.591,0 1.181,0.13 1.613,0.36 L 0.245,-5.2 c -0.648,-0.216 -1.426,-0.331 -2.118,-0.331 -2.477,0 -4.364,1.44 -4.364,3.918 0,2.492 1.887,3.932 4.364,3.932 0.778,0 1.47,-0.13 2.06,-0.418 z" /></g><g
           transform="translate(48.0782,48.4041)"
           id="g36"><path
             id="path38"
             style="fill:#434046;fill-opacity:1;fill-rule:nonzero;stroke:none"
             d="m 0,0 c -0.288,0.086 -0.576,0.086 -0.879,0.086 -1.21,0 -1.887,-0.878 -1.887,-2.348 v -3.169 h -2.592 v 7.505 h 2.362 V 0.691 h 0.029 c 0.446,0.951 1.094,1.556 2.218,1.556 0.303,0 0.619,-0.043 0.879,-0.087 z" /></g><g
           transform="translate(53.7852,47.4388)"
           id="g40"><path
             id="path42"
             style="fill:#434046;fill-opacity:1;fill-rule:nonzero;stroke:none"
             d="M 0,0 C 0,0.864 -0.403,1.57 -1.44,1.57 -2.376,1.57 -2.823,0.864 -2.881,0 Z m -2.852,-1.469 c 0.144,-1.037 0.936,-1.441 2.204,-1.441 0.706,0 1.512,0.159 2.291,0.577 v -1.83 c -0.836,-0.331 -1.787,-0.475 -2.752,-0.475 -2.477,0 -4.365,1.455 -4.365,3.932 0,2.478 1.686,3.918 4.019,3.918 2.78,0 3.789,-1.973 3.789,-4.206 v -0.475 z" /></g><g
           transform="translate(60.0811,44.5291)"
           id="g44"><path
             id="path46"
             style="fill:#434046;fill-opacity:1;fill-rule:nonzero;stroke:none"
             d="M 0,0 C 0.979,0 1.599,0.893 1.599,1.771 1.268,1.786 0.894,1.815 0.504,1.815 -0.374,1.815 -1.065,1.541 -1.065,0.821 -1.065,0.303 -0.604,0 0,0 M 1.786,-1.556 C 1.772,-1.152 1.729,-0.764 1.729,-0.375 H 1.7 c -0.591,-0.936 -1.311,-1.354 -2.377,-1.354 -1.483,0 -2.808,0.735 -2.808,2.363 0,2.29 2.491,2.564 3.874,2.564 0.418,0 0.879,-0.044 1.21,-0.101 -0.014,1.023 -0.778,1.297 -1.714,1.297 -0.835,0 -1.671,-0.159 -2.391,-0.562 l -0.043,1.757 c 0.922,0.374 1.887,0.533 2.996,0.533 1.915,0 3.572,-0.821 3.572,-3.111 V 0.216 c 0,-0.591 0.029,-1.181 0.144,-1.772 z" /></g><g
           transform="translate(65.3072,50.4783)"
           id="g48"><path
             id="path50"
             style="fill:#434046;fill-opacity:1;fill-rule:nonzero;stroke:none"
             d="m 0,0 h 2.362 v -1.383 h 0.029 c 0.519,1.08 1.556,1.556 2.737,1.556 2.045,0 2.867,-1.441 2.867,-2.996 V -7.505 H 5.402 v 3.63 c 0,1.412 -0.49,1.887 -1.196,1.887 -1.066,0 -1.613,-0.735 -1.613,-2.348 v -3.169 l -2.593,0 z" /></g><g
           transform="translate(80.1622,46.7186)"
           id="g52"><path
             id="path54"
             style="fill:#434046;fill-opacity:1;fill-rule:nonzero;stroke:none"
             d="m 0,0 c 0,1.124 -0.49,2.117 -1.686,2.117 -1.195,0 -1.685,-0.993 -1.685,-2.117 0,-1.109 0.49,-2.103 1.685,-2.103 C -0.49,-2.103 0,-1.109 0,0 m -6.05,0 c 0,2.492 1.887,3.933 4.364,3.933 2.478,0 4.365,-1.441 4.365,-3.933 0,-2.478 -1.887,-3.918 -4.365,-3.918 -2.477,0 -4.364,1.44 -4.364,3.918" /></g><g
           transform="translate(89.0342,48.4041)"
           id="g56"><path
             id="path58"
             style="fill:#434046;fill-opacity:1;fill-rule:nonzero;stroke:none"
             d="m 0,0 c -0.288,0.086 -0.576,0.086 -0.879,0.086 -1.21,0 -1.887,-0.878 -1.887,-2.348 v -3.169 h -2.592 v 7.505 h 2.362 V 0.691 h 0.029 c 0.446,0.951 1.094,1.556 2.218,1.556 0.303,0 0.619,-0.043 0.879,-0.087 z" /></g><g
           transform="translate(89.7305,53.0277)"
           id="g60"><path
             id="path62"
             style="fill:#434046;fill-opacity:1;fill-rule:nonzero;stroke:none"
             d="m 0,0 h 2.68 v -8.066 h 4.148 v -1.988 H 0 Z" /></g><g
           transform="translate(100.4385,44.5291)"
           id="g64"><path
             id="path66"
             style="fill:#434046;fill-opacity:1;fill-rule:nonzero;stroke:none"
             d="M 0,0 C 0.979,0 1.599,0.893 1.599,1.771 1.268,1.786 0.894,1.815 0.504,1.815 -0.374,1.815 -1.065,1.541 -1.065,0.821 -1.065,0.303 -0.604,0 0,0 M 1.786,-1.556 C 1.772,-1.152 1.729,-0.764 1.729,-0.375 H 1.7 c -0.591,-0.936 -1.311,-1.354 -2.377,-1.354 -1.483,0 -2.808,0.735 -2.808,2.363 0,2.29 2.491,2.564 3.874,2.564 0.418,0 0.879,-0.044 1.21,-0.101 -0.014,1.023 -0.778,1.297 -1.714,1.297 -0.835,0 -1.671,-0.159 -2.391,-0.562 l -0.043,1.757 c 0.922,0.374 1.887,0.533 2.996,0.533 1.915,0 3.572,-0.821 3.572,-3.111 V 0.216 c 0,-0.591 0.029,-1.181 0.144,-1.772 z" /></g><g
           transform="translate(104.649,50.4783)"
           id="g68"><path
             id="path70"
             style="fill:#434046;fill-opacity:1;fill-rule:nonzero;stroke:none"
             d="m 0,0 h 2.78 l 1.555,-5.344 h 0.03 L 5.935,0 H 8.513 L 5.733,-7.505 H 2.78 Z" /></g><path
           id="path72"
           style="fill:#434046;fill-opacity:1;fill-rule:nonzero;stroke:none"
           d="m 113.79,50.478 h 2.593 v -7.505 h -2.593 z m 2.593,1.224 h -2.593 v 1.901 h 2.593 z" /><g
           transform="translate(117.7325,50.4783)"
           id="g74"><path
             id="path76"
             style="fill:#434046;fill-opacity:1;fill-rule:nonzero;stroke:none"
             d="m 0,0 h 2.362 v -1.383 h 0.029 c 0.519,1.08 1.556,1.556 2.737,1.556 2.045,0 2.866,-1.441 2.866,-2.996 V -7.505 H 5.401 v 3.63 c 0,1.412 -0.489,1.887 -1.195,1.887 -1.066,0 -1.613,-0.735 -1.613,-2.348 v -3.169 l -2.593,0 z" /></g><g
           transform="translate(130.71,44.9613)"
           id="g78"><path
             id="path80"
             style="fill:#434046;fill-opacity:1;fill-rule:nonzero;stroke:none"
             d="M 0,0 C 0.922,0 1.657,0.778 1.657,1.93 1.657,2.766 1.167,3.702 0,3.702 -0.965,3.702 -1.469,2.852 -1.469,1.83 -1.469,0.663 -0.777,0 0,0 m 4.163,-1.109 c 0,-3.083 -1.498,-4.077 -4.523,-4.077 -1.239,0 -2.261,0.26 -2.867,0.476 l 0.13,2.045 c 0.792,-0.389 1.455,-0.619 2.535,-0.619 1.499,0 2.305,0.705 2.305,2.175 v 0.403 H 1.714 C 1.095,-1.584 0.23,-1.988 -0.807,-1.988 c -2.059,0 -3.341,1.556 -3.341,3.774 0,2.233 1.051,3.904 3.385,3.904 1.109,0 2.002,-0.606 2.549,-1.527 h 0.029 v 1.354 h 2.348 z" /></g><g
           transform="translate(135.4126,50.4783)"
           id="g82"><path
             id="path84"
             style="fill:#434046;fill-opacity:1;fill-rule:nonzero;stroke:none"
             d="m 0,0 h 1.527 v 1.685 l 2.55,0.793 V 0 H 5.891 V -1.815 H 4.077 v -2.766 c 0,-0.907 0.215,-1.368 1.037,-1.368 0.259,0 0.532,0.057 0.792,0.1 l 0.086,-1.685 c -0.49,-0.057 -0.979,-0.144 -1.627,-0.144 -2.32,0 -2.881,1.023 -2.881,2.809 v 3.054 l -1.484,0 z" /></g><g
           transform="translate(147.6524,46.7186)"
           id="g86"><path
             id="path88"
             style="fill:#434046;fill-opacity:1;fill-rule:nonzero;stroke:none"
             d="M 0,0 C 0,1.124 -0.489,2.117 -1.685,2.117 -2.881,2.117 -3.37,1.124 -3.37,0 c 0,-1.109 0.489,-2.103 1.685,-2.103 C -0.489,-2.103 0,-1.109 0,0 m -6.05,0 c 0,2.492 1.887,3.933 4.365,3.933 2.477,0 4.365,-1.441 4.365,-3.933 0,-2.478 -1.888,-3.918 -4.365,-3.918 -2.478,0 -4.365,1.44 -4.365,3.918" /></g><g
           transform="translate(151.1665,50.4783)"
           id="g90"><path
             id="path92"
             style="fill:#434046;fill-opacity:1;fill-rule:nonzero;stroke:none"
             d="m 0,0 h 2.362 v -1.383 h 0.029 c 0.519,1.08 1.556,1.556 2.737,1.556 2.045,0 2.867,-1.441 2.867,-2.996 V -7.505 H 5.402 v 3.63 c 0,1.412 -0.49,1.887 -1.196,1.887 -1.066,0 -1.613,-0.735 -1.613,-2.348 v -3.169 l -2.593,0 z" /></g></g></g></g></svg>