<?xml version="1.0" encoding="UTF-8" standalone="no"?>
<svg
   xmlns:dc="http://purl.org/dc/elements/1.1/"
   xmlns:cc="http://creativecommons.org/ns#"
   xmlns:rdf="http://www.w3.org/1999/02/22-rdf-syntax-ns#"
   xmlns:svg="http://www.w3.org/2000/svg"
   xmlns="http://www.w3.org/2000/svg"
   viewBox="0 0 220.61333 131.06667"
   height="131.06667"
   width="220.61333"
   xml:space="preserve"
   id="svg2"
   version="1.1"><metadata
     id="metadata8"><rdf:RDF><cc:Work
         rdf:about=""><dc:format>image/svg+xml</dc:format><dc:type
           rdf:resource="http://purl.org/dc/dcmitype/StillImage" /></cc:Work></rdf:RDF></metadata><defs
     id="defs6"><clipPath
       id="clipPath50"
       clipPathUnits="userSpaceOnUse"><path
         id="path48"
         d="M 0,98.3 H 165.46 V 0 H 0 Z" /></clipPath></defs><g
     transform="matrix(1.3333333,0,0,-1.3333333,0,131.06667)"
     id="g10"><g
       transform="translate(7.2988,44.7871)"
       id="g12"><path
         id="path14"
         style="fill:#27b6ea;fill-opacity:1;fill-rule:nonzero;stroke:none"
         d="M 0,0 V 5.42 H 151.464 L 149.155,0 Z" /></g><g
       transform="translate(26.1511,78.3978)"
       id="g16"><path
         id="path18"
         style="fill:#000000;fill-opacity:1;fill-rule:nonzero;stroke:none"
         d="M 0,0 H 8.313 V -24.245 H 2.867 l 0.004,18.128 -5.662,-18.131 h -4.973 l -5.603,18.131 -0.003,-18.134 h -5.481 V 0.003 h 8.396 l 5.363,-16.724 z" /></g><g
       transform="translate(159.0515,78.4187)"
       id="g20"><path
         id="path22"
         style="fill:#000000;fill-opacity:1;fill-rule:nonzero;stroke:none"
         d="m 0,0 v -24.27 h -7.448 l -8.386,16.349 v -16.355 l -5.845,0.001 v 24.251 h 7.93 L -5.516,-16.473 -5.514,0 Z" /></g><g
       transform="translate(57.1599,40.7797)"
       id="g24"><path
         id="path26"
         style="fill:#a0a1a5;fill-opacity:1;fill-rule:nonzero;stroke:none"
         d="m 0,0 h 5.517 v -24.191 l -7.259,-0.001 -8.571,16.635 -0.012,-16.626 -5.439,0.006 V 0.01 h 7.435 L 0,-16.342 Z" /></g><g
       transform="translate(98.7391,26.5807)"
       id="g28"><path
         id="path30"
         style="fill:#a0a1a5;fill-opacity:1;fill-rule:nonzero;stroke:none"
         d="M 0,0 H 5.915 L 3.047,9.632 Z M -0.282,14.224 H 6.684 L 15.556,-9.978 H 9.481 L 7.616,-4.945 H -1.566 L -3.38,-9.998 h -6.034 z" /></g><g
       transform="translate(116.9178,16.5823)"
       id="g32"><path
         id="path34"
         style="fill:#a0a1a5;fill-opacity:1;fill-rule:nonzero;stroke:none"
         d="M 0,0 V 24.208 H 5.807 L 5.809,5.144 H 19.895 L 17.737,0 Z" /></g><g
       transform="translate(37.0802,40.7806)"
       id="g36"><path
         id="path38"
         style="fill:#a0a1a5;fill-opacity:1;fill-rule:nonzero;stroke:none"
         d="M 0,0 V -24.197 H -5.332 L -5.438,0 Z" /></g><g
       transform="translate(139.0143,16.5823)"
       id="g40"><path
         id="path42"
         style="fill:#a0a1a5;fill-opacity:1;fill-rule:nonzero;stroke:none"
         d="M 0,0 V 24.208 H 5.807 L 5.809,5.144 H 19.895 L 17.737,0 Z" /></g><g
       id="g44"><g
         clip-path="url(#clipPath50)"
         id="g46"><g
           transform="translate(83.1907,28.7409)"
           id="g52"><path
             id="path54"
             style="fill:#a0a1a5;fill-opacity:1;fill-rule:nonzero;stroke:none"
             d="m 0,0 c 0,4.942 -2.881,6.961 -5.96,6.961 -0.809,0 -4.726,0 -4.726,0 v -14 c 0,0 3.006,0.016 4.895,0.016 C -3.381,-7.023 0,-4.942 0,0 m -6.639,-12.159 -9.903,0.017 v 24.185 h 9.776 c 4.814,0 12.605,-1.603 12.605,-12.081 0,-10.478 -8.298,-12.121 -12.478,-12.121" /></g><g
           transform="translate(119.5807,64.1254)"
           id="g56"><path
             id="path58"
             style="fill:#000000;fill-opacity:1;fill-rule:nonzero;stroke:none"
             d="M 0,0 H 5.915 L 3.047,9.636 Z M -0.282,14.27 H 6.684 L 15.556,-9.982 H 9.481 l -1.865,5.035 h -9.182 l -1.814,-5.055 h -6.034 z" /></g><g
           transform="translate(78.1817,70.3382)"
           id="g60"><path
             id="path62"
             style="fill:#000000;fill-opacity:1;fill-rule:nonzero;stroke:none"
             d="m 0,0 c 0,2.555 -2.053,2.9 -3.151,2.9 h -4.844 v -5.8 h 4.612 C -1.95,-2.9 0,-2.555 0,0 m 1.773,-6.722 c 1.524,-2.844 5.072,-9.472 5.072,-9.472 H 0.184 c 0,0 -2.738,5.659 -4.055,8.378 h -4.13 c 0,0 0.006,-5.631 0.006,-8.376 h -5.797 V 8.053 c 0,0 5.08,0.025 10.705,0.025 5.625,0 8.906,-3.224 8.906,-7.657 0,-4.433 -2.332,-5.883 -4.046,-7.143" /></g><g
           transform="translate(49.4389,58.8827)"
           id="g64"><path
             id="path66"
             style="fill:#000000;fill-opacity:1;fill-rule:nonzero;stroke:none"
             d="m 0,0 c -3.883,0 -6.499,2.978 -6.499,7.399 0,4.421 2.616,7.399 6.499,7.399 3.883,0 6.499,-2.978 6.499,-7.399 C 6.499,2.978 3.883,0 0,0 m 0,19.885 c -7.378,0 -12.349,-5.026 -12.349,-12.486 0,-7.46 4.971,-12.486 12.349,-12.486 7.378,0 12.349,5.026 12.349,12.486 0,7.46 -4.971,12.486 -12.349,12.486" /></g><g
           transform="translate(110.7718,67.379)"
           id="g68"><path
             id="path70"
             style="fill:#000000;fill-opacity:1;fill-rule:nonzero;stroke:none"
             d="m 0,0 0.008,0.016 h -0.009 -12.368 v -4.532 h 5.919 c -0.996,-2.457 -3.093,-3.98 -5.853,-3.98 -3.883,0 -6.499,2.978 -6.499,7.399 0,4.42 2.616,7.399 6.499,7.399 2.435,0 4.37,-1.173 5.476,-3.137 l 5.113,2.612 c -2.065,3.501 -5.818,5.612 -10.589,5.612 -7.378,0 -12.349,-5.026 -12.349,-12.486 0,-7.46 4.971,-12.486 12.349,-12.486 7.378,0 12.349,5.026 12.349,12.486 C 0.046,-0.724 0.025,-0.361 0,0" /></g><g
           transform="translate(11.3555,24.2821)"
           id="g72"><path
             id="path74"
             style="fill:#a0a1a5;fill-opacity:1;fill-rule:nonzero;stroke:none"
             d="m 0,0 c 1.823,-2.241 4.01,-3.406 6.701,-3.406 1.487,0 4.479,0.665 4.479,2.727 0,1.197 -1.125,2.066 -2.802,2.365 L 3.693,2.66 c -4.178,0.699 -7.083,2.58 -7.083,6.072 0,5.72 3.552,8.081 9.837,8.081 3.735,0 7.407,-1.596 9.939,-4.556 L 11.533,9.693 c -1.488,1.895 -3.092,2.561 -5.466,2.561 -1.298,0 -3.675,-0.429 -3.675,-2.354 0,-1.263 1.46,-2.166 3.612,-2.531 L 8.156,7.003 c 4.495,-0.765 8.739,-2.282 8.739,-6.805 0,-7.117 -6.65,-8.392 -10.859,-8.392 -3.83,0 -7.704,1.702 -10.742,5.633 z" /></g></g></g></g></svg>