<?xml version="1.0" encoding="UTF-8" standalone="no"?>
<svg
   xmlns:dc="http://purl.org/dc/elements/1.1/"
   xmlns:cc="http://creativecommons.org/ns#"
   xmlns:rdf="http://www.w3.org/1999/02/22-rdf-syntax-ns#"
   xmlns:svg="http://www.w3.org/2000/svg"
   xmlns="http://www.w3.org/2000/svg"
   viewBox="0 0 220.61333 131.06667"
   height="131.06667"
   width="220.61333"
   xml:space="preserve"
   id="svg2"
   version="1.1"><metadata
     id="metadata8"><rdf:RDF><cc:Work
         rdf:about=""><dc:format>image/svg+xml</dc:format><dc:type
           rdf:resource="http://purl.org/dc/dcmitype/StillImage" /></cc:Work></rdf:RDF></metadata><defs
     id="defs6"><clipPath
       id="clipPath18"
       clipPathUnits="userSpaceOnUse"><path
         id="path16"
         d="M 0,98.3 H 165.46 V 0 H 0 Z" /></clipPath></defs><g
     transform="matrix(1.3333333,0,0,-1.3333333,0,131.06667)"
     id="g10"><g
       id="g12"><g
         clip-path="url(#clipPath18)"
         id="g14"><g
           transform="translate(62.9045,39.3829)"
           id="g20"><path
             id="path22"
             style="fill:#1b2651;fill-opacity:1;fill-rule:nonzero;stroke:none"
             d="M 0,0 V 15.42 H 4.073 L 7.275,9.769 C 8.191,8.144 9.106,6.223 9.792,4.484 H 9.861 C 9.632,6.52 9.563,8.602 9.563,10.913 v 4.507 h 3.203 V 0 H 9.106 L 5.811,5.948 C 4.896,7.596 3.889,9.586 3.135,11.394 L 3.066,11.37 C 3.157,9.334 3.203,7.161 3.203,4.645 V 0 Z" /></g><g
           transform="translate(91.4387,40.0918)"
           id="g24"><path
             id="path26"
             style="fill:#1b2651;fill-opacity:1;fill-rule:nonzero;stroke:none"
             d="m 0,0 c -1.075,-0.366 -3.111,-0.869 -5.147,-0.869 -2.814,0 -4.85,0.709 -6.269,2.082 -1.419,1.327 -2.196,3.341 -2.173,5.605 0.022,5.125 3.752,8.053 8.807,8.053 1.991,0 3.524,-0.389 4.279,-0.754 l -0.732,-2.792 c -0.847,0.366 -1.899,0.664 -3.592,0.664 -2.905,0 -5.102,-1.647 -5.102,-4.988 0,-3.18 1.99,-5.056 4.851,-5.056 0.8,0 1.441,0.091 1.715,0.229 V 5.4 h -2.379 v 2.722 l 5.742,0 z" /></g><g
           transform="translate(101.9704,41.8536)"
           id="g28"><path
             id="path30"
             style="fill:#1b2651;fill-opacity:1;fill-rule:nonzero;stroke:none"
             d="m 0,0 c 0.343,-0.046 0.754,-0.046 1.35,-0.046 1.578,0 2.974,0.595 2.974,2.22 0,1.555 -1.396,2.173 -3.134,2.173 H 0 Z m 0,6.841 h 1.144 c 1.83,0 2.814,0.755 2.814,1.899 0,1.166 -0.893,1.784 -2.471,1.784 -0.755,0 -1.189,-0.046 -1.487,-0.091 z m -3.455,5.903 c 0.915,0.183 2.768,0.32 4.507,0.32 2.128,0 3.432,-0.206 4.553,-0.869 C 6.68,11.623 7.458,10.57 7.458,9.174 7.458,7.802 6.658,6.52 4.918,5.88 V 5.835 C 6.68,5.354 7.984,4.027 7.984,2.036 7.984,0.641 7.343,-0.458 6.383,-1.235 5.262,-2.128 3.386,-2.631 0.32,-2.631 c -1.715,0 -2.997,0.115 -3.775,0.229 z" /></g><g
           transform="translate(118.1043,44.6676)"
           id="g32"><path
             id="path34"
             style="fill:#1b2651;fill-opacity:1;fill-rule:nonzero;stroke:none"
             d="m 0,0 c -1.831,0.023 -3.249,-0.412 -3.249,-1.762 0,-0.892 0.595,-1.326 1.373,-1.326 0.869,0 1.578,0.572 1.807,1.281 C -0.023,-1.624 0,-1.419 0,-1.212 Z M 0.411,-5.285 0.206,-4.164 H 0.137 c -0.732,-0.892 -1.877,-1.373 -3.203,-1.373 -2.265,0 -3.615,1.648 -3.615,3.433 0,2.905 2.608,4.3 6.567,4.278 v 0.16 c 0,0.594 -0.321,1.441 -2.037,1.441 -1.144,0 -2.356,-0.389 -3.088,-0.847 L -5.88,5.17 c 0.778,0.436 2.311,0.985 4.347,0.985 3.729,0 4.918,-2.197 4.918,-4.828 v -3.889 c 0,-1.075 0.047,-2.105 0.161,-2.723 z" /></g><path
           id="path36"
           style="fill:#1b2651;fill-opacity:1;fill-rule:nonzero;stroke:none"
           d="m 124.102,50.57 h 3.477 V 39.383 h -3.477 z m 3.592,3.112 c 0,-0.961 -0.732,-1.739 -1.875,-1.739 -1.099,0 -1.831,0.778 -1.808,1.739 -0.023,1.006 0.709,1.762 1.83,1.762 1.121,0 1.831,-0.756 1.853,-1.762" /><path
           id="path38"
           style="fill:#1b2651;fill-opacity:1;fill-rule:nonzero;stroke:none"
           d="m 130.235,55.627 h 3.477 V 39.383 h -3.477 z" /><g
           transform="translate(143.1637,46.2463)"
           id="g40"><path
             id="path42"
             style="fill:#1b2651;fill-opacity:1;fill-rule:nonzero;stroke:none"
             d="M 0,0 C 0,0.847 -0.366,2.265 -1.967,2.265 -3.432,2.265 -4.027,0.938 -4.118,0 Z m -4.095,-2.38 c 0.114,-1.441 1.532,-2.127 3.157,-2.127 1.189,0 2.15,0.16 3.089,0.458 l 0.457,-2.357 c -1.144,-0.457 -2.539,-0.686 -4.049,-0.686 -3.798,0 -5.971,2.196 -5.971,5.697 0,2.837 1.761,5.971 5.65,5.971 3.615,0 4.988,-2.814 4.988,-5.583 0,-0.594 -0.069,-1.121 -0.114,-1.373 z" /></g><g
           transform="translate(150.8092,50.5701)"
           id="g44"><path
             id="path46"
             style="fill:#1b2651;fill-opacity:1;fill-rule:nonzero;stroke:none"
             d="m 0,0 1.67,-5.49 c 0.183,-0.664 0.412,-1.488 0.549,-2.082 h 0.069 c 0.16,0.594 0.343,1.441 0.503,2.082 L 4.164,0 H 7.893 L 5.285,-7.367 c -1.602,-4.438 -2.677,-6.222 -3.935,-7.343 -1.213,-1.053 -2.494,-1.419 -3.363,-1.533 l -0.732,2.951 c 0.434,0.068 0.983,0.274 1.51,0.595 0.525,0.274 1.097,0.823 1.441,1.395 0.114,0.16 0.183,0.344 0.183,0.504 0,0.114 -0.023,0.297 -0.16,0.572 L -3.866,0 Z" /></g><g
           transform="translate(49.0123,47.1287)"
           id="g48"><path
             id="path50"
             style="fill:#1b2651;fill-opacity:1;fill-rule:nonzero;stroke:none"
             d="m 0,0 -2.716,-1.894 c 1.109,1.596 1.12,2.787 1.12,4.096 0,2.134 -1.847,3.923 -4.372,4.446 C -6.218,6.353 -6.507,6.086 -6.84,5.847 L -8.3,4.829 c 2.97,-0.257 4.348,-2.421 4.348,-4.586 0,-1.364 -0.011,-2.604 -1.166,-4.266 l -2.83,-1.973 c 1.156,1.663 1.167,2.903 1.167,4.266 0,2.223 -1.924,4.087 -4.554,4.631 -0.261,-0.307 -0.562,-0.585 -0.908,-0.833 l -1.521,-1.061 c 3.094,-0.268 4.529,-2.523 4.529,-4.777 0,-1.421 -0.011,-2.713 -1.215,-4.444 l -2.947,-2.055 c 1.204,1.732 1.215,3.023 1.215,4.444 0,2.315 -2.004,4.257 -4.744,4.824 -0.271,-0.32 -0.584,-0.609 -0.946,-0.869 l -1.584,-1.105 c 3.223,-0.279 4.718,-2.627 4.718,-4.976 0,-1.48 -0.012,-2.825 -1.265,-4.629 l -3.071,-2.141 c 1.254,1.804 1.266,3.15 1.266,4.63 0,2.477 -2.201,4.544 -5.173,5.07 2.966,1.009 4.287,2.898 4.287,6.078 0,3.181 -2.832,5.29 -7.235,5.29 h -13.558 l 3.919,2.141 h 12.709 c 4.403,0 7.235,-2.11 7.235,-5.29 0,-1.683 -0.372,-3.002 -1.16,-4.023 2.591,0.998 3.751,2.784 3.751,5.703 0,3.053 -2.718,5.078 -6.945,5.078 h -13.016 l 3.763,2.055 h 12.2 c 4.227,0 6.945,-2.026 6.945,-5.079 0,-1.615 -0.357,-2.882 -1.113,-3.862 2.487,0.958 3.601,2.673 3.601,5.475 0,2.931 -2.61,4.875 -6.668,4.875 h -12.495 l 3.613,1.973 h 11.712 c 4.058,0 6.667,-1.945 6.667,-4.875 0,-1.551 -0.343,-2.767 -1.068,-3.708 2.387,0.92 3.456,2.566 3.456,5.256 0,2.813 -2.505,4.68 -6.4,4.68 h -11.996 l 3.468,1.894 h 11.244 c 3.895,0 6.4,-1.867 6.4,-4.681 0,-2.058 -0.625,-3.505 -1.988,-4.483 L -3.055,8.498 C -0.203,8.251 1.12,6.174 1.12,4.096 1.12,2.786 1.109,1.596 0,0 m -32.271,-3.116 v 5.213 h 4.098 c 1.911,0 2.782,-0.816 2.782,-2.607 0,-1.79 -0.871,-2.606 -2.782,-2.606 z m 4.746,-9.748 h -4.746 v 5.214 h 4.746 c 1.911,0 2.782,-0.816 2.782,-2.607 0,-1.791 -0.871,-2.607 -2.782,-2.607 M -42.712,-22.943 H 4.269 v 46.475 h -46.981 z" /></g></g></g></g></svg>