<?xml version="1.0" encoding="UTF-8" standalone="no"?>
<svg
   xmlns:dc="http://purl.org/dc/elements/1.1/"
   xmlns:cc="http://creativecommons.org/ns#"
   xmlns:rdf="http://www.w3.org/1999/02/22-rdf-syntax-ns#"
   xmlns:svg="http://www.w3.org/2000/svg"
   xmlns="http://www.w3.org/2000/svg"
   viewBox="0 0 118.98227 131.06667"
   height="131.06667"
   width="118.98227"
   xml:space="preserve"
   id="svg2"
   version="1.1"><metadata
     id="metadata8"><rdf:RDF><cc:Work
         rdf:about=""><dc:format>image/svg+xml</dc:format><dc:type
           rdf:resource="http://purl.org/dc/dcmitype/StillImage" /></cc:Work></rdf:RDF></metadata><defs
     id="defs6"><clipPath
       id="clipPath18"
       clipPathUnits="userSpaceOnUse"><path
         id="path16"
         d="M 0,98.3 H 89.237 V 0 H 0 Z" /></clipPath></defs><g
     transform="matrix(1.3333333,0,0,-1.3333333,0,131.06667)"
     id="g10"><g
       id="g12"><g
         clip-path="url(#clipPath18)"
         id="g14"><g
           transform="translate(9.804,7.6732)"
           id="g20"><path
             id="path22"
             style="fill:#db1f26;fill-opacity:1;fill-rule:nonzero;stroke:none"
             d="m 0,0 c 0,-0.117 0.01,-0.225 0.039,-0.333 0.118,-0.49 0.549,-0.843 1.059,-0.843 0.764,0 1.215,0.637 1.215,1.578 0,0.843 -0.412,1.529 -1.186,1.529 -0.5,0 -0.96,-0.363 -1.078,-0.892 C 0.02,0.941 0,0.833 0,0.735 Z m -1.206,1.186 c 0,0.627 -0.019,1.137 -0.039,1.588 h 1.059 l 0.059,-0.735 h 0.019 c 0.353,0.539 0.912,0.843 1.637,0.843 1.098,0 2.009,-0.941 2.009,-2.431 0,-1.725 -1.088,-2.558 -2.176,-2.558 -0.597,0 -1.097,0.255 -1.342,0.637 H 0 v -2.47 h -1.206 z" /></g><g
           transform="translate(17.0371,8.4573)"
           id="g24"><path
             id="path26"
             style="fill:#db1f26;fill-opacity:1;fill-rule:nonzero;stroke:none"
             d="m 0,0 c 0,0.098 -0.01,0.216 -0.029,0.314 -0.108,0.47 -0.49,0.853 -1.039,0.853 -0.774,0 -1.206,-0.687 -1.206,-1.579 0,-0.872 0.432,-1.509 1.196,-1.509 0.49,0 0.921,0.333 1.039,0.853 C -0.01,-0.96 0,-0.843 0,-0.715 Z M 1.206,4.176 V -1.44 c 0,-0.491 0.019,-1.02 0.039,-1.343 H 0.167 l -0.05,0.754 H 0.098 c -0.284,-0.529 -0.863,-0.862 -1.558,-0.862 -1.137,0 -2.039,0.97 -2.039,2.44 -0.01,1.598 0.99,2.549 2.137,2.549 0.656,0 1.127,-0.275 1.342,-0.628 H 0 v 2.706 z" /></g><g
           transform="translate(20.1897,7.6732)"
           id="g28"><path
             id="path30"
             style="fill:#db1f26;fill-opacity:1;fill-rule:nonzero;stroke:none"
             d="m 0,0 c 0,-0.117 0.01,-0.225 0.039,-0.333 0.118,-0.49 0.549,-0.843 1.059,-0.843 0.764,0 1.215,0.637 1.215,1.578 0,0.843 -0.412,1.529 -1.186,1.529 -0.5,0 -0.96,-0.363 -1.078,-0.892 C 0.02,0.941 0,0.833 0,0.735 Z m -1.206,1.186 c 0,0.627 -0.019,1.137 -0.039,1.588 h 1.059 l 0.059,-0.735 h 0.019 c 0.353,0.539 0.912,0.843 1.637,0.843 1.098,0 2.009,-0.941 2.009,-2.431 0,-1.725 -1.088,-2.558 -2.176,-2.558 -0.597,0 -1.097,0.255 -1.342,0.637 H 0 v -2.47 h -1.206 z" /></g><g
           transform="translate(28.2944,8.0067)"
           id="g32"><path
             id="path34"
             style="fill:#db1f26;fill-opacity:1;fill-rule:nonzero;stroke:none"
             d="m 0,0 c -0.853,0.02 -1.666,-0.167 -1.666,-0.892 0,-0.47 0.304,-0.686 0.686,-0.686 0.48,0 0.833,0.314 0.941,0.657 C -0.01,-0.833 0,-0.735 0,-0.657 Z m 0.157,-2.333 -0.078,0.53 h -0.03 c -0.294,-0.373 -0.794,-0.638 -1.411,-0.638 -0.961,0 -1.5,0.696 -1.5,1.422 0,1.205 1.069,1.813 2.833,1.803 v 0.078 c 0,0.314 -0.128,0.834 -0.97,0.834 -0.471,0 -0.961,-0.148 -1.284,-0.353 l -0.236,0.784 c 0.353,0.215 0.971,0.421 1.725,0.421 1.529,0 1.97,-0.97 1.97,-2.009 v -1.725 c 0,-0.431 0.02,-0.853 0.069,-1.147 z" /></g><g
           transform="translate(30.1781,8.9082)"
           id="g36"><path
             id="path38"
             style="fill:#db1f26;fill-opacity:1;fill-rule:nonzero;stroke:none"
             d="M 0,0 C 0,0.647 -0.01,1.108 -0.039,1.539 H 1.01 L 1.049,0.627 h 0.039 c 0.235,0.676 0.794,1.02 1.304,1.02 0.117,0 0.186,-0.01 0.284,-0.03 V 0.48 C 2.578,0.5 2.47,0.519 2.323,0.519 1.744,0.519 1.353,0.147 1.245,-0.392 1.225,-0.5 1.206,-0.627 1.206,-0.765 V -3.234 H 0 Z" /></g><g
           transform="translate(36.6145,5.8208)"
           id="g40"><path
             id="path42"
             style="fill:#db1f26;fill-opacity:1;fill-rule:nonzero;stroke:none"
             d="m 0,0 c -0.255,-0.117 -0.755,-0.245 -1.352,-0.245 -1.49,0 -2.461,0.951 -2.461,2.431 0,1.431 0.98,2.548 2.656,2.548 0.441,0 0.892,-0.098 1.167,-0.225 L -0.206,3.607 c -0.196,0.088 -0.48,0.186 -0.911,0.186 -0.922,0 -1.47,-0.676 -1.461,-1.548 0,-0.981 0.637,-1.539 1.461,-1.539 0.421,0 0.715,0.088 0.95,0.186 z" /></g><g
           transform="translate(36.9366,12.6328)"
           id="g44"><path
             id="path46"
             style="fill:#db1f26;fill-opacity:1;fill-rule:nonzero;stroke:none"
             d="m 0,0 h 1.216 v -2.842 h 0.019 c 0.147,0.225 0.343,0.411 0.598,0.548 0.235,0.138 0.519,0.216 0.823,0.216 0.813,0 1.666,-0.539 1.666,-2.068 V -6.959 H 3.117 v 2.676 c 0,0.696 -0.255,1.215 -0.922,1.215 -0.47,0 -0.803,-0.314 -0.931,-0.676 C 1.225,-3.842 1.216,-3.969 1.216,-4.107 V -6.959 H 0 Z" /></g><path
           id="path48"
           style="fill:#db1f26;fill-opacity:1;fill-rule:nonzero;stroke:none"
           d="m 41.963,10.447 h 1.216 V 5.674 h -1.216 z m 1.284,1.333 c 0,-0.363 -0.264,-0.647 -0.686,-0.647 -0.402,0 -0.666,0.284 -0.666,0.647 0,0.372 0.274,0.657 0.676,0.657 0.412,0 0.667,-0.285 0.676,-0.657" /><g
           transform="translate(45.2877,11.8093)"
           id="g50"><path
             id="path52"
             style="fill:#db1f26;fill-opacity:1;fill-rule:nonzero;stroke:none"
             d="M 0,0 V -1.362 H 1.147 V -2.264 H 0 v -2.107 c 0,-0.578 0.157,-0.882 0.618,-0.882 0.205,0 0.362,0.029 0.47,0.059 l 0.02,-0.922 c -0.177,-0.068 -0.49,-0.117 -0.873,-0.117 -0.441,0 -0.813,0.147 -1.039,0.392 -0.254,0.274 -0.372,0.705 -0.372,1.333 v 2.244 h -0.686 v 0.902 h 0.686 v 1.078 z" /></g><g
           transform="translate(49.6704,8.5651)"
           id="g54"><path
             id="path56"
             style="fill:#db1f26;fill-opacity:1;fill-rule:nonzero;stroke:none"
             d="M 0,0 C 0.01,0.441 -0.186,1.167 -0.99,1.167 -1.735,1.167 -2.048,0.49 -2.097,0 Z m -2.097,-0.843 c 0.029,-0.862 0.706,-1.235 1.47,-1.235 0.559,0 0.961,0.079 1.323,0.216 l 0.176,-0.833 c -0.411,-0.167 -0.98,-0.294 -1.666,-0.294 -1.548,0 -2.46,0.95 -2.46,2.411 0,1.323 0.804,2.568 2.333,2.568 1.548,0 2.058,-1.274 2.058,-2.323 0,-0.225 -0.019,-0.402 -0.039,-0.51 z" /></g><g
           transform="translate(54.8031,5.8208)"
           id="g58"><path
             id="path60"
             style="fill:#db1f26;fill-opacity:1;fill-rule:nonzero;stroke:none"
             d="m 0,0 c -0.255,-0.117 -0.755,-0.245 -1.352,-0.245 -1.49,0 -2.461,0.951 -2.461,2.431 0,1.431 0.98,2.548 2.656,2.548 0.441,0 0.892,-0.098 1.167,-0.225 L -0.206,3.607 c -0.196,0.088 -0.48,0.186 -0.911,0.186 -0.922,0 -1.47,-0.676 -1.461,-1.548 0,-0.981 0.637,-1.539 1.461,-1.539 0.421,0 0.715,0.088 0.95,0.186 z" /></g><g
           transform="translate(56.7257,11.8093)"
           id="g62"><path
             id="path64"
             style="fill:#db1f26;fill-opacity:1;fill-rule:nonzero;stroke:none"
             d="M 0,0 V -1.362 H 1.147 V -2.264 H 0 v -2.107 c 0,-0.578 0.157,-0.882 0.618,-0.882 0.205,0 0.362,0.029 0.47,0.059 l 0.02,-0.922 c -0.177,-0.068 -0.49,-0.117 -0.873,-0.117 -0.441,0 -0.813,0.147 -1.039,0.392 -0.254,0.274 -0.372,0.705 -0.372,1.333 v 2.244 h -0.686 v 0.902 h 0.686 v 1.078 z" /></g><g
           transform="translate(62.4565,7.1048)"
           id="g66"><path
             id="path68"
             style="fill:#db1f26;fill-opacity:1;fill-rule:nonzero;stroke:none"
             d="m 0,0 c 0,-0.568 0.02,-1.039 0.039,-1.431 h -1.058 l -0.059,0.725 h -0.02 c -0.205,-0.343 -0.676,-0.833 -1.529,-0.833 -0.872,0 -1.666,0.52 -1.666,2.078 v 2.803 h 1.206 V 0.745 c 0,-0.794 0.254,-1.303 0.892,-1.303 0.48,0 0.793,0.342 0.921,0.646 0.039,0.108 0.068,0.236 0.068,0.373 v 2.881 l 1.206,0 z" /></g><g
           transform="translate(63.202,8.9082)"
           id="g70"><path
             id="path72"
             style="fill:#db1f26;fill-opacity:1;fill-rule:nonzero;stroke:none"
             d="M 0,0 C 0,0.647 -0.01,1.108 -0.039,1.539 H 1.01 L 1.049,0.627 h 0.039 c 0.235,0.676 0.794,1.02 1.304,1.02 0.117,0 0.186,-0.01 0.284,-0.03 V 0.48 C 2.578,0.5 2.47,0.519 2.323,0.519 1.745,0.519 1.352,0.147 1.245,-0.392 1.225,-0.5 1.206,-0.627 1.206,-0.765 V -3.234 H 0 Z" /></g><g
           transform="translate(69.0888,8.5651)"
           id="g74"><path
             id="path76"
             style="fill:#db1f26;fill-opacity:1;fill-rule:nonzero;stroke:none"
             d="M 0,0 C 0.01,0.441 -0.186,1.167 -0.99,1.167 -1.735,1.167 -2.048,0.49 -2.097,0 Z m -2.097,-0.843 c 0.029,-0.862 0.706,-1.235 1.47,-1.235 0.559,0 0.961,0.079 1.323,0.216 l 0.176,-0.833 c -0.411,-0.167 -0.979,-0.294 -1.666,-0.294 -1.548,0 -2.46,0.95 -2.46,2.411 0,1.323 0.804,2.568 2.333,2.568 1.548,0 2.058,-1.274 2.058,-2.323 0,-0.225 -0.019,-0.402 -0.039,-0.51 z" /></g><path
           id="path78"
           style="fill:#db1f26;fill-opacity:1;fill-rule:nonzero;stroke:none"
           d="m 72.245,12.633 h 1.216 V 5.674 h -1.216 z" /><path
           id="path80"
           style="fill:#db1f26;fill-opacity:1;fill-rule:nonzero;stroke:none"
           d="m 74.186,12.633 h 1.216 V 5.674 h -1.216 z" /><g
           transform="translate(77.3416,7.6732)"
           id="g82"><path
             id="path84"
             style="fill:#db1f26;fill-opacity:1;fill-rule:nonzero;stroke:none"
             d="m 0,0 c 0,-0.117 0.01,-0.225 0.039,-0.333 0.118,-0.49 0.549,-0.843 1.059,-0.843 0.764,0 1.215,0.637 1.215,1.578 0,0.843 -0.412,1.529 -1.186,1.529 -0.5,0 -0.96,-0.363 -1.078,-0.892 C 0.02,0.941 0,0.833 0,0.735 Z m -1.206,1.186 c 0,0.627 -0.019,1.137 -0.039,1.588 h 1.059 l 0.059,-0.735 h 0.019 c 0.353,0.539 0.912,0.843 1.637,0.843 1.098,0 2.009,-0.941 2.009,-2.431 0,-1.725 -1.088,-2.558 -2.176,-2.558 -0.597,0 -1.097,0.255 -1.342,0.637 H 0 v -2.47 h -1.206 z" /></g><g
           transform="translate(55.2854,70.7254)"
           id="g86"><path
             id="path88"
             style="fill:#db1f26;fill-opacity:1;fill-rule:nonzero;stroke:none"
             d="m 0,0 v -15.996 c 0.003,-0.075 0.003,-0.15 0.006,-0.225 H 13.584 C 13.241,-8.265 7.543,-1.673 0,0" /></g><g
           transform="translate(20.5366,70.7254)"
           id="g90"><path
             id="path92"
             style="fill:#db1f26;fill-opacity:1;fill-rule:nonzero;stroke:none"
             d="M 0,0 V -16.221 H 13.584 C 13.241,-8.265 7.543,-1.673 0,0" /></g><g
           transform="translate(34.9079,53.7501)"
           id="g94"><path
             id="path96"
             style="fill:#db1f26;fill-opacity:1;fill-rule:nonzero;stroke:none"
             d="m 0,0 v -17.368 c 8.953,0.382 16.142,7.514 16.608,16.444 V 0.565 C 16.349,8.606 10.618,15.289 3.016,16.975 V 0 Z m -14.371,0 v -21.156 h -3.77 v 42.312 c 7.206,0 13.567,-3.605 17.387,-9.108 v 9.108 c 7.191,0 13.539,-3.59 17.362,-9.073 v 9.073 C 28.292,21.156 37.764,11.684 37.764,0 H 20.402 c 0,-0.328 -0.024,-21.156 -0.024,-21.156 h -3.77 v 9.073 C 12.785,-17.566 6.437,-21.156 -0.754,-21.156 V 0 Z m -11.977,-36.16 h 72.32 v 72.32 h -72.32 z" /></g></g></g></g></svg>