<?xml version="1.0" encoding="UTF-8" standalone="no"?>
<svg
   xmlns:dc="http://purl.org/dc/elements/1.1/"
   xmlns:cc="http://creativecommons.org/ns#"
   xmlns:rdf="http://www.w3.org/1999/02/22-rdf-syntax-ns#"
   xmlns:svg="http://www.w3.org/2000/svg"
   xmlns="http://www.w3.org/2000/svg"
   viewBox="0 0 220.61333 131.06667"
   height="131.06667"
   width="220.61333"
   xml:space="preserve"
   id="svg2"
   version="1.1"><metadata
     id="metadata8"><rdf:RDF><cc:Work
         rdf:about=""><dc:format>image/svg+xml</dc:format><dc:type
           rdf:resource="http://purl.org/dc/dcmitype/StillImage" /></cc:Work></rdf:RDF></metadata><defs
     id="defs6"><clipPath
       id="clipPath18"
       clipPathUnits="userSpaceOnUse"><path
         id="path16"
         d="M 0,98.3 H 165.46 V 0 H 0 Z" /></clipPath></defs><g
     transform="matrix(1.3333333,0,0,-1.3333333,0,131.06667)"
     id="g10"><g
       id="g12"><g
         clip-path="url(#clipPath18)"
         id="g14"><g
           transform="translate(7.4567,55.1232)"
           id="g20"><path
             id="path22"
             style="fill:#000000;fill-opacity:1;fill-rule:nonzero;stroke:none"
             d="M 0,0 H 1.847 C 2.311,0.008 2.659,0.156 2.892,0.444 3.115,0.725 3.226,1.037 3.226,1.38 3.226,1.665 3.181,1.904 3.09,2.099 2.996,2.275 2.864,2.413 2.695,2.515 2.439,2.682 2.141,2.762 1.802,2.754 H 0 Z m -1.245,3.964 h 2.98 C 2.059,3.964 2.371,3.933 2.672,3.871 2.973,3.79 3.278,3.623 3.586,3.371 3.845,3.181 4.055,2.909 4.217,2.556 4.386,2.214 4.47,1.811 4.47,1.345 4.47,0.717 4.256,0.145 3.827,-0.372 3.387,-0.915 2.743,-1.194 1.896,-1.21 H 0 v -3.312 h -1.245 z" /></g><g
           transform="translate(18.4326,55.3676)"
           id="g24"><path
             id="path26"
             style="fill:#000000;fill-opacity:1;fill-rule:nonzero;stroke:none"
             d="M 0,0 H 1.888 C 2.355,0.008 2.706,0.148 2.939,0.42 3.169,0.673 3.284,0.984 3.284,1.354 3.276,1.798 3.139,2.119 2.871,2.317 2.66,2.492 2.355,2.58 1.956,2.58 H 0 Z M -1.245,3.72 H 1.967 C 2.652,3.72 3.211,3.534 3.644,3.161 4.164,2.738 4.436,2.135 4.459,1.351 4.444,0.199 3.915,-0.585 2.871,-1.001 L 4.774,-4.767 H 3.295 L 1.594,-1.14 H 0 v -3.627 h -1.245 z" /></g><path
           id="path28"
           style="fill:#000000;fill-opacity:1;fill-rule:nonzero;stroke:none"
           d="m 28.752,59.088 h 1.245 v -8.486 h -1.245 z" /><g
           transform="translate(36.0525,59.0875)"
           id="g30"><path
             id="path32"
             style="fill:#000000;fill-opacity:1;fill-rule:nonzero;stroke:none"
             d="M 0,0 H 1.173 L 4.896,-6.033 H 4.919 V 0 H 6.163 V -8.486 H 4.984 L 1.267,-2.453 H 1.245 V -8.486 H 0 Z" /></g><g
           transform="translate(50.7592,55.2686)"
           id="g34"><path
             id="path36"
             style="fill:#000000;fill-opacity:1;fill-rule:nonzero;stroke:none"
             d="M 0,0 H 2.922 V -1.726 C 2.907,-2.575 2.625,-3.286 2.077,-3.86 1.524,-4.429 0.829,-4.722 -0.008,-4.737 c -0.647,0.015 -1.186,0.178 -1.618,0.489 -0.439,0.298 -0.759,0.644 -0.958,1.036 -0.06,0.128 -0.114,0.25 -0.163,0.366 -0.045,0.121 -0.083,0.272 -0.113,0.454 -0.056,0.342 -0.084,0.997 -0.084,1.968 0,0.985 0.028,1.645 0.084,1.979 0.06,0.333 0.152,0.603 0.276,0.809 0.199,0.392 0.519,0.741 0.958,1.048 0.432,0.31 0.971,0.469 1.618,0.477 C 0.784,3.881 1.43,3.639 1.93,3.161 2.43,2.68 2.745,2.085 2.877,1.375 H 1.556 C 1.455,1.718 1.27,2.01 1.003,2.252 0.725,2.482 0.386,2.601 -0.013,2.609 -0.306,2.601 -0.558,2.541 -0.769,2.428 -0.983,2.311 -1.156,2.166 -1.288,1.991 -1.45,1.808 -1.557,1.572 -1.609,1.285 -1.67,0.981 -1.7,0.412 -1.7,-0.424 c 0,-0.836 0.03,-1.402 0.091,-1.698 0.052,-0.295 0.16,-0.534 0.322,-0.717 0.131,-0.175 0.304,-0.317 0.519,-0.426 0.211,-0.128 0.463,-0.192 0.757,-0.192 0.485,0 0.886,0.171 1.203,0.513 0.316,0.327 0.478,0.757 0.485,1.291 V -1.21 L 0,-1.21 Z" /></g><g
           transform="translate(59.3616,59.0875)"
           id="g38"><path
             id="path40"
             style="fill:#000000;fill-opacity:1;fill-rule:nonzero;stroke:none"
             d="m 0,0 h 1.245 v -7.276 h 4.006 v -1.21 H 0 Z" /></g><g
           transform="translate(69.9769,59.0875)"
           id="g42"><path
             id="path44"
             style="fill:#000000;fill-opacity:1;fill-rule:nonzero;stroke:none"
             d="M 0,0 H 5.251 V -1.21 H 1.245 v -2.428 h 3.42 v -1.14 h -3.42 v -2.498 h 4.006 v -1.21 H 0 Z" /></g><g
           transform="translate(89.2236,54.3675)"
           id="g46"><path
             id="path48"
             style="fill:#000000;fill-opacity:1;fill-rule:nonzero;stroke:none"
             d="m 0,0 v -2.556 h 1.921 c 0.464,0.007 0.803,0.138 1.018,0.391 0.214,0.249 0.322,0.544 0.322,0.887 0,0.35 -0.108,0.65 -0.322,0.899 C 2.724,-0.134 2.385,-0.008 1.921,0 Z M 0,3.58 V 1.14 h 1.8 c 0.455,0 0.79,0.123 1.004,0.368 0.218,0.227 0.327,0.511 0.327,0.855 0,0.343 -0.109,0.634 -0.327,0.871 C 2.59,3.457 2.255,3.572 1.8,3.58 Z M -1.245,4.72 H 1.941 C 2.749,4.712 3.357,4.503 3.763,4.092 4.172,3.676 4.377,3.127 4.377,2.444 4.385,2.095 4.304,1.761 4.135,1.443 4.048,1.292 3.924,1.148 3.763,1.012 3.601,0.869 3.402,0.739 3.165,0.622 V 0.599 C 3.614,0.479 3.953,0.236 4.183,-0.128 4.398,-0.505 4.505,-0.914 4.505,-1.357 4.498,-2.09 4.276,-2.67 3.839,-3.097 3.407,-3.543 2.867,-3.766 2.22,-3.766 h -3.465 z" /></g><g
           transform="translate(100.1442,55.3676)"
           id="g50"><path
             id="path52"
             style="fill:#000000;fill-opacity:1;fill-rule:nonzero;stroke:none"
             d="M 0,0 H 1.888 C 2.355,0.008 2.706,0.148 2.939,0.42 3.169,0.673 3.284,0.984 3.284,1.354 3.276,1.798 3.139,2.119 2.871,2.317 2.66,2.492 2.355,2.58 1.956,2.58 H 0 Z M -1.245,3.72 H 1.967 C 2.652,3.72 3.211,3.534 3.644,3.161 4.164,2.738 4.436,2.135 4.459,1.351 4.444,0.199 3.915,-0.585 2.871,-1.001 L 4.774,-4.767 H 3.295 L 1.594,-1.14 H 0 v -3.627 h -1.245 z" /></g><g
           transform="translate(113.8781,53.6389)"
           id="g54"><path
             id="path56"
             style="fill:#000000;fill-opacity:1;fill-rule:nonzero;stroke:none"
             d="M 0,0 -1.19,3.713 H -1.212 L -2.402,0 Z m 0.355,-1.14 h -3.117 l -0.632,-1.898 h -1.319 l 2.988,8.487 h 1.043 L 2.306,-3.038 H 0.992 Z" /></g><g
           transform="translate(120.7138,59.0875)"
           id="g58"><path
             id="path60"
             style="fill:#000000;fill-opacity:1;fill-rule:nonzero;stroke:none"
             d="M 0,0 H 1.173 L 4.896,-6.033 H 4.919 V 0 H 6.163 V -8.486 H 4.984 L 1.267,-2.453 H 1.245 V -8.486 H 0 Z" /></g><g
           transform="translate(133.3361,51.8112)"
           id="g62"><path
             id="path64"
             style="fill:#000000;fill-opacity:1;fill-rule:nonzero;stroke:none"
             d="M 0,0 H 1.49 C 2.19,0 2.698,0.247 3.014,0.741 3.154,0.923 3.242,1.155 3.28,1.435 3.313,1.711 3.331,2.228 3.331,2.986 3.331,3.725 3.313,4.254 3.28,4.573 3.235,4.892 3.127,5.15 2.958,5.349 2.612,5.843 2.122,6.082 1.49,6.066 H 0 Z M -1.245,7.276 H 1.632 C 2.745,7.269 3.579,6.791 4.136,5.844 4.335,5.526 4.461,5.193 4.513,4.843 4.554,4.494 4.575,3.891 4.575,3.033 4.575,2.121 4.543,1.485 4.479,1.124 4.449,0.942 4.404,0.778 4.344,0.635 4.28,0.495 4.203,0.35 4.113,0.199 3.872,-0.201 3.537,-0.531 3.109,-0.791 2.684,-1.07 2.163,-1.21 1.547,-1.21 h -2.792 z" /></g><g
           transform="translate(143.4601,54.8443)"
           id="g66"><path
             id="path68"
             style="fill:#000000;fill-opacity:1;fill-rule:nonzero;stroke:none"
             d="m 0,0 c 0,-0.836 0.03,-1.402 0.09,-1.697 0.053,-0.296 0.16,-0.535 0.322,-0.718 0.132,-0.175 0.305,-0.317 0.52,-0.426 0.211,-0.128 0.463,-0.192 0.757,-0.192 0.297,0 0.555,0.064 0.773,0.192 0.207,0.109 0.373,0.251 0.497,0.426 0.162,0.183 0.273,0.422 0.333,0.718 C 3.349,-1.402 3.377,-0.836 3.377,0 3.377,0.836 3.349,1.406 3.292,1.709 3.232,1.997 3.121,2.232 2.959,2.415 2.835,2.59 2.669,2.736 2.462,2.852 2.244,2.965 1.986,3.025 1.689,3.033 1.395,3.025 1.143,2.965 0.932,2.852 0.717,2.736 0.544,2.59 0.412,2.415 0.25,2.232 0.143,1.997 0.09,1.709 0.03,1.406 0,0.836 0,0 m -1.245,0 c 0,0.988 0.028,1.649 0.085,1.983 0.06,0.335 0.152,0.605 0.276,0.811 0.199,0.39 0.519,0.738 0.958,1.044 C 0.506,4.147 1.045,4.305 1.691,4.313 2.345,4.305 2.89,4.146 3.326,3.836 3.758,3.529 4.069,3.18 4.261,2.788 4.4,2.582 4.496,2.313 4.548,1.979 4.597,1.645 4.622,0.986 4.622,0 4.622,-0.97 4.597,-1.626 4.548,-1.967 4.496,-2.309 4.4,-2.582 4.261,-2.788 4.069,-3.18 3.757,-3.525 3.325,-3.824 2.89,-4.135 2.345,-4.297 1.691,-4.313 c -0.646,0.016 -1.185,0.178 -1.617,0.489 -0.44,0.299 -0.759,0.644 -0.958,1.036 -0.06,0.128 -0.114,0.25 -0.163,0.367 -0.045,0.12 -0.083,0.271 -0.113,0.454 C -1.217,-1.626 -1.245,-0.97 -1.245,0" /></g><g
           transform="translate(152.4511,59.0875)"
           id="g70"><path
             id="path72"
             style="fill:#000000;fill-opacity:1;fill-rule:nonzero;stroke:none"
             d="M 0,0 H 1.173 L 4.896,-6.033 H 4.919 V 0 H 6.163 V -8.486 H 4.984 L 1.267,-2.453 H 1.245 V -8.486 H 0 Z" /></g><g
           transform="translate(7.4567,39.8607)"
           id="g74"><path
             id="path76"
             style="fill:#000000;fill-opacity:1;fill-rule:nonzero;stroke:none"
             d="M 0,0 H 1.847 C 2.311,0.008 2.659,0.156 2.892,0.444 3.115,0.725 3.226,1.037 3.226,1.38 3.226,1.665 3.181,1.904 3.09,2.099 2.996,2.275 2.864,2.413 2.695,2.515 2.439,2.682 2.141,2.762 1.802,2.754 H 0 Z m -1.245,3.964 h 2.98 C 2.059,3.964 2.371,3.933 2.672,3.871 2.973,3.79 3.278,3.623 3.586,3.371 3.845,3.181 4.055,2.909 4.217,2.556 4.386,2.214 4.47,1.811 4.47,1.345 4.47,0.717 4.256,0.145 3.827,-0.372 3.387,-0.915 2.743,-1.194 1.896,-1.21 H 0 v -3.312 h -1.245 z" /></g><g
           transform="translate(17.7985,43.8251)"
           id="g78"><path
             id="path80"
             style="fill:#000000;fill-opacity:1;fill-rule:nonzero;stroke:none"
             d="M 0,0 H 5.251 V -1.21 H 1.245 v -2.428 h 3.42 v -1.14 h -3.42 v -2.498 h 4.006 v -1.21 H 0 Z" /></g><g
           transform="translate(30.8326,40.1051)"
           id="g82"><path
             id="path84"
             style="fill:#000000;fill-opacity:1;fill-rule:nonzero;stroke:none"
             d="M 0,0 H 1.888 C 2.355,0.008 2.706,0.148 2.939,0.42 3.169,0.673 3.284,0.984 3.284,1.354 3.276,1.798 3.139,2.119 2.871,2.317 2.66,2.492 2.355,2.58 1.956,2.58 H 0 Z M -1.245,3.72 H 1.967 C 2.652,3.72 3.211,3.534 3.644,3.161 4.164,2.738 4.436,2.135 4.459,1.351 4.444,0.199 3.915,-0.585 2.871,-1.001 L 4.774,-4.767 H 3.295 L 1.594,-1.14 H 0 v -3.627 h -1.245 z" /></g><g
           transform="translate(41.693,43.8251)"
           id="g86"><path
             id="path88"
             style="fill:#000000;fill-opacity:1;fill-rule:nonzero;stroke:none"
             d="M 0,0 H 1.245 V -4.371 H 1.269 L 4.653,0 H 6.131 L 3.497,-3.347 6.408,-8.486 H 4.929 L 2.689,-4.337 1.245,-5.902 V -8.486 H 0 Z" /></g><path
           id="path90"
           style="fill:#000000;fill-opacity:1;fill-rule:nonzero;stroke:none"
           d="m 53.681,43.825 h 1.245 v -8.486 h -1.245 z" /><g
           transform="translate(61.5619,43.8251)"
           id="g92"><path
             id="path94"
             style="fill:#000000;fill-opacity:1;fill-rule:nonzero;stroke:none"
             d="M 0,0 H 1.173 L 4.896,-6.033 H 4.919 V 0 H 6.163 V -8.486 H 4.984 L 1.267,-2.453 H 1.245 V -8.486 H 0 Z" /></g><g
           transform="translate(73.4306,37.3945)"
           id="g96"><path
             id="path98"
             style="fill:#000000;fill-opacity:1;fill-rule:nonzero;stroke:none"
             d="m 0,0 c 0.654,-0.556 1.433,-0.838 2.336,-0.846 1.068,0.016 1.61,0.41 1.625,1.183 C 3.969,0.97 3.612,1.35 2.89,1.479 2.559,1.525 2.196,1.578 1.801,1.636 c -0.707,0.12 -1.244,0.39 -1.612,0.81 -0.38,0.431 -0.57,0.955 -0.57,1.573 0,0.741 0.238,1.34 0.715,1.794 C 0.796,6.263 1.451,6.493 2.3,6.5 3.322,6.477 4.21,6.185 4.964,5.624 L 4.271,4.567 C 3.654,4.987 2.975,5.205 2.234,5.22 1.851,5.22 1.531,5.121 1.275,4.923 1.008,4.717 0.871,4.411 0.863,4.003 0.863,3.758 0.955,3.537 1.14,3.339 1.324,3.137 1.619,2.997 2.025,2.919 2.251,2.88 2.559,2.836 2.95,2.785 3.721,2.676 4.29,2.391 4.658,1.929 5.023,1.474 5.206,0.946 5.206,0.344 5.164,-1.279 4.203,-2.102 2.321,-2.126 c -1.217,0 -2.263,0.386 -3.138,1.159 z" /></g><g
           transform="translate(88.0729,43.8239)"
           id="g100"><path
             id="path102"
             style="fill:#00acb1;fill-opacity:1;fill-rule:nonzero;stroke:none"
             d="m 0,0 h 0.895 v -3.775 h 3.791 v -0.93 H 0.895 V -8.484 H 0 v 3.779 h -3.8 v 0.93 H 0 Z" /></g><g
           transform="translate(97.9662,43.8251)"
           id="g104"><path
             id="path106"
             style="fill:#000000;fill-opacity:1;fill-rule:nonzero;stroke:none"
             d="m 0,0 h 1.314 l 1.29,-6.033 H 2.627 L 4.222,0 h 0.902 l 1.59,-6.033 H 6.737 L 8.033,0 H 9.347 L 7.295,-8.486 H 6.252 l -1.567,6.12 H 4.662 L 3.089,-8.486 H 2.052 Z" /></g><path
           id="path108"
           style="fill:#000000;fill-opacity:1;fill-rule:nonzero;stroke:none"
           d="m 112.205,43.825 h 1.245 v -8.486 h -1.245 z" /><g
           transform="translate(120.087,43.8251)"
           id="g110"><path
             id="path112"
             style="fill:#000000;fill-opacity:1;fill-rule:nonzero;stroke:none"
             d="m 0,0 h 1.245 v -7.276 h 4.006 v -1.21 H 0 Z" /></g><g
           transform="translate(131.0463,43.8251)"
           id="g114"><path
             id="path116"
             style="fill:#000000;fill-opacity:1;fill-rule:nonzero;stroke:none"
             d="m 0,0 h 1.245 v -7.276 h 4.006 v -1.21 H 0 Z" /></g></g></g></g></svg>