<?xml version="1.0" encoding="UTF-8" standalone="no"?>
<svg
   xmlns:dc="http://purl.org/dc/elements/1.1/"
   xmlns:cc="http://creativecommons.org/ns#"
   xmlns:rdf="http://www.w3.org/1999/02/22-rdf-syntax-ns#"
   xmlns:svg="http://www.w3.org/2000/svg"
   xmlns="http://www.w3.org/2000/svg"
   viewBox="0 0 220.61333 131.06667"
   height="131.06667"
   width="220.61333"
   xml:space="preserve"
   id="svg2"
   version="1.1"><metadata
     id="metadata8"><rdf:RDF><cc:Work
         rdf:about=""><dc:format>image/svg+xml</dc:format><dc:type
           rdf:resource="http://purl.org/dc/dcmitype/StillImage" /></cc:Work></rdf:RDF></metadata><defs
     id="defs6"><clipPath
       id="clipPath18"
       clipPathUnits="userSpaceOnUse"><path
         id="path16"
         d="M 0,98.3 H 165.46 V 0 H 0 Z" /></clipPath></defs><g
     transform="matrix(1.3333333,0,0,-1.3333333,0,131.06667)"
     id="g10"><g
       id="g12"><g
         clip-path="url(#clipPath18)"
         id="g14"><g
           transform="translate(68.8938,50.1646)"
           id="g20"><path
             id="path22"
             style="fill:#000000;fill-opacity:1;fill-rule:nonzero;stroke:none"
             d="M 0,0 C -0.007,-0.889 0.492,-1.529 1.055,-2.135 1.1,-2.184 1.22,-2.227 1.268,-2.201 2.096,-1.754 2.965,-1.345 3.418,-0.447 3.779,0.267 3.59,1.184 2.996,1.568 2.343,1.99 1.645,2.011 0.952,1.656 0.282,1.313 -0.002,0.735 0,0 M 4.628,-7.419 C 3.357,-6.038 2.111,-4.685 0.81,-3.271 0.324,-3.661 -0.193,-3.988 -0.601,-4.42 -1.67,-5.551 -1.345,-7.367 0.045,-8.066 0.45,-8.27 0.917,-8.403 1.368,-8.449 c 1.209,-0.125 2.301,0.195 3.26,1.03 m -4.366,4.668 c -0.311,0.468 -0.64,0.879 -0.878,1.337 C -1.247,-0.198 -1.009,1.21 -0.081,1.99 0.945,2.852 2.656,2.915 3.702,2.129 4.629,1.432 4.853,-0.107 4.058,-1.058 3.6,-1.607 2.96,-2.006 2.387,-2.454 2.191,-2.608 1.951,-2.705 1.693,-2.85 c 1.179,-1.288 2.336,-2.551 3.536,-3.861 0.822,1.212 0.93,2.559 0.978,3.946 H 7.1 C 7.106,-4.411 6.819,-5.97 5.84,-7.361 6.317,-7.892 6.785,-8.412 7.255,-8.935 6.282,-9.298 5.712,-8.754 5.22,-8.036 3.932,-9.111 2.476,-9.39 0.902,-9.261 c -2.484,0.202 -3.896,2.641 -2.645,4.683 0.354,0.578 0.969,1 1.478,1.478 0.15,0.142 0.348,0.233 0.527,0.349" /></g><g
           transform="translate(23.0558,42.7845)"
           id="g24"><path
             id="path26"
             style="fill:#000000;fill-opacity:1;fill-rule:nonzero;stroke:none"
             d="M 0,0 C 0.061,0.044 0.099,0.065 0.129,0.094 1.625,1.519 1.997,3.296 1.647,5.246 1.065,8.491 -2.323,10.206 -5.157,8.687 -6.89,7.759 -7.672,6.2 -7.738,4.283 c -0.069,-2.01 0.616,-3.699 2.391,-4.77 1.471,-0.886 3.011,-0.838 4.601,-0.075 -0.68,0.782 -1.325,1.525 -2.021,2.325 0.3,0 0.501,-0.023 0.694,0.005 C -1.681,1.824 -1.42,1.671 -1.181,1.362 -0.819,0.896 -0.409,0.467 0,0 m 0.616,-0.711 c 0.385,-0.457 0.755,-0.896 1.141,-1.354 -0.892,-0.274 -1.501,0.056 -1.823,0.721 -0.912,-0.196 -1.723,-0.479 -2.547,-0.528 -3.38,-0.203 -5.542,1.879 -6.034,4.902 -0.388,2.388 0.312,4.463 2.314,5.924 1.757,1.283 3.725,1.407 5.697,0.572 C 1.365,8.678 2.403,7.048 2.677,4.924 2.925,3.009 2.457,1.294 1.157,-0.164 0.999,-0.342 0.822,-0.503 0.616,-0.711" /></g><g
           transform="translate(122.4715,51.0825)"
           id="g28"><path
             id="path30"
             style="fill:#000000;fill-opacity:1;fill-rule:nonzero;stroke:none"
             d="m 0,0 v -9.906 h -0.922 c 0,0.162 0,0.325 0,0.488 0.004,3.117 0.01,6.234 0.009,9.351 0,0.498 0.06,1.017 -0.435,1.497 0.511,0 0.912,0.018 1.309,-0.012 C 0.071,1.41 0.189,1.274 0.273,1.171 2.714,-1.805 5.151,-4.784 7.589,-7.762 7.684,-7.878 7.781,-7.991 7.959,-8.204 V 1.433 H 8.827 V -9.888 C 8.393,-10.016 8.087,-9.91 7.783,-9.533 5.322,-6.482 2.838,-3.451 0.36,-0.414 0.272,-0.307 0.178,-0.205 0,0" /></g><g
           transform="translate(45.5479,46.8206)"
           id="g32"><path
             id="path34"
             style="fill:#000000;fill-opacity:1;fill-rule:nonzero;stroke:none"
             d="M 0,0 C 1.033,0.059 2.054,0.03 3.042,0.195 4.16,0.382 4.735,1.264 4.734,2.49 4.733,3.706 4.14,4.618 3.041,4.791 2.051,4.948 1.031,4.907 0,4.954 Z M 6.989,-5.62 C 6.34,-5.755 5.892,-5.688 5.512,-5.072 c -0.857,1.389 -1.81,2.719 -2.736,4.065 -0.082,0.12 -0.245,0.257 -0.375,0.261 -0.786,0.024 -1.574,0.012 -2.41,0.012 V -5.64 h -0.998 v 0.51 c 0,3.157 0,6.315 -0.001,9.473 0,0.459 0.044,0.932 -0.411,1.319 0.146,0.029 0.221,0.057 0.296,0.056 C 0.131,5.709 1.388,5.747 2.638,5.67 3.903,5.592 4.979,5.077 5.493,3.83 5.974,2.662 5.921,1.485 5.081,0.489 4.705,0.044 4.147,-0.246 3.626,-0.642 4.701,-2.233 5.837,-3.915 6.989,-5.62" /></g><g
           transform="translate(103.5574,46.8346)"
           id="g36"><path
             id="path38"
             style="fill:#000000;fill-opacity:1;fill-rule:nonzero;stroke:none"
             d="M 0,0 C 1.011,0.046 2.015,0.006 2.988,0.159 4.183,0.346 4.819,1.285 4.786,2.546 4.752,3.795 4.051,4.671 2.847,4.824 2.084,4.921 1.303,4.878 0.531,4.896 0.356,4.9 0.181,4.897 0,4.897 Z m -0.01,-0.748 v -4.905 h -0.949 c 0,0.16 0,0.324 0,0.488 -0.004,3.201 0,6.401 -0.021,9.601 C -0.982,4.835 -1.113,5.233 -1.191,5.674 -1.208,5.671 -1.12,5.706 -1.033,5.706 0.179,5.698 1.392,5.714 2.603,5.668 4.18,5.609 5.385,4.676 5.708,3.329 6.115,1.634 5.397,0.219 3.782,-0.471 3.73,-0.493 3.681,-0.52 3.595,-0.562 4.734,-2.246 5.867,-3.922 7.004,-5.604 6.282,-5.824 6.008,-5.73 5.624,-5.162 4.685,-3.773 3.747,-2.384 2.797,-1.004 2.716,-0.887 2.548,-0.763 2.416,-0.759 1.628,-0.736 0.839,-0.748 -0.01,-0.748" /></g><g
           transform="translate(144.3145,46.9029)"
           id="g40"><path
             id="path42"
             style="fill:#000000;fill-opacity:1;fill-rule:nonzero;stroke:none"
             d="m 0,0 c 0.811,0 1.571,-0.001 2.331,0.001 0.14,0 0.282,0.003 0.422,0.021 C 3.934,0.171 4.728,1.04 4.759,2.211 4.797,3.644 4.154,4.594 2.883,4.741 1.943,4.85 0.98,4.762 0,4.762 Z m -1.458,5.579 c 0.223,0.036 0.302,0.061 0.381,0.06 1.24,-0.01 2.481,0.01 3.719,-0.044 C 4.378,5.519 5.654,4.35 5.773,2.795 5.901,1.119 5.302,0.169 3.589,-0.635 4.725,-2.316 5.858,-3.993 6.997,-5.678 6.22,-5.888 6.004,-5.808 5.59,-5.195 c -0.93,1.377 -1.859,2.754 -2.801,4.123 -0.081,0.117 -0.252,0.24 -0.384,0.243 -0.788,0.023 -1.577,0.012 -2.414,0.012 v -4.906 h -0.974 v 0.493 c 0,3.158 0.004,6.315 -0.004,9.473 -0.001,0.453 0.088,0.944 -0.471,1.336" /></g><g
           transform="translate(36.2444,52.5148)"
           id="g44"><path
             id="path46"
             style="fill:#000000;fill-opacity:1;fill-rule:nonzero;stroke:none"
             d="M 0,0 H 0.9 C 0.916,-0.062 0.949,-0.127 0.948,-0.191 0.943,-2.645 0.99,-5.1 0.912,-7.55 c -0.078,-2.435 -1.777,-4.047 -4.211,-4.123 -1.476,-0.047 -2.831,0.267 -3.846,1.456 -0.69,0.808 -0.99,1.763 -1.003,2.805 -0.024,2.072 -0.012,4.145 -0.04,6.217 -0.006,0.375 -0.133,0.748 -0.212,1.163 h 1.189 v -0.446 c 0,-2.129 -0.006,-4.258 0.005,-6.388 0.002,-0.435 0.03,-0.876 0.11,-1.303 0.297,-1.582 1.483,-2.609 3.096,-2.667 0.502,-0.018 1.023,0.003 1.508,0.119 1.521,0.364 2.428,1.495 2.465,3.173 0.052,2.34 0.022,4.681 0.027,7.022 0,0.166 0,0.331 0,0.522" /></g><g
           transform="translate(92.9623,45.7439)"
           id="g48"><path
             id="path50"
             style="fill:#000000;fill-opacity:1;fill-rule:nonzero;stroke:none"
             d="M 0,0 H 4.506 C 3.747,1.749 3.006,3.455 2.23,5.243 1.469,3.453 0.744,1.75 0,0 m 7.542,-4.621 c -0.279,0 -0.503,0.013 -0.725,-0.004 -0.235,-0.017 -0.348,0.08 -0.439,0.295 -0.456,1.075 -0.938,2.14 -1.39,3.216 -0.1,0.237 -0.227,0.308 -0.472,0.307 -1.509,-0.01 -3.019,-0.012 -4.528,0.002 -0.272,0.002 -0.398,-0.097 -0.496,-0.338 -0.395,-0.963 -0.809,-1.918 -1.215,-2.877 -0.286,-0.676 -0.365,-0.714 -1.188,-0.536 0.327,0.752 0.647,1.498 0.974,2.241 C -0.659,0.598 0.621,3.509 1.9,6.422 1.983,6.612 2.034,6.876 2.315,6.786 2.467,6.737 2.637,6.588 2.702,6.442 4.286,2.864 5.856,-0.72 7.428,-4.302 7.461,-4.378 7.484,-4.457 7.542,-4.621" /></g><g
           transform="translate(54.149,52.5175)"
           id="g52"><path
             id="path54"
             style="fill:#000000;fill-opacity:1;fill-rule:nonzero;stroke:none"
             d="M 0,0 H 6.289 V -0.781 H 1.223 V -5.154 H 6.175 V -5.969 H 1.224 v -4.612 h 5.285 v -0.751 H 0.211 v 0.488 c 0,3.173 0.008,6.346 -0.009,9.518 C 0.2,-0.9 0.076,-0.474 0,0" /></g><g
           transform="translate(84.4706,51.6649)"
           id="g56"><path
             id="path58"
             style="fill:#000000;fill-opacity:1;fill-rule:nonzero;stroke:none"
             d="m 0,0 v -4.749 c 0.891,0 1.749,-0.034 2.603,0.008 1.243,0.061 2.072,0.931 2.144,2.18 0.08,1.369 -0.603,2.386 -1.868,2.539 C 1.94,0.091 0.976,0 0,0 m -0.021,-10.498 h -0.983 v 0.485 c 0,3.13 0.001,6.26 -10e-4,9.39 0,0.498 0.079,1.016 -0.35,1.399 0.054,0.048 0.074,0.081 0.093,0.08 C 0.243,0.822 1.772,0.944 3.246,0.712 5.67,0.331 6.639,-2.674 5.011,-4.484 4.284,-5.293 3.303,-5.539 2.262,-5.574 1.517,-5.598 0.771,-5.579 -0.021,-5.579 Z" /></g><g
           transform="translate(140.3394,51.7383)"
           id="g60"><path
             id="path62"
             style="fill:#000000;fill-opacity:1;fill-rule:nonzero;stroke:none"
             d="m 0,0 h -5.076 v -4.369 h 4.924 V -5.187 H -5.076 V -9.805 H 0.169 V -10.56 H -6.08 v 0.496 c 0,3.173 0.008,6.345 -0.01,9.518 -0.002,0.425 -0.136,0.85 -0.214,1.307 l 6.304,0 z" /></g><g
           transform="translate(12.4068,51.0064)"
           id="g64"><path
             id="path66"
             style="fill:#000000;fill-opacity:1;fill-rule:nonzero;stroke:none"
             d="m 0,0 c -0.147,0.104 -0.277,0.163 -0.364,0.261 -0.852,0.966 -2.893,1.043 -3.804,0.138 -0.669,-0.666 -0.742,-1.811 -0.065,-2.534 0.435,-0.464 0.992,-0.82 1.516,-1.194 0.63,-0.449 1.315,-0.825 1.92,-1.304 1.185,-0.938 1.566,-2.131 1.161,-3.402 -0.366,-1.147 -1.47,-1.944 -2.885,-2.051 -0.985,-0.074 -1.933,0.072 -2.823,0.544 -0.283,0.15 -0.427,0.317 -0.385,0.653 0.034,0.262 0.007,0.533 0.007,0.933 0.196,-0.141 0.338,-0.206 0.427,-0.314 0.858,-1.034 2.68,-1.366 3.843,-0.69 1.232,0.715 1.392,2.384 0.283,3.386 -0.477,0.43 -1.043,0.763 -1.576,1.13 -0.614,0.422 -1.265,0.796 -1.849,1.256 -0.882,0.694 -1.236,1.641 -1.019,2.742 0.213,1.081 0.941,1.769 1.967,2.056 0.608,0.171 1.273,0.15 1.915,0.192 C -1.54,1.814 -1.34,1.756 -1.149,1.711 0.025,1.435 0.124,1.294 0,0" /></g><g
           transform="translate(152.9181,43.0005)"
           id="g68"><path
             id="path70"
             style="fill:#000000;fill-opacity:1;fill-rule:nonzero;stroke:none"
             d="m 0,0 c 0.118,-0.09 0.275,-0.156 0.349,-0.274 0.764,-1.228 3.059,-1.211 3.925,-0.63 1.06,0.711 1.283,2.256 0.34,3.158 C 4.021,2.822 3.292,3.249 2.615,3.728 2.11,4.085 1.568,4.395 1.085,4.779 0.186,5.494 -0.22,6.433 0.028,7.581 0.283,8.756 1.096,9.396 2.209,9.695 3.222,9.968 4.217,9.866 5.193,9.496 5.515,9.374 5.713,9.204 5.656,8.817 5.621,8.584 5.65,8.342 5.65,7.999 5.481,8.111 5.349,8.155 5.286,8.246 4.599,9.247 2.346,9.242 1.539,8.477 0.888,7.861 0.699,6.786 1.273,6.056 1.645,5.581 2.163,5.208 2.655,4.842 3.478,4.23 4.379,3.716 5.162,3.06 6.087,2.286 6.349,1.227 6.017,0.069 5.692,-1.067 4.871,-1.716 3.749,-1.973 2.602,-2.235 1.486,-2.108 0.413,-1.6 c -0.367,0.174 -0.605,0.375 -0.525,0.827 0.039,0.218 0.007,0.449 0.007,0.674 z" /></g><g
           transform="translate(115.5618,41.1721)"
           id="g72"><path
             id="path74"
             style="fill:#000000;fill-opacity:1;fill-rule:nonzero;stroke:none"
             d="m 0,0 h -0.985 v 10.558 h -3.75 v 0.789 H 3.753 V 10.574 H 0 Z" /></g><g
           transform="translate(41.2742,41.1726)"
           id="g76"><path
             id="path78"
             style="fill:#000000;fill-opacity:1;fill-rule:nonzero;stroke:none"
             d="m 0,0 h -0.934 v 0.514 c 0,3.185 0.007,6.369 -0.009,9.554 -0.002,0.401 -0.125,0.802 -0.199,1.245 l 1.142,0 z" /></g></g></g></g></svg>