<?xml version="1.0" encoding="UTF-8" standalone="no"?>
<svg
   xmlns:dc="http://purl.org/dc/elements/1.1/"
   xmlns:cc="http://creativecommons.org/ns#"
   xmlns:rdf="http://www.w3.org/1999/02/22-rdf-syntax-ns#"
   xmlns:svg="http://www.w3.org/2000/svg"
   xmlns="http://www.w3.org/2000/svg"
   viewBox="0 0 220.61333 131.06667"
   height="131.06667"
   width="220.61333"
   xml:space="preserve"
   id="svg2"
   version="1.1"><metadata
     id="metadata8"><rdf:RDF><cc:Work
         rdf:about=""><dc:format>image/svg+xml</dc:format><dc:type
           rdf:resource="http://purl.org/dc/dcmitype/StillImage" /></cc:Work></rdf:RDF></metadata><defs
     id="defs6"><clipPath
       id="clipPath18"
       clipPathUnits="userSpaceOnUse"><path
         id="path16"
         d="M 0,98.3 H 165.46 V 0 H 0 Z" /></clipPath></defs><g
     transform="matrix(1.3333333,0,0,-1.3333333,0,131.06667)"
     id="g10"><g
       id="g12"><g
         clip-path="url(#clipPath18)"
         id="g14"><g
           transform="translate(19.5973,23.3636)"
           id="g20"><path
             id="path22"
             style="fill:#0e519f;fill-opacity:1;fill-rule:nonzero;stroke:none"
             d="m 0,0 c 1.24,0 2.479,0.418 3.486,1.147 v 1.611 c -0.929,-0.93 -2.215,-1.55 -3.533,-1.55 -2.618,0 -4.741,2.263 -4.741,4.835 0,2.572 2.107,4.834 4.711,4.834 1.348,0 2.634,-0.589 3.563,-1.549 v 1.611 C 2.448,11.714 1.301,12.086 0,12.086 -3.347,12.086 -6.089,9.343 -6.089,5.996 -6.089,2.681 -3.3,0 0,0" /></g><g
           transform="translate(32.6174,34.2407)"
           id="g24"><path
             id="path26"
             style="fill:#0e519f;fill-opacity:1;fill-rule:nonzero;stroke:none"
             d="m 0,0 c 2.681,0 4.788,-2.185 4.788,-4.834 0,-2.634 -2.139,-4.835 -4.788,-4.835 -2.65,0 -4.788,2.201 -4.788,4.835 C -4.788,-2.185 -2.681,0 0,0 m 0,-10.877 c 3.331,0 6.089,2.665 6.089,6.027 0,3.347 -2.758,6.059 -6.089,6.059 -3.332,0 -6.089,-2.712 -6.089,-6.059 0,-3.362 2.757,-6.027 6.089,-6.027" /></g><g
           transform="translate(43.767,32.5676)"
           id="g28"><path
             id="path30"
             style="fill:#0e519f;fill-opacity:1;fill-rule:nonzero;stroke:none"
             d="M 0,0 9.111,-9.53 V 2.681 H 7.809 v -9.05 L -1.302,3.176 V -9.003 H 0 Z" /></g><g
           transform="translate(60.5344,24.572)"
           id="g32"><path
             id="path34"
             style="fill:#0e519f;fill-opacity:1;fill-rule:nonzero;stroke:none"
             d="M 0,0 C -1.255,0 -2.169,0.976 -2.34,2.169 L -3.61,1.813 C -3.238,0 -1.844,-1.208 0.031,-1.208 c 2.03,0 3.672,1.564 3.672,3.61 0,1.859 -1.286,2.619 -2.804,3.285 L 0.124,6.028 c -0.79,0.356 -1.828,0.821 -1.828,1.828 0,1.069 0.898,1.813 1.937,1.813 0.991,0 1.549,-0.465 2.014,-1.271 l 1.038,0.666 c -0.62,1.147 -1.72,1.814 -3.021,1.814 -1.736,0 -3.27,-1.163 -3.27,-2.975 0,-1.674 1.178,-2.371 2.541,-2.991 L 0.248,4.602 C 1.333,4.106 2.402,3.641 2.402,2.278 2.402,0.961 1.255,0 0,0" /></g><g
           transform="translate(69.7661,23.565)"
           id="g36"><path
             id="path38"
             style="fill:#0e519f;fill-opacity:1;fill-rule:nonzero;stroke:none"
             d="m 0,0 h 1.301 v 10.474 h 2.852 v 1.209 H -2.82 V 10.474 H 0 Z" /></g><g
           transform="translate(78.5524,34.0393)"
           id="g40"><path
             id="path42"
             style="fill:#0e519f;fill-opacity:1;fill-rule:nonzero;stroke:none"
             d="m 0,0 h 0.387 c 1.565,0 2.975,-0.186 2.975,-2.107 0,-1.813 -1.487,-2.092 -2.959,-2.092 H 0 Z m 0,-5.346 h 0.326 l 3.532,-5.128 h 1.596 l -3.719,5.237 c 1.798,0.155 2.929,1.425 2.929,3.223 0,2.634 -2.061,3.223 -4.277,3.223 H -1.301 V -10.474 H 0 Z" /></g><g
           transform="translate(91.9429,23.3636)"
           id="g44"><path
             id="path46"
             style="fill:#0e519f;fill-opacity:1;fill-rule:nonzero;stroke:none"
             d="m 0,0 c 1.178,0 2.34,0.465 3.146,1.333 0.929,0.96 1.022,1.968 1.022,3.238 v 7.314 H 2.867 V 4.927 C 2.867,4.013 2.913,2.99 2.293,2.247 1.751,1.596 0.837,1.208 0,1.208 c -0.852,0 -1.844,0.403 -2.355,1.116 -0.542,0.744 -0.512,1.736 -0.512,2.603 v 6.958 H -4.168 V 4.571 c 0,-1.333 0.124,-2.402 1.147,-3.378 C -2.231,0.418 -1.1,0 0,0" /></g><g
           transform="translate(105.6015,23.3636)"
           id="g48"><path
             id="path50"
             style="fill:#0e519f;fill-opacity:1;fill-rule:nonzero;stroke:none"
             d="m 0,0 c 1.24,0 2.479,0.418 3.486,1.147 v 1.611 c -0.929,-0.93 -2.215,-1.55 -3.533,-1.55 -2.618,0 -4.741,2.263 -4.741,4.835 0,2.572 2.107,4.834 4.711,4.834 1.348,0 2.634,-0.589 3.563,-1.549 v 1.611 C 2.448,11.714 1.301,12.086 0,12.086 -3.347,12.086 -6.089,9.343 -6.089,5.996 -6.089,2.681 -3.3,0 0,0" /></g><g
           transform="translate(115.2491,23.565)"
           id="g52"><path
             id="path54"
             style="fill:#0e519f;fill-opacity:1;fill-rule:nonzero;stroke:none"
             d="m 0,0 h 1.301 v 10.474 h 2.852 v 1.209 H -2.82 V 10.474 H 0 Z" /></g><path
           id="path56"
           style="fill:#0e519f;fill-opacity:1;fill-rule:nonzero;stroke:none"
           d="m 124.067,35.248 h -1.302 V 23.565 h 1.302 z" /><g
           transform="translate(133.8813,34.2407)"
           id="g58"><path
             id="path60"
             style="fill:#0e519f;fill-opacity:1;fill-rule:nonzero;stroke:none"
             d="m 0,0 c 2.681,0 4.788,-2.185 4.788,-4.834 0,-2.634 -2.139,-4.835 -4.788,-4.835 -2.65,0 -4.788,2.201 -4.788,4.835 C -4.788,-2.185 -2.681,0 0,0 m 0,-10.877 c 3.331,0 6.089,2.665 6.089,6.027 0,3.347 -2.758,6.059 -6.089,6.059 -3.331,0 -6.089,-2.712 -6.089,-6.059 0,-3.362 2.758,-6.027 6.089,-6.027" /></g><g
           transform="translate(145.0061,32.5676)"
           id="g62"><path
             id="path64"
             style="fill:#0e519f;fill-opacity:1;fill-rule:nonzero;stroke:none"
             d="M 0,0 9.111,-9.53 V 2.681 H 7.809 v -9.05 L -1.302,3.176 V -9.003 H 0 Z" /></g><g
           transform="translate(135.9499,58.7602)"
           id="g66"><path
             id="path68"
             style="fill:#0e519f;fill-opacity:1;fill-rule:nonzero;stroke:none"
             d="M 0,0 C 2.275,0 3.837,1.792 3.837,3.998 3.837,6.18 2.275,7.996 0,7.996 -2.275,7.996 -3.837,6.18 -3.837,3.998 -3.837,1.792 -2.275,0 0,0" /></g><g
           transform="translate(97.2954,58.8059)"
           id="g70"><path
             id="path72"
             style="fill:#0e519f;fill-opacity:1;fill-rule:nonzero;stroke:none"
             d="M 0,0 C 1.746,0 3.263,1.356 4.504,2.435 L 0.643,7.399 -0.184,6.847 C -1.493,5.951 -3.056,4.894 -3.056,3.125 -3.056,1.494 -1.631,0 0,0" /></g><g
           transform="translate(67.1148,58.7602)"
           id="g74"><path
             id="path76"
             style="fill:#0e519f;fill-opacity:1;fill-rule:nonzero;stroke:none"
             d="M 0,0 C 2.275,0 3.837,1.792 3.837,3.998 3.837,6.18 2.275,7.996 0,7.996 -2.275,7.996 -3.837,6.18 -3.837,3.998 -3.837,1.792 -2.275,0 0,0" /></g><g
           transform="translate(98.3983,68.6631)"
           id="g78"><path
             id="path80"
             style="fill:#0e519f;fill-opacity:1;fill-rule:nonzero;stroke:none"
             d="m 0,0 0.161,0.115 c 0.988,0.758 2.16,1.424 2.16,2.803 0,1.057 -0.873,1.769 -1.884,1.769 -1.057,0 -1.908,-0.827 -1.908,-1.907 0,-0.873 0.575,-1.517 1.058,-2.206 z" /></g><g
           transform="translate(39.9385,58.7602)"
           id="g82"><path
             id="path84"
             style="fill:#0e519f;fill-opacity:1;fill-rule:nonzero;stroke:none"
             d="m 0,0 c 2.367,0 3.608,1.907 3.608,4.09 0,2.16 -1.356,3.906 -3.631,3.906 -2.137,0 -3.515,-1.861 -3.515,-3.883 C -3.538,1.999 -2.298,0 0,0" /></g><path
           id="path86"
           style="fill:#0e519f;fill-opacity:1;fill-rule:nonzero;stroke:none"
           d="M 158.245,11.12 H 7.5 v 36.03 h 150.745 z m -144.598,63.563 4.549,-12.982 5.607,13.878 5.606,-13.878 4.549,12.982 h 2.091 l -6.64,-18.221 -5.606,13.947 -5.607,-13.947 -6.64,18.221 z m 26.062,-6.227 c 1.47,0 2.803,-0.689 3.699,-1.838 h 0.046 v 1.54 h 1.838 v -10.8 h -1.838 v 1.494 h -0.046 c -0.942,-1.195 -2.206,-1.792 -3.722,-1.792 -3.171,0 -5.17,2.688 -5.17,5.675 0,3.079 1.953,5.721 5.193,5.721 m 7.898,-0.298 h 1.126 v 3.882 h 1.838 v -3.882 h 1.93 v -1.701 h -1.93 v -9.099 h -1.838 v 9.099 H 47.607 Z M 53.531,65.4 c 0,1.816 1.471,3.056 3.217,3.056 1.241,0 2.389,-0.873 2.872,-1.999 l -1.539,-0.804 c -0.253,0.575 -0.804,1.103 -1.471,1.103 -0.643,0 -1.332,-0.506 -1.332,-1.195 0,-0.988 1.24,-1.356 2.504,-1.884 1.264,-0.528 2.504,-1.287 2.504,-3.102 0,-2.045 -1.654,-3.515 -3.653,-3.515 -1.815,0 -3.24,1.034 -3.814,2.734 l 1.632,0.689 c 0.459,-1.011 0.988,-1.723 2.205,-1.723 0.988,0 1.746,0.666 1.746,1.654 0,2.413 -4.871,1.586 -4.871,4.986 m 13.584,3.056 c 3.17,0 5.675,-2.55 5.675,-5.721 0,-3.171 -2.527,-5.675 -5.675,-5.675 -3.148,0 -5.675,2.504 -5.675,5.675 0,3.171 2.504,5.721 5.675,5.721 m 7.779,-0.298 h 1.838 v -1.31 h 0.046 c 0.758,1.034 1.746,1.608 3.079,1.608 2.987,0 3.676,-2.16 3.676,-4.687 v -6.411 h -1.838 v 6.089 c 0,1.746 -0.138,3.309 -2.274,3.309 -2.528,0 -2.689,-2.344 -2.689,-4.274 v -5.124 h -1.838 z m 21.712,-0.667 0.207,0.138 c -0.781,1.08 -1.723,2.252 -1.723,3.676 0,2.183 1.631,3.676 3.791,3.676 1.953,0 3.676,-1.378 3.676,-3.4 0,-2.068 -1.562,-3.194 -3.056,-4.32 l 3.654,-4.664 1.953,2.275 1.401,-1.149 -2.206,-2.573 2.941,-3.792 h -2.435 l -1.861,2.436 c -1.54,-1.379 -3.378,-2.734 -5.538,-2.734 -2.642,0 -5.054,1.976 -5.054,4.733 0,2.895 2.091,4.274 4.25,5.698 m 27.038,7.49 c 1.929,0 3.63,-0.551 5.169,-1.7 v -2.389 c -1.378,1.424 -3.285,2.297 -5.284,2.297 -3.86,0 -6.985,-3.354 -6.985,-7.168 0,-3.815 3.147,-7.169 7.031,-7.169 1.953,0 3.86,0.919 5.238,2.298 v -2.39 c -1.493,-1.08 -3.331,-1.7 -5.169,-1.7 -4.894,0 -9.03,3.975 -9.03,8.892 0,4.963 4.067,9.029 9.03,9.029 m 12.306,-6.525 c 3.171,0 5.675,-2.55 5.675,-5.721 0,-3.171 -2.527,-5.675 -5.675,-5.675 -3.148,0 -5.675,2.504 -5.675,5.675 0,3.171 2.504,5.721 5.675,5.721 m 6.748,-0.298 h 2.251 l 2.827,-3.677 2.826,3.677 h 2.297 l -3.952,-5.055 4.481,-5.745 h -2.229 l -3.423,4.389 -3.447,-4.389 h -2.297 l 4.595,5.745 z M 6.671,10.292 H 159.073 V 84.008 H 6.671 Z" /></g></g></g></svg>